<?xml version="1.0" encoding="UTF-8"?>
<svg width="23px" height="23px" viewBox="0 0 23 23" version="1.1" xmlns="http://www.w3.org/2000/svg" xmlns:xlink="http://www.w3.org/1999/xlink">
    <title>Group 12</title>
    <defs>
        <linearGradient x1="58.2044654%" y1="-75.8547415%" x2="35.6583082%" y2="138.444229%" id="linearGradient-1">
            <stop stop-color="#8BED7F" offset="0%"></stop>
            <stop stop-color="#48C079" offset="100%"></stop>
        </linearGradient>
    </defs>
    <g id="Page-1" stroke="none" stroke-width="1" fill="none" fill-rule="evenodd">
        <g id="Desktop-HD" transform="translate(-469.000000, -515.000000)">
            <g id="rank" transform="translate(100.000000, 391.000000)">
                <g id="Group-21" transform="translate(369.000000, 113.000000)">
                    <g id="Group-12" transform="translate(0.000000, 11.000000)">
                        <path d="M12.7879584,-5.68434189e-14 C11.8749943,-5.68434189e-14 10.9783855,0.129361956 10.1192078,0.381461409 C9.17016441,0.659929227 9.20995919,2.01765517 10.1736831,2.24006001 C15.2444886,3.41028277 19.0842935,7.66585505 19.7036199,12.8580018 C19.8207551,13.8400094 21.1660946,14.026127 21.5454348,13.1128031 C22.0198018,11.9706863 22.2671208,10.7413404 22.2671208,9.47916238 C22.2671208,4.24396556 18.0231552,-5.68434189e-14 12.7879584,-5.68434189e-14 Z" id="Combined-Shape" fill="url(#linearGradient-1)"></path>
                        <path d="M3.59397816,1.29167293 L21.255816,19.394322 C21.9520011,20.1078828 21.9819827,21.2261251 21.3505338,21.9745346 L21.2141022,22.1205737 C20.4589439,22.8573434 19.2494973,22.8424365 18.5127276,22.0872783 L0.850889803,3.98462917 C0.15470471,3.27106841 0.124723078,2.15282607 0.756171991,1.40441658 L0.892603612,1.25837744 C1.64776189,0.521607752 2.85720848,0.536514653 3.59397816,1.29167293 Z" id="Path" fill="#333333" fill-rule="nonzero" transform="translate(11.053353, 11.689476) scale(-1, 1) translate(-11.053353, -11.689476) "></path>
                        <path d="M11.4913065,8.488 L14.1763065,11.241 L10.7923065,14.709 L8.10730648,11.957 L11.4913065,8.488 Z" id="Combined-Shape" stroke="#FFFFFF" fill="#FFFFFF" fill-rule="nonzero"></path>
                        <path d="M3.59397816,1.29167293 L21.255816,19.394322 C21.9520011,20.1078828 21.9819827,21.2261251 21.3505338,21.9745346 L21.2141022,22.1205737 C20.4589439,22.8573434 19.2494973,22.8424365 18.5127276,22.0872783 L0.850889803,3.98462917 C0.15470471,3.27106841 0.124723078,2.15282607 0.756171991,1.40441658 L0.892603612,1.25837744 C1.64776189,0.521607752 2.85720848,0.536514653 3.59397816,1.29167293 Z" id="Path" fill="#333333" fill-rule="nonzero"></path>
                        <path d="M2.14215425,8.46545825 L2.01989522,8.35317679 M0.56296676,6.89624833 C-0.148149147,6.18513242 -0.185576301,5.05543999 0.450685301,4.30026339 L0.56296676,4.17800436 L3.77992674,0.961044374 C4.49104265,0.249928466 5.62073509,0.212501313 6.37591168,0.848762915 L6.49817072,0.961044374 M8.06738063,5.01395777 L7.95509917,5.13621681" id="Shape" fill="#FFFFFF" fill-rule="nonzero"></path>
                        <path d="M5.79106394,1.66815116 C5.46097405,1.33806127 4.94288357,1.31055378 4.58146025,1.58562868 L4.48703352,1.66815116 L1.27007354,4.88511114 C0.939983657,5.21520102 0.912476167,5.7332915 1.18755107,6.09471482 L1.27007354,6.18914155 L2.727002,7.64607001 C3.05709188,7.97615989 3.57518236,8.00366738 3.93660568,7.72859248 L4.03103241,7.64607001 L7.24799239,4.42911002 C7.57808228,4.09902014 7.60558977,3.58092966 7.33051486,3.21950634 L7.24799239,3.12507961 L5.79106394,1.66815116 Z" id="Path" fill="#333333" fill-rule="nonzero"></path>
                    </g>
                </g>
            </g>
        </g>
    </g>
</svg>