<?xml version="1.0" encoding="UTF-8"?>
<svg width="151px" height="38px" viewBox="0 0 151 38" version="1.1" xmlns="http://www.w3.org/2000/svg" xmlns:xlink="http://www.w3.org/1999/xlink">
    <title>logo/small</title>
    <defs>
        <linearGradient x1="34.6149577%" y1="30.7691717%" x2="34.6149577%" y2="100%" id="linearGradient-1">
            <stop stop-color="#094526" offset="0%"></stop>
            <stop stop-color="#1C834F" offset="100%"></stop>
        </linearGradient>
        <linearGradient x1="73.1272366%" y1="0%" x2="50.4093015%" y2="100.909022%" id="linearGradient-2">
            <stop stop-color="#4BD184" offset="0%"></stop>
            <stop stop-color="#6BEFA2" offset="100%"></stop>
        </linearGradient>
        <linearGradient x1="21.5984152%" y1="84.0908518%" x2="95.0265689%" y2="40.1514476%" id="linearGradient-3">
            <stop stop-color="#117043" offset="0%"></stop>
            <stop stop-color="#28A55F" offset="100%"></stop>
        </linearGradient>
        <linearGradient x1="50.1169777%" y1="9.009025%" x2="68.1052207%" y2="28.08325%" id="linearGradient-4">
            <stop stop-color="#28A55F" offset="0%"></stop>
            <stop stop-color="#31C971" offset="100%"></stop>
        </linearGradient>
        <linearGradient x1="0%" y1="31.1068339%" x2="106.0215%" y2="40.2444123%" id="linearGradient-5">
            <stop stop-color="#56E391" offset="0%"></stop>
            <stop stop-color="#137545" offset="100%"></stop>
        </linearGradient>
    </defs>
    <g id="Page-1" stroke="none" stroke-width="1" fill="none" fill-rule="evenodd">
        <g id="Desktop-HD" transform="translate(-100.000000, -9.000000)">
            <g id="Group-6">
                <g id="logo/small" transform="translate(100.000000, 9.000000)">
                    <g id="2">
                        <path d="M17.4292929,30.9846154 C19.8491219,30.9846154 21.6910119,28.9470273 21.6910119,26.6 L28.2474747,26.6 C28.2474747,32.9661364 23.3335845,38 17.4292929,38 L17.4292929,30.9846154 Z" id="路径" fill="#31C971"></path>
                        <path d="M29.4032634,19.6333333 C29.4032634,17.2140787 27.5382062,15.2487142 25.2424242,15.2487142 L25.2424242,8.23333333 C31.2150227,8.23333333 36.0606061,13.3395141 36.0606061,19.6333333 L29.4032634,19.6333333 Z" id="路径" fill="url(#linearGradient-1)"></path>
                        <path d="M6.5564719,19 C6.5564719,21.4779774 8.46664483,23.4909207 10.8181818,23.4909207 L10.8181818,30.4 C4.84560736,30.4 0,25.2938269 0,19 L6.5564719,19 Z" id="路径" fill="url(#linearGradient-2)"></path>
                        <path d="M18.030303,6.90908888 C15.8030678,6.90908888 13.8694781,8.85002901 13.8694781,11.4 L7.21212121,11.4 C7.21212121,5.17818582 11.9890937,0 18.030303,0 L18.030303,6.90908888 Z" id="路径" fill="url(#linearGradient-3)"></path>
                        <path d="M21.8244742,11.21171 C21.8244742,8.8032795 19.9891529,6.8468495 17.7298024,6.8468495 L17.7298024,0 C23.5364544,0 28.2474747,5.021871 28.2474747,11.21171 C28.2474747,17.40153 23.5364544,22.42342 17.7298024,22.42342 C15.4704519,22.42342 13.6351307,24.37985 13.6351307,26.78829 C13.6351307,29.19673 15.4704519,31.15316 17.7298024,31.15316 L17.7298024,38 C11.9231504,38 7.21212121,32.97811 7.21212121,26.78829 C7.21212121,20.59847 11.9231504,15.57658 17.7298024,15.57658 C19.9891529,15.57658 21.8244742,13.62015 21.8244742,11.21171 Z" id="路径" fill="url(#linearGradient-4)"></path>
                        <path d="M10.6395015,15.0017559 C8.35398932,15.0017559 6.49740902,16.9357867 6.49740902,19.3166526 L0,19.3166526 C0,13.1976997 4.76557136,8.23333333 10.6395015,8.23333333 C16.5134136,8.23333333 21.279003,13.1976997 21.279003,19.3166526 C21.279003,21.6975184 23.1355833,23.6315493 25.4211045,23.6315493 C27.7066258,23.6315493 29.5632061,21.6975184 29.5632061,19.3166526 L36.0606061,19.3166526 C36.0606061,25.4356994 31.2950167,30.4 25.4211045,30.4 C19.5471924,30.4 14.781603,25.4356994 14.781603,19.3166526 C14.781603,16.9357867 12.9250227,15.0017559 10.6395015,15.0017559 Z" id="路径" fill="url(#linearGradient-5)"></path>
                    </g>
                    <path d="M52.0392671,25.90625 C53.1154458,25.90625 54.1195851,25.671875 55.0516853,25.203125 C55.9837854,24.734375 56.7776877,24.0703125 57.4333922,23.2109375 C58.0890967,22.3515625 58.5433852,21.36875 58.7962578,20.2625 L58.7962578,20.2625 L55.2236974,20.2625 C54.506245,21.875 53.4330067,22.68125 52.0039825,22.68125 C51.2982916,22.68125 50.6705207,22.48125 50.1206698,22.08125 C49.570819,21.68125 49.1488746,21.153125 48.8548367,20.496875 C48.5607988,19.840625 48.4137799,19.146875 48.4137799,18.415625 C48.4137799,17.890625 48.4916999,17.384375 48.64754,16.896875 C48.8033801,16.409375 49.0371402,15.959375 49.3488204,15.546875 C49.6605006,15.134375 50.0383392,14.8109375 50.4823365,14.5765625 C50.9263337,14.3421875 51.4276683,14.225 51.9863403,14.225 C52.5567738,14.225 53.0625189,14.353125 53.5035758,14.609375 C53.9446326,14.865625 54.3062992,15.18125 54.5885756,15.55625 C54.870852,15.93125 55.0825592,16.321875 55.2236974,16.728125 L55.2236974,16.728125 L58.7962578,16.728125 C58.7021657,16.128125 58.487518,15.4984375 58.1523148,14.8390625 C57.8171116,14.1796875 57.3613529,13.5546875 56.7850386,12.9640625 C56.2087244,12.3734375 55.5177353,11.8984375 54.7120715,11.5390625 C53.9064077,11.1796875 53.0037114,11 52.0039825,11 C50.6102429,11 49.3796944,11.35625 48.3123368,12.06875 C47.2449793,12.78125 46.4260838,13.709375 45.8556503,14.853125 C45.2852168,15.996875 45,17.190625 45,18.434375 C45,19.409375 45.170542,20.3453125 45.5116259,21.2421875 C45.8527099,22.1390625 46.3378724,22.9390625 46.9671135,23.6421875 C47.5963546,24.3453125 48.344681,24.8984375 49.2120928,25.3015625 C50.0795045,25.7046875 51.021896,25.90625 52.0392671,25.90625 Z M63.577894,25.634375 L63.577894,11.290625 L60.5787076,11.290625 L60.5787076,25.634375 L63.577894,25.634375 Z M70.8118063,25.9625 C71.6821584,25.9625 72.4598887,25.7953125 73.1449969,25.4609375 C73.8301052,25.1265625 74.3990685,24.68125 74.8518869,24.125 C75.3047052,23.56875 75.644319,22.9546875 75.8707282,22.2828125 C76.0971374,21.6109375 76.2103419,20.93125 76.2103419,20.24375 C76.2103419,19.325 76.0074558,18.4234375 75.6016835,17.5390625 C75.1959112,16.6546875 74.5828422,15.9296875 73.7624765,15.3640625 C72.9421108,14.7984375 71.9585541,14.515625 70.8118063,14.515625 C69.6650585,14.515625 68.6815018,14.7984375 67.8611361,15.3640625 C67.0407704,15.9296875 66.4277014,16.6546875 66.0219291,17.5390625 C65.6161568,18.4234375 65.4132706,19.325 65.4132706,20.24375 C65.4132706,21.1625 65.6161568,22.0640625 66.0219291,22.9484375 C66.4277014,23.8328125 67.0407704,24.55625 67.8611361,25.11875 C68.6815018,25.68125 69.6650585,25.9625 70.8118063,25.9625 Z M70.8118063,22.9625 C70.1590422,22.9625 69.5959596,22.703125 69.1225586,22.184375 C68.6491576,21.665625 68.4124571,21.01875 68.4124571,20.24375 C68.4124571,19.7375 68.5197809,19.278125 68.7344286,18.865625 C68.9490763,18.453125 69.241644,18.128125 69.6121317,17.890625 C69.9826194,17.653125 70.382511,17.534375 70.8118063,17.534375 C71.2411016,17.534375 71.6409931,17.653125 72.0114809,17.890625 C72.3819686,18.128125 72.6745363,18.453125 72.889184,18.865625 C73.1038316,19.278125 73.2111555,19.7375 73.2111555,20.24375 C73.2111555,20.75 73.1038316,21.209375 72.889184,21.621875 C72.6745363,22.034375 72.3804984,22.3609375 72.0070703,22.6015625 C71.6336422,22.8421875 71.2352209,22.9625 70.8118063,22.9625 Z M83.1972624,25.634375 L86.8139284,14.8625 L83.7000672,14.8625 L81.7858805,21.584375 L81.750596,21.584375 L79.8364093,14.8625 L76.7313692,14.8625 L80.3215718,25.634375 L83.1972624,25.634375 Z M92.7423124,25.98125 C93.8067296,25.98125 94.756472,25.659375 95.5915396,25.015625 C96.4736533,24.359375 97.1558212,23.440625 97.6380433,22.259375 L97.6380433,22.259375 L94.5594666,22.259375 C94.3301171,22.578125 94.0757743,22.8265625 93.7964383,23.0046875 C93.5171023,23.1828125 93.165727,23.271875 92.7423124,23.271875 C92.1483559,23.271875 91.6308492,23.0890625 91.1897924,22.7234375 C90.7487356,22.3578125 90.4811611,21.8625 90.387069,21.2375 L90.387069,21.2375 L97.9026774,21.2375 C97.9497235,20.9 97.9732465,20.6125 97.9732465,20.375 C97.9732465,19.56875 97.8409295,18.803125 97.5762954,18.078125 C97.3116613,17.353125 96.9455841,16.728125 96.4780638,16.203125 C96.0105436,15.678125 95.4504014,15.2625 94.7976373,14.95625 C94.1448732,14.65 93.4391822,14.496875 92.6805645,14.496875 C91.9278275,14.496875 91.2294875,14.6546875 90.5855445,14.9703125 C89.9416015,15.2859375 89.3843997,15.7171875 88.9139391,16.2640625 C88.4434785,16.8109375 88.0774013,17.43125 87.8157076,18.125 C87.5540139,18.81875 87.423167,19.5375 87.423167,20.28125 C87.423167,21.3125 87.6642781,22.2671875 88.1465002,23.1453125 C88.6287224,24.0234375 89.2785461,24.715625 90.0959714,25.221875 C90.9133968,25.728125 91.7955104,25.98125 92.7423124,25.98125 Z M94.9828812,19.071875 L90.4223535,19.071875 C90.5223264,18.615625 90.7546163,18.19375 91.1192233,17.80625 C91.4838303,17.41875 92.0101581,17.225 92.6982068,17.225 C93.1686674,17.225 93.5670887,17.325 93.8934708,17.525 C94.2198528,17.725 94.469785,17.9671875 94.6432674,18.2515625 C94.8167498,18.5359375 94.9299543,18.809375 94.9828812,19.071875 L94.9828812,19.071875 Z M102.754883,25.634375 L102.754883,19.71875 C102.754883,18.9625 102.951888,18.4484375 103.345899,18.1765625 C103.73991,17.9046875 104.330926,17.759375 105.118947,17.740625 L105.118947,17.740625 L105.118947,14.496875 C104.372091,14.496875 103.8193,14.6453125 103.460574,14.9421875 C103.101847,15.2390625 102.816631,15.596875 102.604923,16.015625 L102.604923,16.015625 L102.569639,16.015625 L102.569639,14.8625 L99.7556963,14.8625 L99.7556963,25.634375 L102.754883,25.634375 Z M110.65038,25.90625 C111.761843,25.90625 112.66454,25.6953125 113.358469,25.2734375 C114.052399,24.8515625 114.550793,24.309375 114.853652,23.646875 C115.156511,22.984375 115.30794,22.271875 115.30794,21.509375 C115.30794,20.921875 115.216789,20.39375 115.034485,19.925 C114.852182,19.45625 114.534621,19.0140625 114.081802,18.5984375 C113.628984,18.1828125 112.996803,17.78125 112.185258,17.39375 C111.173768,16.89375 110.523944,16.5625 110.235787,16.4 C109.94763,16.2375 109.740333,16.0703125 109.613897,15.8984375 C109.48746,15.7265625 109.424242,15.496875 109.424242,15.209375 C109.424242,14.871875 109.541857,14.5984375 109.777088,14.3890625 C110.012318,14.1796875 110.285773,14.075 110.597453,14.075 C111.050272,14.075 111.353131,14.20625 111.506031,14.46875 C111.65893,14.73125 111.764784,15.06875 111.823591,15.48125 L111.823591,15.48125 L115.202087,15.48125 C115.178564,14.9 115.113875,14.3984375 115.008022,13.9765625 C114.902168,13.5546875 114.672819,13.109375 114.319973,12.640625 C113.90832,12.115625 113.379052,11.7109375 112.732169,11.4265625 C112.085285,11.1421875 111.408998,11 110.703307,11 C109.932928,11 109.187542,11.1703125 108.467149,11.5109375 C107.746756,11.8515625 107.160151,12.34375 106.707332,12.9875 C106.254514,13.63125 106.028105,14.384375 106.028105,15.246875 C106.028105,16.065625 106.216289,16.7546875 106.592657,17.3140625 C106.969026,17.8734375 107.3895,18.3 107.85408,18.59375 C108.31866,18.8875 108.797942,19.140625 109.291925,19.353125 C110.162277,19.746875 110.743002,20.021875 111.0341,20.178125 C111.325197,20.334375 111.544255,20.509375 111.691274,20.703125 C111.838293,20.896875 111.911803,21.153125 111.911803,21.471875 C111.911803,21.815625 111.791247,22.13125 111.550136,22.41875 C111.309025,22.70625 110.997345,22.85 110.615096,22.85 C110.291654,22.85 109.978504,22.703125 109.675645,22.409375 C109.372786,22.115625 109.221356,21.609375 109.221356,20.890625 L109.221356,20.890625 L105.825219,20.890625 L105.825219,21.35 C105.825219,21.85625 105.901668,22.3703125 106.054568,22.8921875 C106.207468,23.4140625 106.467691,23.90625 106.835239,24.36875 C107.202786,24.83125 107.70265,25.203125 108.334832,25.484375 C108.967013,25.765625 109.738863,25.90625 110.65038,25.90625 Z M121.827341,25.98125 C122.709454,25.98125 123.515118,25.784375 124.244332,25.390625 C124.973546,24.996875 125.582204,24.4640625 126.070307,23.7921875 C126.55841,23.1203125 126.896554,22.371875 127.084738,21.546875 L127.084738,21.546875 L124.032625,21.546875 C123.826798,21.953125 123.554813,22.29375 123.21667,22.56875 C122.878526,22.84375 122.427178,22.98125 121.862625,22.98125 C121.398045,22.98125 120.984922,22.8640625 120.623255,22.6296875 C120.261589,22.3953125 119.980783,22.06875 119.780837,21.65 C119.580891,21.23125 119.480918,20.7625 119.480918,20.24375 C119.480918,19.7375 119.577951,19.2765625 119.772016,18.8609375 C119.966081,18.4453125 120.242476,18.1171875 120.601203,17.8765625 C120.959929,17.6359375 121.380403,17.515625 121.862625,17.515625 C122.868235,17.515625 123.591568,18.01875 124.032625,19.025 L124.032625,19.025 L127.067096,19.025 C126.9436,18.375 126.718661,17.7671875 126.392279,17.2015625 C126.065897,16.6359375 125.671886,16.1546875 125.210247,15.7578125 C124.748607,15.3609375 124.22522,15.0515625 123.640084,14.8296875 C123.054949,14.6078125 122.427178,14.496875 121.756772,14.496875 C120.774685,14.496875 119.87934,14.753125 119.070735,15.265625 C118.262131,15.778125 117.625539,16.475 117.160959,17.35625 C116.696379,18.2375 116.46409,19.190625 116.46409,20.215625 C116.46409,21.278125 116.69932,22.2484375 117.16978,23.1265625 C117.640241,24.0046875 118.284184,24.7 119.101609,25.2125 C119.919035,25.725 120.827612,25.98125 121.827341,25.98125 Z M133.427716,26 C134.056957,26 134.642092,25.86875 135.183122,25.60625 C135.724151,25.34375 136.115222,24.9625 136.356333,24.4625 L136.356333,24.4625 L136.391617,24.4625 L136.391617,25.634375 L139.390804,25.634375 L139.390804,14.8625 L136.391617,14.8625 L136.391617,16.015625 L136.356333,16.015625 C136.138745,15.609375 135.782959,15.2546875 135.288975,14.9515625 C134.794992,14.6484375 134.174572,14.496875 133.427716,14.496875 C132.76319,14.496875 132.126598,14.63125 131.517939,14.9 C130.909281,15.16875 130.369721,15.5546875 129.899261,16.0578125 C129.4288,16.5609375 129.059783,17.1703125 128.792208,17.8859375 C128.524634,18.6015625 128.390846,19.3875 128.390846,20.24375 C128.390846,21.025 128.504051,21.759375 128.73046,22.446875 C128.956869,23.134375 129.289132,23.746875 129.727249,24.284375 C130.165365,24.821875 130.697574,25.2421875 131.323874,25.5453125 C131.950175,25.8484375 132.651456,26 133.427716,26 Z M133.877594,23 C133.318922,23 132.851401,22.8515625 132.475033,22.5546875 C132.098664,22.2578125 131.823739,21.9015625 131.650257,21.4859375 C131.476774,21.0703125 131.390033,20.66875 131.390033,20.28125 C131.390033,19.8375 131.481185,19.4046875 131.663488,18.9828125 C131.845792,18.5609375 132.122187,18.2109375 132.492675,17.9328125 C132.863163,17.6546875 133.318922,17.515625 133.859951,17.515625 C134.389219,17.515625 134.847919,17.6484375 135.236049,17.9140625 C135.624179,18.1796875 135.913806,18.5203125 136.104931,18.9359375 C136.296055,19.3515625 136.391617,19.7875 136.391617,20.24375 C136.391617,20.6375 136.307817,21.046875 136.140215,21.471875 C135.972613,21.896875 135.699158,22.2578125 135.319849,22.5546875 C134.94054,22.8515625 134.459789,23 133.877594,23 Z M144.71053,25.634375 L144.71053,19.775 C144.71053,19.41875 144.739933,19.0859375 144.798741,18.7765625 C144.857548,18.4671875 145.014859,18.1828125 145.270672,17.9234375 C145.526485,17.6640625 145.910204,17.534375 146.42183,17.534375 C146.898171,17.534375 147.252487,17.6546875 147.484777,17.8953125 C147.717067,18.1359375 147.861146,18.409375 147.917013,18.715625 C147.97288,19.021875 148.000814,19.36875 148.000814,19.75625 L148.000814,19.75625 L148.000814,25.634375 L151,25.634375 L151,18.9125 C151,17.9375 150.891206,17.1921875 150.673618,16.6765625 C150.45603,16.1609375 150.176694,15.75 149.83561,15.44375 C149.670949,15.275 149.44454,15.1171875 149.156382,14.9703125 C148.868225,14.8234375 148.560956,14.7078125 148.234574,14.6234375 C147.908192,14.5390625 147.58916,14.496875 147.27748,14.496875 C146.507101,14.496875 145.921966,14.64375 145.522074,14.9375 C145.122183,15.23125 144.795801,15.590625 144.542928,16.015625 L144.542928,16.015625 L144.507643,16.015625 L144.507643,14.8625 L141.711343,14.8625 L141.711343,25.634375 L144.71053,25.634375 Z" id="CloverScan" fill="#000000" fill-rule="nonzero"></path>
                </g>
            </g>
        </g>
    </g>
</svg>