<?xml version="1.0" encoding="UTF-8"?>
<svg width="406px" height="299px" viewBox="0 0 406 299" version="1.1" xmlns="http://www.w3.org/2000/svg" xmlns:xlink="http://www.w3.org/1999/xlink">
    <title>Group 142</title>
    <defs>
        <path d="M0.777,9.41 C1.187,9.477 1.761,10.022 2.497,11.046 L2.497,11.046 C3.234,12.07 4.661,13.603 6.782,15.644 L6.782,15.644 L19.29,1.915 L9.134,0.537 L0.777,9.41 Z" id="path-1"></path>
        <path d="M6.782,14.644 C4.661,12.603 3.234,11.07 2.497,10.046 L2.497,10.046 C1.761,9.022 1.187,8.477 0.777,8.41 L0.777,8.41 C1.187,8.477 1.761,9.022 2.497,10.046 L2.497,10.046 C3.234,11.07 4.661,12.603 6.782,14.644 L6.782,14.644 L19.29,0.915 L6.782,14.644 Z" id="path-3"></path>
        <polygon id="path-5" points="0.786 2.154 7.93 6.994 9.68 5.073 2.696 0.125"></polygon>
        <polygon id="path-7" points="0.434 2.712 7.646 7.599 9.36 5.717 2.309 0.722"></polygon>
        <path d="M2.37,1.989 L0.631,4.062 C8.327,11.647 12.176,15.438 12.176,15.438 L12.176,15.438 C12.176,15.438 16.695,18.788 18.033,18.674 L18.033,18.674 C19.37,18.56 19.613,17.033 19.372,16.355 L19.372,16.355 C19.132,15.675 15.968,12.154 16.118,10.273 L16.118,10.273 C16.218,9.019 16.714,7.453 17.605,5.576 L17.605,5.576 C15.318,3.788 14.174,2.893 14.174,2.893 L14.174,2.893 C14.174,2.893 13.316,2.409 12.581,4.648 L12.581,4.648 C11.845,6.887 12.072,7.986 10.811,7.44 L10.811,7.44 C9.972,7.077 8.165,5.097 5.395,1.504 L5.395,1.504 L3.78,0.214 L2.37,1.989 Z" id="path-9"></path>
        <polygon id="path-11" points="0.6803 0.408451858 106.864 0.408451858 106.864 55.1416441 0.6803 55.1416441"></polygon>
        <polygon id="path-13" points="0 298 405.864 298 405.864 0 0 0"></polygon>
    </defs>
    <g id="Page-1" stroke="none" stroke-width="1" fill="none" fill-rule="evenodd">
        <g id="05-1-contract-management-" transform="translate(-238.000000, -179.000000)">
            <g id="Group-142" transform="translate(238.000000, 179.000000)">
                <g id="Group-3" transform="translate(141.000000, 132.706000)">
                    <mask id="mask-2" fill="white">
                        <use xlink:href="#path-1"></use>
                    </mask>
                    <g id="Clip-2"></g>
                    <polygon id="Fill-1" fill="#FFFFFF" mask="url(#mask-2)" points="18.3479 -3.8121 -2.3901 3.5319 2.7849 18.1459 23.5229 10.8009"></polygon>
                </g>
                <g id="Group-6" transform="translate(141.000000, 133.706000)">
                    <mask id="mask-4" fill="white">
                        <use xlink:href="#path-3"></use>
                    </mask>
                    <g id="Clip-5"></g>
                    <path d="M19.2903,0.915 L6.7813,14.644 C4.6623,12.603 3.2333,11.07 2.4973,10.046 C1.7603,9.022 1.1873,8.477 0.7773,8.41 L9.1343,-0.463 L19.2903,0.915 Z" id="Stroke-4" stroke="#333333" stroke-width="8.743" mask="url(#mask-4)"></path>
                </g>
                <g id="Group-9" transform="translate(145.000000, 135.706000)">
                    <mask id="mask-6" fill="white">
                        <use xlink:href="#path-5"></use>
                    </mask>
                    <g id="Clip-8"></g>
                    <polygon id="Fill-7" fill="#FFE59C" mask="url(#mask-6)" points="17.0735 10.4658 8.4515 -8.4512 -5.1845 -2.2362 3.4375 16.6808"></polygon>
                </g>
                <g id="Group-12" transform="translate(142.000000, 138.706000)">
                    <mask id="mask-8" fill="white">
                        <use xlink:href="#path-7"></use>
                    </mask>
                    <g id="Clip-11"></g>
                    <polygon id="Fill-10" fill="#FFE59C" mask="url(#mask-8)" points="14.6535 9.623 6.0325 -9.294 -7.6035 -3.079 1.0175 15.838"></polygon>
                </g>
                <g id="Group-15" transform="translate(138.000000, 138.706000)">
                    <mask id="mask-10" fill="white">
                        <use xlink:href="#path-9"></use>
                    </mask>
                    <g id="Clip-14"></g>
                    <polygon id="Fill-13" fill="#333333" mask="url(#mask-10)" points="15.0002 -4.8453 -1.5358 1.0107 6.5622 23.8787 23.0992 18.0227"></polygon>
                </g>
                <g id="Group-141" transform="translate(0.000000, 0.706000)">
                    <path d="M140.3703,139.9887 L138.6303,142.0627 C146.3273,149.6467 150.1753,153.4387 150.1753,153.4387 C150.1753,153.4387 154.6953,156.7887 156.0333,156.6747 C157.3703,156.5597 157.6123,155.0337 157.3713,154.3547 C157.1313,153.6747 153.9683,150.1547 154.1183,148.2737 C154.2173,147.0187 154.7133,145.4527 155.6053,143.5757 C153.3173,141.7877 152.1743,140.8937 152.1743,140.8937 C152.1743,140.8937 151.3153,140.4087 150.5803,142.6477 C149.8463,144.8867 150.0723,145.9867 148.8113,145.4397 C147.9713,145.0757 146.1653,143.0967 143.3953,139.5037 L141.7803,138.2147 L140.3703,139.9887 Z" id="Stroke-16" stroke="#333333" stroke-width="1.967"></path>
                    <line x1="158.6218" y1="135.8125" x2="152.7868" y2="142.2085" id="Stroke-18" stroke="#333333" stroke-width="1.093"></line>
                    <line x1="151.2937" y1="131.124" x2="143.7827" y2="139.356" id="Stroke-20" stroke="#333333" stroke-width="1.093"></line>
                    <path d="M180.2336,117.3222 C178.5176,120.6002 176.0916,123.5842 172.8786,126.4042 C172.6716,126.6002 172.4526,126.7862 172.2336,126.9722 L172.2226,126.9832 L162.2236,139.2742 C162.2236,139.2742 148.0466,131.8572 148.9646,130.4802 C153.2596,124.0322 155.1416,122.0542 162.4416,118.0872 C162.5946,113.3002 162.8136,108.4912 163.7646,104.0002 C164.7046,99.4972 166.3876,95.3122 169.4686,91.7382 C172.1026,88.6892 174.9776,85.7272 178.8896,84.0662 C182.6276,82.4822 187.1946,81.9462 190.3316,81.8262 C190.5616,82.4492 190.8346,83.1812 191.1076,83.9572 C191.8616,86.0882 192.6486,88.5692 192.9326,90.3282 C192.9876,90.6132 193.0086,90.8852 193.0306,91.1262 C193.1626,92.9732 192.2986,100.9072 191.8836,104.6342 C191.8396,105.0492 191.8066,105.2792 191.8066,105.2792 C188.8126,105.6612 185.8506,105.3992 183.3806,105.6612 C183.0746,110.0002 182.0586,113.8252 180.2336,117.3222" id="Fill-22" fill="#333333"></path>
                    <path d="M236.6247,86.3178 C237.3567,87.9238 237.8927,89.7818 238.2097,91.7598 C238.6577,94.5908 237.9367,97.1698 237.0077,99.3778 C236.3627,100.9188 235.6197,102.2848 235.1167,103.4208 L235.0407,103.3878 C232.3627,103.2678 225.7727,104.3388 223.4347,105.6608 L222.1997,99.8038 L221.6417,99.9238 C213.4457,100.6118 191.8067,105.2788 191.8067,105.2788 C191.8067,105.2788 191.8397,105.0488 191.8837,104.6338 C191.9927,103.8578 192.1677,102.4598 192.3647,100.8198 C192.7467,97.4538 193.1727,93.0938 193.0307,91.1268 C193.0087,90.8858 192.9877,90.6128 192.9327,90.3288 C192.7907,89.3888 192.5287,88.0888 192.2007,86.7328 C191.7637,84.9298 191.2387,83.0388 190.8017,81.8038 C190.6487,81.8038 190.4957,81.8158 190.3317,81.8258 C189.8727,80.6238 189.5337,79.8158 189.5007,79.7388 C189.8077,79.8588 195.0417,82.0008 202.3857,81.8158 C211.7187,81.5528 226.6687,78.9198 231.1277,80.5148 C233.4997,81.3668 235.3567,83.4768 236.6247,86.3178" id="Fill-24" fill="#4BA870"></path>
                    <path d="M269.0173,89.1811 C269.0933,89.4981 269.0283,89.8261 268.9623,90.1541 C267.9243,95.3891 265.4213,100.3061 261.8373,104.1641 C261.7173,103.9781 261.6073,103.6071 261.5093,103.0931 C260.8093,99.5191 260.4273,89.0061 257.5853,86.1861 C256.3183,84.9301 254.4163,84.5691 252.6683,84.7551 C250.9193,84.9301 249.2473,85.5751 247.5533,86.0661 C246.8213,86.2851 245.9793,86.4601 245.3243,86.0441 C244.7233,85.6511 243.8923,82.7661 244.3733,82.1981 C244.4063,82.1651 244.4383,82.1431 244.4823,82.1211 C244.4933,82.1211 244.5043,82.1101 244.5153,82.1101 C246.5703,80.7111 249.0613,79.0501 251.2913,78.4381 C253.8153,77.7501 256.7223,78.0011 258.7113,79.7501 C259.8593,80.7551 260.6023,82.1431 261.5203,83.3671 C263.0173,85.3341 265.0173,86.8751 267.2683,87.7821 C267.9903,88.0661 268.8313,88.4161 269.0173,89.1811" id="Fill-26" fill="#333333"></path>
                    <path d="M255.0178,101.2573 C255.4438,101.2573 255.4438,102.3283 255.0178,102.3283 L254.3508,102.3283 C253.9248,102.3283 253.9248,101.2573 254.3508,101.2573 L255.0178,101.2573 Z" id="Fill-28" fill="#333333"></path>
                    <path d="M251.3674,93.4321 C251.9354,93.4321 251.9354,94.8531 251.3674,94.8531 L250.4934,94.8531 C249.9254,94.8531 249.9254,93.4321 250.4934,93.4321 L251.3674,93.4321 Z" id="Fill-30" fill="#333333"></path>
                    <path d="M192.9328,90.3286 C192.6488,88.5696 191.8618,86.0886 191.1078,83.9576 C190.8338,83.1816 190.5608,82.4496 190.3318,81.8266 C190.4958,81.8156 190.6488,81.8046 190.8018,81.8046 C191.2388,83.0386 191.7638,84.9296 192.2008,86.7326 C192.5288,88.0886 192.7908,89.3886 192.9328,90.3286" id="Fill-32" fill="#333333"></path>
                    <path d="M191.8069,105.2788 C188.8129,105.6608 185.8509,105.3988 183.3809,105.6608 C183.0749,109.9998 182.0589,113.8248 180.2339,117.3218 C178.5179,120.6008 165.0269,134.8408 161.8139,137.6598" id="Stroke-34" stroke="#333333" stroke-width="2.186"></path>
                    <path d="M193.031,91.1264 C193.162,92.9734 192.299,100.9074 191.884,104.6344" id="Stroke-36" stroke="#333333" stroke-width="2.186"></path>
                    <path d="M190.3318,81.8261 C190.4958,81.8151 190.6488,81.8041 190.8018,81.8041 C191.2388,83.0391 191.7638,84.9301 192.2008,86.7331 C192.5288,88.0881 192.7908,89.3881 192.9328,90.3281" id="Stroke-38" stroke="#333333" stroke-width="2.218" stroke-linecap="round" stroke-linejoin="round"></path>
                    <path d="M189.5012,79.7387 C189.8072,79.8587 195.0422,82.0007 202.3862,81.8157 C211.7192,81.5527 226.6692,78.9197 231.1282,80.5147 C233.4992,81.3667 235.3572,83.4767 236.6252,86.3177 C237.3572,87.9247 237.8932,89.7817 238.2092,91.7597 C238.6572,94.5907 237.9362,97.1697 237.0072,99.3777 C236.3622,100.9187 235.6192,102.2847 235.1172,103.4207 C234.9422,103.8037 234.8002,104.1537 234.6902,104.4807 C233.8162,107.2137 234.6902,109.0277 234.6902,113.5737 C234.6902,118.1197 233.8162,122.6657 235.5762,124.4807 C237.3242,126.2947 241.7172,129.0267 244.3512,129.0267 C246.9852,129.0267 250.9302,128.5677 253.1272,129.0267 C255.3132,129.4747 252.2422,131.7477 250.4932,131.7477 C248.7332,131.7477 251.3672,132.6657 254.0012,132.6657 C254.0012,132.6657 255.3132,133.1137 253.5642,134.9277 C251.8052,136.7527 251.8052,137.6597 250.0562,137.6597 C248.2962,137.6597 246.5372,136.7527 244.7892,135.8457 C243.0292,134.9277 233.0192,132.3597 227.4562,125.5187 C225.8602,123.5517 223.7512,107.4867 223.4342,105.6607" id="Stroke-40" stroke="#333333" stroke-width="1.4" stroke-linecap="round" stroke-linejoin="round"></path>
                    <path d="M221.6418,99.9238 C213.4458,100.6118 191.8068,105.2788 191.8068,105.2788 C191.8068,105.2788 191.8398,105.0488 191.8838,104.6338 C191.9928,103.8578 192.1678,102.4598 192.3648,100.8198 C192.7468,97.4538 193.1728,93.0938 193.0308,91.1268 C193.0088,90.8858 192.9878,90.6128 192.9328,90.3288 C192.6488,88.5698 191.8618,86.0888 191.1078,83.9578 C190.8338,83.1808 190.5608,82.4488 190.3318,81.8258 C189.8728,80.6238 189.5338,79.8158 189.5008,79.7388 L189.4898,79.7278" id="Stroke-42" stroke="#333333" stroke-width="1.4" stroke-linecap="round" stroke-linejoin="round"></path>
                    <path d="M172.2229,126.9829 C171.3819,127.6929 170.4639,128.3709 169.4689,129.0049" id="Stroke-44" stroke="#333333" stroke-width="2.598"></path>
                    <path d="M182.1462,99.4213 C182.1022,100.7983 182.0372,102.1863 181.9382,103.5743 C181.3482,111.9783 179.4252,120.4363 172.8782,126.4033 C172.6712,126.6003 172.4522,126.7863 172.2342,126.9723" id="Stroke-46" stroke="#333333" stroke-width="2.598"></path>
                    <line x1="172.2341" y1="126.9721" x2="172.8571" y2="126.3711" id="Stroke-48" stroke="#333333" stroke-width="2.467"></line>
                    <line x1="172.2229" y1="126.9829" x2="172.2339" y2="126.9719" id="Stroke-50" stroke="#333333" stroke-width="2.598"></line>
                    <path d="M236.133,86.3286 C236.275,86.3286 236.439,86.3176 236.625,86.3176 C237.882,86.2306 240.046,85.9026 240.832,85.3776 C240.002,84.9846 239.193,82.8536 241.423,81.9786 C242.275,81.6516 243.423,81.7606 243.739,82.6346" id="Stroke-52" stroke="#333333" stroke-width="1.4"></path>
                    <path d="M244.3733,82.1977 C244.1543,82.3507 243.9473,82.4927 243.7393,82.6347" id="Stroke-54" stroke="#333333" stroke-width="2.186"></path>
                    <path d="M244.5154,82.1103 C244.5044,82.1103 244.4934,82.1213 244.4824,82.1213 C244.4384,82.1433 244.4064,82.1653 244.3734,82.1973 C243.8924,82.7663 244.7234,85.6513 245.3244,86.0443 C245.9794,86.4603 246.8214,86.2853 247.5534,86.0663 C249.2474,85.5743 250.9194,84.9293 252.6684,84.7553 C254.4164,84.5693 256.3184,84.9293 257.5854,86.1863 C260.4274,89.0063 260.8094,99.5193 261.5094,103.0933 C261.6074,103.6073 261.7174,103.9783 261.8374,104.1643 C267.0694,101.7923 267.9244,95.3883 268.9624,90.1533 C269.0284,89.8253 269.0934,89.4983 269.0174,89.1813 C268.8314,88.4163 267.9904,88.0663 267.2684,87.7823 C265.0174,86.8753 263.0174,85.3343 261.5204,83.3673 C260.6024,82.1433 259.8594,80.7553 258.7114,79.7503 C256.7224,78.0013 253.8154,77.7503 251.2914,78.4383 C249.0614,79.0503 246.5704,80.7113 244.5154,82.1103" id="Stroke-56" stroke="#333333" stroke-width="2.186"></path>
                    <path d="M237.4773,99.5742 C237.4773,100.4052 238.2423,100.7322 238.9413,101.7492 C239.5543,102.6782 239.7173,103.6072 240.1653,104.6342 C240.6683,105.8032 242.0563,106.2732 243.2913,106.2512 C244.5263,106.2292 250.1763,106.7982 251.8053,107.0712 C254.1543,107.4642 258.9303,104.8202 260.6573,103.1152" id="Stroke-58" stroke="#333333" stroke-width="1.4"></path>
                    <path d="M245.6218,98.831 C244.7338,100.763 246.0448,102.929 247.4228,102.678" id="Stroke-60" stroke="#333333" stroke-width="1.093"></path>
                    <path d="M221.9914,98.831 L222.1994,99.804 L223.4344,105.661 C225.7734,104.339 232.3634,103.268 235.0404,103.388" id="Stroke-62" stroke="#333333" stroke-width="1.093"></path>
                    <path d="M374.0125,169.4907 C374.0125,169.4907 360.2105,161.5247 352.8465,175.8197 C352.8465,175.8197 330.2855,180.9997 340.5575,194.2117 C339.6035,191.3517 314.1505,195.6397 303.4355,209.5927 L300.4875,208.6447 C300.4875,208.6447 299.8705,202.4847 305.2175,196.3087 C310.5635,190.1337 320.6315,183.5967 326.6895,187.0117 C326.6895,187.0117 323.2445,172.5997 335.1315,169.1547 C335.1315,169.1547 343.4005,168.6157 346.5345,169.1747 C346.5345,169.1747 348.4235,155.8937 361.5035,156.9417 C369.2275,157.5597 374.0125,169.4907 374.0125,169.4907" id="Fill-64" fill="#EFEFEF"></path>
                    <g id="Group-68" transform="translate(299.000000, 156.000000)">
                        <mask id="mask-12" fill="white">
                            <use xlink:href="#path-11"></use>
                        </mask>
                        <g id="Clip-67"></g>
                        <path d="M104.1853,51.2451 L1.4063,55.1416441 L1.3943,55.1416441 C1.0153,55.1561 0.6953,54.8591 0.6803,54.4791 L0.6803,54.4261 L0.6803,54.4221 C0.7863,50.9641 1.6103,47.4941 3.1533,44.4041 C4.6793,41.3011 6.7663,38.5421 9.0723,36.0401 C10.2143,34.7961 11.4523,33.5461 12.9093,32.6051 C14.3443,31.6381 15.9473,30.9291 17.6103,30.4831 C20.9523,29.6191 24.4953,29.7641 27.7573,30.8281 L27.5413,31.1411 L27.5393,31.1381 C26.5793,29.9601 26.1833,28.4811 26.0713,27.0211 C25.9903,25.5541 26.1613,24.0771 26.5603,22.6761 C26.9843,21.2851 27.5133,19.9281 28.1853,18.6511 C28.8243,17.3461 29.7613,16.1091 30.9213,15.1901 C33.2373,13.2881 36.1973,12.5041 39.0453,12.2991 C41.9183,12.0961 44.7923,12.3881 47.5543,13.0921 L47.4503,13.1811 L47.4503,13.1781 C47.1093,9.4421 49.1063,5.7521 52.0273,3.4221 C54.9973,1.0341 58.9473,0.1931 62.6603,0.4541 C63.6123,0.5301 64.5523,0.7321 65.4613,1.0281 C66.3623,1.3491 67.2213,1.7771 68.0193,2.2931 C69.6023,3.3491 70.9433,4.7261 71.9823,6.2781 C74.0823,9.3771 75.3553,12.9211 75.9783,16.5491 L75.6973,16.5201 L75.6983,16.5181 C76.7773,14.0331 78.8313,11.9551 81.4003,10.9421 C83.9673,9.8901 86.8533,9.9691 89.4853,10.5891 C92.1433,11.2301 94.6263,12.3081 96.9823,13.6891 C99.3213,15.1141 101.3363,17.0811 102.8443,19.3731 C105.8763,24.0061 106.8363,29.6041 106.864511,34.9651 C106.8723,37.6661 106.6523,40.3611 106.2283,43.0191 C106.0213,44.3491 105.7663,45.6711 105.4713,46.9841 C105.3223,47.6401 105.1633,48.2941 104.9923,48.9461 L104.7253,49.9221 L104.5833,50.4101 L104.5083,50.6541 L104.4703,50.7771 L104.4503,50.8391 L104.4403,50.8701 C104.4763,50.7871 104.3553,51.1451 104.1853,51.2451 L104.1853,51.2451 Z M103.3443,50.1261 C103.1803,50.2061 103.0663,50.5451 103.1073,50.4411 L103.1163,50.4131 L103.1343,50.3571 L103.1703,50.2421 L103.2403,50.0091 L103.3763,49.5381 L103.6343,48.5901 C103.7993,47.9551 103.9533,47.3161 104.0973,46.6751 C104.3823,45.3921 104.6293,44.0991 104.8303,42.8011 C105.2233,40.2031 105.4843,37.5831 105.500081,34.9641 C105.5303,29.7601 104.6443,24.3981 101.8423,20.0251 C100.4483,17.8581 98.5873,16.0001 96.3943,14.6311 C94.1833,13.3021 91.7693,12.1541 89.2623,11.4981 C86.7633,10.8641 84.0763,10.6871 81.6423,11.5781 C79.2273,12.4401 77.1283,14.2891 75.9713,16.6281 L75.9703,16.6291 C75.9423,16.7051 75.8583,16.7441 75.7833,16.7161 C75.7373,16.6991 75.7043,16.6601 75.6923,16.6161 L75.6893,16.6011 C75.2463,14.8461 74.6633,13.1141 73.9283,11.4631 C73.2073,9.8081 72.3533,8.2071 71.2863,6.7731 C70.2243,5.3401 68.9783,4.0431 67.5023,3.0901 C66.7613,2.6221 65.9723,2.2391 65.1473,1.9541 C64.3153,1.6941 63.4583,1.5161 62.5853,1.4551 C60.8143,1.3171 59.0163,1.4191 57.2943,1.8331 C55.5723,2.2531 53.9463,3.0151 52.5133,4.0541 C51.0833,5.1001 49.8813,6.4661 49.0183,8.0291 C48.1403,9.5801 47.5963,11.3551 47.6193,13.1651 L47.6193,13.1681 C47.6233,13.2151 47.5893,13.2551 47.5423,13.2591 L47.5223,13.2591 L47.5153,13.2571 C44.7313,12.8041 41.8863,12.6941 39.1133,12.9991 C36.3663,13.3471 33.5983,14.1501 31.5283,15.9191 C30.4773,16.7841 29.6973,17.8851 29.0853,19.1171 C28.4203,20.3401 27.9013,21.6291 27.4813,22.9421 C27.1053,24.2651 26.8253,25.6201 26.8433,26.9891 C26.8673,28.3361 27.1253,29.7501 27.8373,30.8821 L27.8383,30.8841 C27.9073,30.9691 27.8943,31.0941 27.8103,31.1621 C27.7573,31.2051 27.6893,31.2161 27.6293,31.1991 L27.6223,31.1971 C24.4463,30.2451 20.9583,30.1921 17.7833,31.1041 C16.1973,31.5731 14.6863,32.2871 13.3443,33.2411 C11.9763,34.1751 10.8473,35.3721 9.7383,36.6401 C7.5343,39.1531 5.5763,41.8921 4.1903,44.8951 C2.7903,47.8931 2.1023,51.1591 2.0803,54.4531 L2.0803,54.4561 L1.3543,53.7421 L103.3443,50.1261 Z" id="Fill-66" fill="#333333" mask="url(#mask-12)"></path>
                    </g>
                    <mask id="mask-14" fill="white">
                        <use xlink:href="#path-13"></use>
                    </mask>
                    <g id="Clip-70"></g>
                    <polygon id="Fill-69" fill="#FFFFFF" mask="url(#mask-14)" points="276.189 229.52 327.839 229.52 327.839 141.734 276.189 141.734"></polygon>
                    <path d="M275.2258,250.832 C275.2258,250.832 307.7488,251.387 313.3028,240.869 C318.8558,230.35 320.6798,216.692 319.6428,209.627 C318.6068,202.563 318.8558,199.927 318.8558,199.927 L315.3358,197.738 C315.3358,197.738 318.5358,234.084 283.7138,237.536 C254.3918,240.443 133.7968,238.724 133.7968,238.724 L133.7968,251.001 C113.7808,252.184 93.7298,252.724 73.6818,252.621" id="Fill-71" fill="#EFEFEF" mask="url(#mask-14)"></path>
                    <path d="M266.0959,98.1616 C267.0119,98.1326 267.6699,98.1186 268.0389,98.1186 C275.0589,98.1186 309.2799,98.1186 312.7889,116.2986 C316.2999,134.4786 321.5639,215.3806 318.9319,228.1066 C316.2999,240.8326 308.4019,250.8316 286.4659,250.8316 L134.6649,250.8316 C134.6649,250.8316 127.6449,189.0186 126.7679,178.1106 C125.8899,167.2026 128.5229,113.5716 129.3999,110.8446 C130.2779,108.1176 140.8069,103.5716 145.1949,103.5716 C146.2599,103.5716 153.6329,103.2506 164.2899,102.7636" id="Stroke-72" stroke="#333333" stroke-width="1.4" mask="url(#mask-14)"></path>
                    <path d="M316.0564,141.0454 C315.1234,142.6524 313.9784,144.0944 312.7464,145.4644 C311.5144,146.8334 310.1784,148.1084 308.7644,149.2914 C307.3504,150.4764 305.8494,151.5554 304.2924,152.5464 C302.7784,153.5394 301.2934,154.5494 299.9574,155.7514 C298.6264,156.9464 297.3494,158.2134 296.2974,159.6504 C295.2244,161.0634 294.2634,162.5744 293.6004,164.2134 C293.4114,164.6134 293.2474,165.0234 293.1254,165.4474 C292.9944,165.8684 292.8364,166.2814 292.7254,166.7074 C292.5434,167.5684 292.3134,168.4214 292.2554,169.3034 C292.1164,170.1754 292.1474,171.0604 292.1364,171.9404 C292.1244,172.3804 292.2074,172.8194 292.2384,173.2584 C292.2934,173.6964 292.2924,174.1404 292.4024,174.5714 C292.5874,175.4374 292.7114,176.3154 293.0084,177.1554 L293.3934,178.4294 L293.8764,179.6714 C294.5094,181.3324 295.3684,182.8884 296.4524,184.2514 C297.5304,185.6234 298.8704,186.7654 300.4004,187.6464 C301.9254,188.5404 303.6024,189.2124 305.2794,189.9554 C306.9554,190.6964 308.6404,191.5084 310.2064,192.5324 C311.7854,193.5444 313.1864,194.8054 314.4594,196.1394 C315.7354,197.4824 316.8704,198.9584 317.8384,200.5384 C318.7644,202.1254 319.6394,203.8424 319.6974,205.7564 L319.3694,205.7634 C319.3034,204.8854 318.9994,204.0304 318.6284,203.2194 C318.2564,202.4054 317.8024,201.6274 317.3034,200.8794 C316.2944,199.3874 315.1084,198.0204 313.8274,196.7584 C312.5444,195.4924 311.1724,194.3314 309.6454,193.4164 C308.1244,192.4844 306.4864,191.7524 304.8044,191.0664 C303.1264,190.3734 301.4034,189.6844 299.7604,188.7514 C298.1154,187.8274 296.6084,186.5774 295.4174,185.0894 C294.2164,183.6094 293.2774,181.9364 292.5934,180.1954 L292.0724,178.8894 L291.6724,177.5394 C291.3694,176.6494 291.2394,175.7114 291.0524,174.7904 C290.9414,174.3324 290.9414,173.8554 290.8874,173.3874 C290.8574,172.9174 290.7764,172.4494 290.7904,171.9774 C290.8064,171.0324 290.7854,170.0864 290.9394,169.1494 C291.0124,168.2044 291.2614,167.2894 291.4674,166.3674 C291.5904,165.9114 291.7604,165.4694 291.9054,165.0214 C292.0414,164.5674 292.2204,164.1314 292.4234,163.7064 C293.9084,160.2264 296.3894,157.2794 299.2384,154.9094 C300.6494,153.6984 302.2194,152.6854 303.7804,151.7164 C305.3324,150.7904 306.8094,149.7464 308.2474,148.6504 C311.0954,146.4384 313.7264,143.8594 315.7574,140.8744 L316.0564,141.0454 Z" id="Fill-73" fill="#333333" mask="url(#mask-14)"></path>
                    <path d="M300.4177,174.123 C299.6327,173.137 299.6907,171.621 300.3327,170.529 C300.9747,169.437 302.0907,168.724 303.2557,168.302 C303.7637,168.118 304.3027,167.98 304.8357,168.049 C305.3227,168.112 305.7757,168.344 306.1817,168.628 C307.8137,169.77 308.7887,171.932 308.3827,173.928 C307.9777,175.925 306.0927,177.546 304.1287,177.396 C302.1647,177.246 300.4857,175.167 300.8627,173.164" id="Stroke-74" stroke="#333333" stroke-width="1.4" mask="url(#mask-14)"></path>
                    <path d="M254.0583,124.1054 C253.6273,125.1124 252.9543,125.9984 252.5233,127.0044 C252.2503,127.6444 253.1913,128.2024 253.4673,127.5564 C253.8983,126.5494 254.5713,125.6644 255.0023,124.6574 C255.2753,124.0174 254.3343,123.4594 254.0583,124.1054" id="Fill-75" fill="#333333" mask="url(#mask-14)"></path>
                    <path d="M254.7659,124.666 C256.7599,124.775 258.7449,125.619 259.9659,127.252 C260.4799,127.939 261.0569,128.935 260.4509,129.659 C260.1979,129.962 259.6529,130.182 259.3139,130.361 C258.0649,131.024 255.6239,132.391 254.1399,132.111 C253.4529,131.981 253.1579,133.034 253.8489,133.165 C255.0179,133.385 256.3939,132.776 257.4639,132.37 C258.7259,131.889 260.3839,131.333 261.3499,130.332 C262.4099,129.232 261.6209,127.549 260.8009,126.516 C259.3309,124.664 257.0869,123.7 254.7659,123.573 C254.0629,123.535 254.0659,124.627 254.7659,124.666" id="Fill-76" fill="#333333" mask="url(#mask-14)"></path>
                    <path d="M257.884,124.4604 C258.424,123.9264 258.794,123.2874 259.002,122.5574 C259.195,121.8794 258.14,121.5904 257.948,122.2674 C257.791,122.8204 257.52,123.2824 257.112,123.6884 C256.611,124.1834 257.384,124.9564 257.884,124.4604" id="Fill-77" fill="#333333" mask="url(#mask-14)"></path>
                    <path d="M259.8684,126.3286 C260.7074,125.9876 261.3734,125.4096 261.7724,124.5876 C262.0784,123.9566 261.1364,123.4026 260.8284,124.0356 C260.5614,124.5856 260.1544,125.0406 259.5774,125.2746 C258.9344,125.5366 259.2164,126.5936 259.8684,126.3286" id="Fill-78" fill="#333333" mask="url(#mask-14)"></path>
                    <path d="M253.8933,135.0835 C251.6193,140.3605 249.7493,145.8385 248.1183,151.3615 C246.4993,156.8945 245.1653,162.5105 244.1703,168.1845 C242.1933,179.5165 241.5143,191.1625 243.2113,202.5395 C244.0643,208.2145 245.5343,213.8035 247.7523,219.0855 C249.9643,224.3665 252.9293,229.3355 256.6183,233.7085 C258.4563,235.8985 260.4613,237.9465 262.6013,239.8435 C264.7403,241.7335 267.0283,243.5045 269.3373,245.2035 C273.9743,248.5905 278.8893,251.6055 284.0903,254.0045 C289.2833,256.4045 294.7823,258.1735 300.4283,258.9785 C306.0633,259.7965 311.8543,259.6435 317.3793,258.2905 C322.8903,256.9535 328.1733,254.4715 332.5083,250.8425 C333.5853,249.9345 334.5953,248.9455 335.4733,247.8725 C335.9083,247.3345 336.3103,246.7725 336.6363,246.1935 C336.7883,245.9035 336.9413,245.6085 337.0323,245.3235 C337.1253,245.0255 337.2333,244.6885 337.2883,244.3705 C337.5673,243.0825 337.4113,241.7625 336.6293,240.8235 C335.8563,239.8725 334.5523,239.3455 333.2123,239.1775 C330.4853,238.8285 327.6373,239.6575 325.2133,241.0785 C322.7463,242.5005 320.4423,244.2355 318.5603,246.3485 C316.7103,248.4465 315.2193,251.0205 315.0633,253.7465 C315.0013,255.0915 315.2863,256.4515 316.0943,257.4655 C316.8893,258.5075 318.0713,259.2665 319.3213,259.8345 C321.8523,260.9575 324.7003,261.4525 327.5003,261.4795 C328.9143,261.5065 330.2693,261.3095 331.7093,261.0935 C333.1303,260.8805 334.5503,260.6475 335.9653,260.3865 C341.6013,259.2855 347.2953,258.1695 352.6993,256.2455 L352.8643,256.6155 C350.2133,257.8515 347.4333,258.7075 344.6443,259.4965 C341.8523,260.2895 339.0303,260.9635 336.1843,261.5265 C334.7623,261.8155 333.3343,262.0755 331.9023,262.3165 C330.4923,262.5685 328.9743,262.7695 327.4933,262.7385 C324.5323,262.6905 321.5523,262.2085 318.8083,260.9415 C317.4563,260.2935 316.1303,259.4355 315.1803,258.1515 C314.1983,256.8605 313.8943,255.1995 314.0003,253.6835 C314.2453,250.5785 315.9333,247.9175 317.8793,245.7405 C319.8593,243.5445 322.2473,241.7765 324.7883,240.3325 C327.3143,238.8395 330.2733,237.8735 333.3303,238.0985 C334.8343,238.2275 336.4563,238.7285 337.6003,239.9915 C338.1713,240.6095 338.5213,241.4215 338.6743,242.2295 C338.8273,243.0435 338.7853,243.8595 338.6433,244.6305 C338.5793,245.0245 338.4753,245.3815 338.3583,245.7735 C338.2263,246.1765 338.0433,246.5245 337.8593,246.8735 C337.4773,247.5535 337.0323,248.1695 336.5593,248.7545 C335.6073,249.9175 334.5403,250.9565 333.4103,251.9105 C328.8703,255.7075 323.4093,258.2605 317.7073,259.6455 C311.9953,261.0425 306.0193,261.1955 300.2293,260.3535 C294.4303,259.5015 288.8153,257.6635 283.5373,255.1985 C278.2513,252.7315 273.2803,249.6495 268.6033,246.2025 C266.2673,244.4685 263.9873,242.6875 261.8043,240.7425 C259.6273,238.7985 257.5893,236.6985 255.7223,234.4555 C251.9763,229.9745 248.9723,224.8915 246.7433,219.5065 C244.5083,214.1205 243.0413,208.4395 242.2023,202.6885 C240.5333,191.1605 241.2723,179.4245 243.3083,168.0315 C244.3333,162.3265 245.6983,156.6875 247.3483,151.1345 C249.0143,145.5845 250.9053,140.1105 253.2283,134.7825 L253.8933,135.0835 Z" id="Fill-79" fill="#333333" mask="url(#mask-14)"></path>
                    <path d="M140.9978,108.0605 L138.3508,108.5895 C137.7968,108.6995 138.0318,109.5765 138.5838,109.4655 C139.4668,109.2895 140.3488,109.1135 141.2308,108.9365 C141.7848,108.8265 141.5508,107.9505 140.9978,108.0605" id="Fill-80" fill="#333333" mask="url(#mask-14)"></path>
                    <path d="M146.9494,107.3593 L144.3174,107.3593 C143.7524,107.3593 143.7514,108.2683 144.3174,108.2683 L146.9494,108.2683 C147.5134,108.2683 147.5144,107.3593 146.9494,107.3593" id="Fill-81" fill="#333333" mask="url(#mask-14)"></path>
                    <path d="M153.0862,107.0078 C152.2092,107.1128 151.3322,107.2168 150.4552,107.3218 C149.9002,107.3878 149.8942,108.2978 150.4552,108.2308 C151.3322,108.1258 152.2092,108.0218 153.0862,107.9168 C153.6412,107.8508 153.6472,106.9408 153.0862,107.0078" id="Fill-82" fill="#333333" mask="url(#mask-14)"></path>
                    <path d="M158.4704,106.4804 C157.5904,106.3234 156.7184,106.3904 155.8844,106.7314 C155.3654,106.9444 155.5914,107.8244 156.1174,107.6084 C156.8004,107.3284 157.5104,107.2274 158.2374,107.3574 C158.7894,107.4564 159.0264,106.5804 158.4704,106.4804" id="Fill-83" fill="#333333" mask="url(#mask-14)"></path>
                    <path d="M198.1345,104.9355 L194.9175,104.9355 C194.3525,104.9355 194.3515,105.8445 194.9175,105.8445 L198.1345,105.8445 C198.6995,105.8445 198.6995,104.9355 198.1345,104.9355" id="Fill-84" fill="#333333" mask="url(#mask-14)"></path>
                    <path d="M201.2727,105.7675 C201.9767,105.3955 202.7787,105.3845 203.4887,105.7465 C203.9947,106.0025 204.4397,105.2195 203.9317,104.9605 C202.9257,104.4495 201.8287,104.4545 200.8297,104.9825 C200.3267,105.2485 200.7707,106.0335 201.2727,105.7675" id="Fill-85" fill="#333333" mask="url(#mask-14)"></path>
                    <path d="M208.2483,104.6025 C207.5663,104.7065 206.8843,104.8105 206.2023,104.9145 C205.6453,104.9985 205.8823,105.8745 206.4353,105.7905 C207.1173,105.6865 207.7993,105.5825 208.4813,105.4785 C209.0383,105.3945 208.8013,104.5185 208.2483,104.6025" id="Fill-86" fill="#333333" mask="url(#mask-14)"></path>
                    <path d="M214.5139,104.6323 L212.1739,104.6323 C211.6089,104.6323 211.6089,105.5413 212.1739,105.5413 L214.5139,105.5413 C215.0779,105.5413 215.0789,104.6323 214.5139,104.6323" id="Fill-87" fill="#333333" mask="url(#mask-14)"></path>
                    <path d="M220.071,104.6323 L217.439,104.6323 C216.874,104.6323 216.873,105.5413 217.439,105.5413 L220.071,105.5413 C220.636,105.5413 220.636,104.6323 220.071,104.6323" id="Fill-88" fill="#333333" mask="url(#mask-14)"></path>
                    <path d="M267.7463,103.1176 L265.4063,103.1176 C264.8423,103.1176 264.8413,104.0266 265.4063,104.0266 L267.7463,104.0266 C268.3113,104.0266 268.3113,103.1176 267.7463,103.1176" id="Fill-89" fill="#333333" mask="url(#mask-14)"></path>
                    <path d="M273.5955,102.8208 C272.5615,102.6848 271.5415,102.7878 270.5505,103.1188 C270.0145,103.2988 270.2435,104.1758 270.7835,103.9958 C271.7065,103.6868 272.6335,103.6028 273.5955,103.7298 C274.1545,103.8028 274.1485,102.8938 273.5955,102.8208" id="Fill-90" fill="#333333" mask="url(#mask-14)"></path>
                    <path d="M279.3958,103.7421 C278.6268,103.3701 277.8258,103.2711 276.9958,103.4611 C276.4438,103.5861 276.6768,104.4631 277.2288,104.3371 C277.8148,104.2031 278.4068,104.2631 278.9528,104.5271 C279.4618,104.7731 279.9078,103.9901 279.3958,103.7421" id="Fill-91" fill="#333333" mask="url(#mask-14)"></path>
                    <path d="M287.1624,104.3579 C285.9034,103.8459 284.5974,103.6099 283.2454,103.6399 C282.6814,103.6519 282.6794,104.5609 283.2454,104.5489 C284.5234,104.5209 285.7404,104.7509 286.9294,105.2339 C287.4544,105.4479 287.6834,104.5689 287.1624,104.3579" id="Fill-92" fill="#333333" mask="url(#mask-14)"></path>
                    <path d="M292.4412,105.8276 C291.4622,105.5376 290.4842,105.2466 289.5052,104.9566 C288.9622,104.7956 288.7302,105.6716 289.2732,105.8326 C290.2512,106.1236 291.2292,106.4136 292.2082,106.7036 C292.7522,106.8656 292.9842,105.9886 292.4412,105.8276" id="Fill-93" fill="#333333" mask="url(#mask-14)"></path>
                    <path d="M297.8879,109.6162 C296.9909,108.5802 295.8069,107.8922 294.4839,107.6492 C293.9319,107.5482 293.6949,108.4242 294.2509,108.5262 C295.4389,108.7442 296.4609,109.3282 297.2669,110.2592 C297.6449,110.6952 298.2639,110.0512 297.8879,109.6162" id="Fill-94" fill="#333333" mask="url(#mask-14)"></path>
                    <path d="M303.717,114.7871 C302.769,113.7511 301.688,112.8721 300.492,112.1621 C300.002,111.8711 299.559,112.6561 300.05,112.9471 C301.184,113.6211 302.197,114.4471 303.096,115.4301 C303.486,115.8551 304.106,115.2111 303.717,114.7871" id="Fill-95" fill="#333333" mask="url(#mask-14)"></path>
                    <path d="M308.1536,119.2797 C307.3816,118.5637 306.6086,117.8477 305.8366,117.1317 C305.4166,116.7427 304.7946,117.3837 305.2156,117.7747 C305.9886,118.4907 306.7606,119.2067 307.5326,119.9227 C307.9526,120.3117 308.5756,119.6707 308.1536,119.2797" id="Fill-96" fill="#333333" mask="url(#mask-14)"></path>
                    <path d="M310.9016,124.2065 C310.4026,123.3045 309.9036,122.4015 309.4056,121.4995 C309.1246,120.9915 308.3666,121.4495 308.6476,121.9575 C309.1466,122.8605 309.6456,123.7635 310.1436,124.6655 C310.4246,125.1725 311.1826,124.7155 310.9016,124.2065" id="Fill-97" fill="#333333" mask="url(#mask-14)"></path>
                    <path d="M312.074,130.8432 C312.106,129.6062 311.858,128.4282 311.36,127.3062 C311.124,126.7752 310.368,127.2372 310.602,127.7652 C311.035,128.7402 311.224,129.7722 311.197,130.8432 C311.182,131.4282 312.059,131.4272 312.074,130.8432" id="Fill-98" fill="#333333" mask="url(#mask-14)"></path>
                    <path d="M311.1282,133.706 C311.3462,134.711 311.5642,135.715 311.7812,136.72 C311.9052,137.29 312.7522,137.049 312.6282,136.478 C312.4102,135.474 312.1922,134.469 311.9742,133.464 C311.8502,132.894 311.0042,133.135 311.1282,133.706" id="Fill-99" fill="#333333" mask="url(#mask-14)"></path>
                    <path d="M311.7571,139.0244 L312.1091,142.6544 C312.1651,143.2314 313.0431,143.2364 312.9861,142.6544 L312.6341,139.0244 C312.5781,138.4474 311.7001,138.4414 311.7571,139.0244" id="Fill-100" fill="#333333" mask="url(#mask-14)"></path>
                    <path d="M314.9832,204.1694 L314.9832,199.9274 C314.9832,199.3424 314.1062,199.3414 314.1062,199.9274 L314.1062,204.1694 C314.1062,204.7534 314.9832,204.7544 314.9832,204.1694" id="Fill-101" fill="#333333" mask="url(#mask-14)"></path>
                    <path d="M314.7551,211.0336 C314.5901,211.5946 315.4371,211.8346 315.6011,211.2756 C315.9181,210.1946 315.9791,209.1066 315.8231,207.9916 C315.7431,207.4146 314.8971,207.6596 314.9771,208.2326 C315.1091,209.1816 315.0231,210.1176 314.7551,211.0336" id="Fill-102" fill="#333333" mask="url(#mask-14)"></path>
                    <path d="M315.8357,213.8681 C315.7827,213.2901 314.9047,213.2851 314.9587,213.8681 C315.0947,215.3591 315.0417,216.8301 314.7747,218.3041 C314.6707,218.8751 315.5167,219.1201 315.6207,218.5451 C315.9017,216.9921 315.9807,215.4421 315.8357,213.8681" id="Fill-103" fill="#333333" mask="url(#mask-14)"></path>
                    <path d="M314.0935,223.2597 C314.2095,224.8517 314.1325,226.4197 313.8425,227.9887 C313.7365,228.5597 314.5815,228.8047 314.6885,228.2297 C314.9935,226.5827 315.0935,224.9337 314.9715,223.2597 C314.9285,222.6797 314.0515,222.6757 314.0935,223.2597" id="Fill-104" fill="#333333" mask="url(#mask-14)"></path>
                    <path d="M312.4924,231.5566 C311.9564,232.6416 311.4214,233.7276 310.8854,234.8126 C310.6284,235.3326 311.3854,235.7926 311.6424,235.2716 C312.1784,234.1856 312.7144,233.1006 313.2504,232.0146 C313.5074,231.4956 312.7504,231.0356 312.4924,231.5566" id="Fill-105" fill="#333333" mask="url(#mask-14)"></path>
                    <path d="M304.2913,242.6337 C303.3473,243.6437 302.2383,244.4257 300.9733,244.9377 C300.4533,245.1487 300.6793,246.0277 301.2063,245.8147 C302.6153,245.2437 303.8583,244.4037 304.9123,243.2767 C305.3043,242.8567 304.6853,242.2127 304.2913,242.6337" id="Fill-106" fill="#333333" mask="url(#mask-14)"></path>
                    <path d="M140.5149,247.3471 L137.8819,247.3471 C137.3179,247.3471 137.3169,248.2561 137.8819,248.2561 L140.5149,248.2561 C141.0789,248.2561 141.0799,247.3471 140.5149,247.3471" id="Fill-107" fill="#333333" mask="url(#mask-14)"></path>
                    <path d="M145.7795,247.0444 L143.4395,247.0444 C142.8745,247.0444 142.8735,247.9534 143.4395,247.9534 L145.7795,247.9534 C146.3435,247.9534 146.3445,247.0444 145.7795,247.0444" id="Fill-108" fill="#333333" mask="url(#mask-14)"></path>
                    <path d="M152.5066,246.4355 C151.1856,246.3685 149.8866,246.4955 148.5996,246.8075 C148.0496,246.9405 148.2826,247.8175 148.8326,247.6845 C150.0456,247.3895 151.2636,247.2805 152.5066,247.3445 C153.0706,247.3735 153.0696,246.4645 152.5066,246.4355" id="Fill-109" fill="#333333" mask="url(#mask-14)"></path>
                    <path d="M157.7712,246.7411 L155.1392,246.7411 C154.5742,246.7411 154.5732,247.6501 155.1392,247.6501 L157.7712,247.6501 C158.3362,247.6501 158.3372,246.7411 157.7712,246.7411" id="Fill-110" fill="#333333" mask="url(#mask-14)"></path>
                    <path d="M163.9138,246.4379 L160.6968,246.4379 C160.1318,246.4379 160.1308,247.3469 160.6968,247.3469 L163.9138,247.3469 C164.4778,247.3469 164.4788,246.4379 163.9138,246.4379" id="Fill-111" fill="#333333" mask="url(#mask-14)"></path>
                    <path d="M170.5246,246.5776 C169.5246,245.9896 168.4116,245.8196 167.2866,246.0646 C166.7346,246.1856 166.9686,247.0616 167.5206,246.9416 C168.4126,246.7466 169.2906,246.8976 170.0816,247.3626 C170.5736,247.6516 171.0166,246.8666 170.5246,246.5776" id="Fill-112" fill="#333333" mask="url(#mask-14)"></path>
                    <path d="M176.7825,246.4526 C175.6155,246.3946 174.4475,246.3376 173.2805,246.2806 C172.7165,246.2526 172.7175,247.1616 173.2805,247.1896 C174.4475,247.2466 175.6155,247.3046 176.7825,247.3616 C177.3465,247.3896 177.3455,246.4796 176.7825,246.4526" id="Fill-113" fill="#333333" mask="url(#mask-14)"></path>
                    <path d="M182.3401,246.7411 L179.7081,246.7411 C179.1431,246.7411 179.1421,247.6501 179.7081,247.6501 L182.3401,247.6501 C182.9051,247.6501 182.9061,246.7411 182.3401,246.7411" id="Fill-114" fill="#333333" mask="url(#mask-14)"></path>
                    <path d="M189.199,246.7104 C188.157,246.3764 187.107,246.3114 186.03,246.4784 C185.473,246.5644 185.71,247.4404 186.263,247.3554 C187.18,247.2124 188.083,247.3034 188.966,247.5864 C189.507,247.7604 189.738,246.8834 189.199,246.7104" id="Fill-115" fill="#333333" mask="url(#mask-14)"></path>
                    <path d="M197.842,246.7465 C196.673,246.7185 195.503,246.6905 194.334,246.6635 C193.769,246.6495 193.769,247.5585 194.334,247.5725 C195.503,247.6005 196.673,247.6275 197.842,247.6555 C198.407,247.6685 198.406,246.7605 197.842,246.7465" id="Fill-116" fill="#333333" mask="url(#mask-14)"></path>
                    <path d="M203.9841,246.4379 L201.0591,246.4379 C200.4951,246.4379 200.4941,247.3469 201.0591,247.3469 L203.9841,247.3469 C204.5491,247.3469 204.5501,246.4379 203.9841,246.4379" id="Fill-117" fill="#333333" mask="url(#mask-14)"></path>
                    <path d="M210.9997,246.7841 C209.8317,246.6621 208.6637,246.5391 207.4967,246.4171 C206.9347,246.3581 206.9387,247.2681 207.4967,247.3261 C208.6637,247.4491 209.8317,247.5711 210.9997,247.6931 C211.5617,247.7521 211.5577,246.8431 210.9997,246.7841" id="Fill-118" fill="#333333" mask="url(#mask-14)"></path>
                    <path d="M218.4231,246.4819 C217.2961,246.0789 216.1111,246.0599 214.9711,246.4199 C214.4321,246.5889 214.6621,247.4659 215.2041,247.2959 C216.2081,246.9799 217.1991,247.0039 218.1901,247.3579 C218.7251,247.5499 218.9541,246.6719 218.4231,246.4819" id="Fill-119" fill="#333333" mask="url(#mask-14)"></path>
                    <path d="M225.3357,246.1352 L222.9957,246.1352 C222.4317,246.1352 222.4307,247.0442 222.9957,247.0442 L225.3357,247.0442 C225.9007,247.0442 225.9017,246.1352 225.3357,246.1352" id="Fill-120" fill="#333333" mask="url(#mask-14)"></path>
                    <path d="M232.7805,246.101 C231.7375,245.773 230.6875,245.71 229.6105,245.871 C229.0535,245.954 229.2905,246.83 229.8435,246.747 C230.7595,246.611 231.6635,246.7 232.5475,246.977 C233.0885,247.147 233.3205,246.27 232.7805,246.101" id="Fill-121" fill="#333333" mask="url(#mask-14)"></path>
                    <path d="M239.5076,246.1078 C238.5686,245.7678 237.6096,245.7028 236.6306,245.8708 C236.0746,245.9658 236.3106,246.8418 236.8636,246.7468 C237.6856,246.6068 238.4906,246.6998 239.2746,246.9838 C239.8086,247.1778 240.0386,246.2998 239.5076,246.1078" id="Fill-122" fill="#333333" mask="url(#mask-14)"></path>
                    <path d="M247.5647,246.1352 L244.9327,246.1352 C244.3677,246.1352 244.3667,247.0442 244.9327,247.0442 L247.5647,247.0442 C248.1297,247.0442 248.1307,246.1352 247.5647,246.1352" id="Fill-123" fill="#333333" mask="url(#mask-14)"></path>
                    <path d="M255.5954,246.7153 C254.7614,246.3753 253.8884,246.3103 253.0084,246.4713 C252.4534,246.5733 252.6884,247.4493 253.2414,247.3483 C253.9694,247.2153 254.6784,247.3133 255.3624,247.5913 C255.8874,247.8053 256.1164,246.9273 255.5954,246.7153" id="Fill-124" fill="#333333" mask="url(#mask-14)"></path>
                    <path d="M262.011,246.4702 C260.933,246.3132 259.884,246.3812 258.842,246.7142 C258.303,246.8862 258.533,247.7632 259.075,247.5902 C259.957,247.3082 260.861,247.2142 261.778,247.3472 C262.33,247.4272 262.569,246.5512 262.011,246.4702" id="Fill-125" fill="#333333" mask="url(#mask-14)"></path>
                    <path d="M270.8059,246.6689 C269.4029,246.3839 268.0029,246.3089 266.5799,246.4669 C266.0239,246.5289 266.0179,247.4389 266.5799,247.3759 C267.9229,247.2269 269.2459,247.2759 270.5729,247.5449 C271.1239,247.6579 271.3609,246.7819 270.8059,246.6689" id="Fill-126" fill="#333333" mask="url(#mask-14)"></path>
                    <path d="M278.0984,246.164 C277.2174,246.029 276.3534,246.102 275.5204,246.437 C274.9994,246.647 275.2264,247.527 275.7534,247.314 C276.4314,247.04 277.1414,246.93 277.8654,247.04 C278.4174,247.125 278.6554,246.249 278.0984,246.164" id="Fill-127" fill="#333333" mask="url(#mask-14)"></path>
                    <path d="M287.0476,246.4628 C286.0756,246.3378 285.1036,246.2138 284.1306,246.0898 C283.5716,246.0188 283.5766,246.9278 284.1306,246.9988 C285.1036,247.1228 286.0756,247.2478 287.0476,247.3718 C287.6066,247.4428 287.6016,246.5338 287.0476,246.4628" id="Fill-128" fill="#333333" mask="url(#mask-14)"></path>
                    <path d="M293.4851,246.1352 L290.5601,246.1352 C289.9961,246.1352 289.9951,247.0442 290.5601,247.0442 L293.4851,247.0442 C294.0501,247.0442 294.0511,246.1352 293.4851,246.1352" id="Fill-129" fill="#333333" mask="url(#mask-14)"></path>
                    <path d="M298.6433,245.5605 C297.8713,245.7525 297.0983,245.9445 296.3263,246.1375 C296.1823,246.1495 296.0833,246.2275 296.0353,246.3425 C296.0303,246.3515 296.0233,246.3595 296.0193,246.3695 C296.0183,246.3725 296.0183,246.3755 296.0173,246.3785 C295.9113,246.6375 296.0713,246.9985 296.3783,247.0265 C296.3903,247.0295 296.3983,247.0365 296.4113,247.0375 C297.3193,247.1415 298.2183,246.9105 298.9813,246.3915 C299.3943,246.1105 299.1383,245.4375 298.6433,245.5605" id="Fill-130" fill="#333333" mask="url(#mask-14)"></path>
                    <path d="M215.2571,262.9174 C215.2571,262.9174 218.1311,263.3994 218.126107,263.4234 C218.126107,263.4234 151.5061,260.5344 150.7761,264.6734 L152.8751,265.0434" id="Stroke-131" stroke="#333333" stroke-linecap="round" stroke-linejoin="round" mask="url(#mask-14)"></path>
                    <path d="M242.0447,265.9086 C243.9217,265.8326 245.7957,265.8096 247.6697,265.7836 L253.2887,265.7216 C255.1627,265.7116 257.0397,265.7176 258.9167,265.7446 C260.7937,265.7926 262.6707,265.8526 264.5467,265.9996 L264.5467,266.2726 C262.6707,266.4206 260.7967,266.4946 258.9227,266.5746 C257.0487,266.6316 255.1747,266.6876 253.2977,266.7146 C251.4207,266.7126 249.5407,266.7386 247.6627,266.6676 C245.7847,266.6116 243.9077,266.5216 242.0347,266.3626 L242.0447,265.9086 Z" id="Fill-132" fill="#333333" mask="url(#mask-14)"></path>
                    <path d="M0.000199999999,285.9126 L22.8032,285.1686 L45.6092,284.5676 L91.2262,283.6376 C106.4342,283.4216 121.6392,283.1156 136.8482,282.9756 L159.6612,282.7446 L182.4762,282.6316 L182.4902,283.3576 L159.6872,284.1016 L136.8812,284.7286 C121.6782,285.1606 106.4712,285.4256 91.2662,285.7826 L45.6462,286.5666 L22.8342,286.8226 L0.0192,286.9366 L0.000199999999,285.9126 Z" id="Fill-133" fill="#333333" mask="url(#mask-14)"></path>
                    <path d="M224.1658,282.6303 C231.0408,282.4263 237.9158,282.2603 244.7908,282.1793 L255.1038,282.0333 L265.4168,281.9733 C279.1668,281.8683 292.9168,281.9323 306.6668,281.9643 L327.2928,282.0153 L347.9178,282.1673 C361.6678,282.2333 375.4188,282.4603 389.1688,282.6303 L389.1688,283.3593 C375.4188,283.5283 361.6678,283.7563 347.9178,283.8223 L327.2928,283.9743 L306.6668,284.0243 C292.9168,284.0563 279.1668,284.1213 265.4168,284.0163 L255.1038,283.9553 L244.7908,283.8103 C237.9158,283.7283 231.0408,283.5633 224.1658,283.3593 L224.1658,282.6303 Z" id="Fill-134" fill="#333333" mask="url(#mask-14)"></path>
                    <path d="M182.1462,97.1992 C182.9442,99.3062 183.6082,101.4662 184.1172,103.6682 C184.6082,105.8702 184.9712,108.1302 184.8012,110.4312 L184.2962,110.3762 C184.5432,108.1792 184.2762,105.9222 183.8682,103.7202 C183.4462,101.5142 182.8642,99.3342 182.1462,97.1992" id="Fill-135" fill="#FFFFFF" mask="url(#mask-14)"></path>
                    <path d="M87.6731,88.562 C87.6731,88.562 80.0561,84.165 75.9911,92.055 C75.9911,92.055 63.5401,94.914 69.2091,102.206 C68.6821,100.627 54.6341,102.994 48.7211,110.695 L47.0941,110.172 C47.0941,110.172 46.7541,106.771 49.7041,103.363 C52.6541,99.955 58.2121,96.348 61.5551,98.232 C61.5551,98.232 59.6531,90.278 66.2141,88.376 C66.2141,88.376 70.7771,88.08 72.5071,88.388 C72.5071,88.388 73.5501,81.058 80.7691,81.636 C85.0321,81.978 87.6731,88.562 87.6731,88.562" id="Fill-136" fill="#EFEFEF" mask="url(#mask-14)"></path>
                    <path d="M103.9626,109.6499 L47.0606,111.8629 L47.0496,111.8629 C46.6696,111.8779 46.3496,111.5819 46.3346,111.2019 L46.3356,111.1479 L46.3356,111.1449 C46.4116,109.1999 46.8976,107.2389 47.7806,105.5129 C48.6546,103.7779 49.8356,102.2509 51.1306,100.8729 C52.3716,99.4489 54.0706,98.2539 55.9536,97.8009 C57.8356,97.3359 59.8026,97.4349 61.6226,98.0479 L61.4066,98.3599 L61.4056,98.3589 C60.2646,97.0039 60.3296,95.1309 60.7206,93.5709 C60.9426,92.7809 61.2456,92.0179 61.6246,91.3049 C61.9876,90.5709 62.5376,89.8559 63.2026,89.3369 C64.5356,88.2579 66.2126,87.8289 67.8076,87.7479 C69.4156,87.6579 71.0076,87.8599 72.5266,88.3049 L72.4226,88.3939 L72.4226,88.3939 C72.2836,87.3649 72.5096,86.3009 72.9386,85.3459 C73.3916,84.3979 74.0616,83.5469 74.8836,82.8689 C75.6996,82.1779 76.6966,81.7239 77.7196,81.4359 C78.7546,81.1659 79.8166,81.1009 80.8746,81.1429 C83.0906,81.2839 85.0356,82.7239 86.1576,84.4709 C87.3166,86.2269 87.9906,88.2079 88.2706,90.2379 L87.9896,90.2099 L87.9896,90.2089 C88.5676,88.8049 89.6906,87.6069 91.1436,87.0129 C92.5896,86.3969 94.2276,86.4189 95.7106,86.7559 C97.2086,87.1089 98.5996,87.6809 99.9256,88.4649 C101.2546,89.2569 102.3986,90.3719 103.2506,91.6679 C104.1176,92.9569 104.6886,94.4159 105.0386,95.8999 C105.3996,97.3869 105.5426,98.9059 105.5546,100.4149 C105.5706,101.9239 105.4516,103.4269 105.2146,104.9079 C105.0996,105.6499 104.9546,106.3849 104.7906,107.1159 L104.5236,108.2099 L104.3736,108.7549 L104.2936,109.0279 L104.2526,109.1659 L104.2306,109.2349 C104.2616,109.1629 104.1416,109.5329 103.9626,109.6499 L103.9626,109.6499 Z M103.1206,108.5309 C102.9556,108.6049 102.8506,108.9309 102.8946,108.8149 L102.9136,108.7529 L102.9516,108.6269 L103.0256,108.3709 L103.1656,107.8539 L103.4166,106.8079 C103.5706,106.1059 103.7086,105.3999 103.8156,104.6899 C104.0226,103.2699 104.1826,101.8409 104.1906,100.4139 C104.2186,97.5799 103.7536,94.6659 102.2496,92.3189 C100.8096,89.9349 98.1746,88.4819 95.4866,87.6659 C94.1376,87.3129 92.6986,87.1929 91.3856,87.6489 C90.0876,88.0909 88.9196,89.0609 88.2626,90.3189 C88.2386,90.3939 88.1576,90.4359 88.0826,90.4119 C88.0366,90.3969 88.0026,90.3599 87.9896,90.3169 L87.9816,90.2899 C87.7026,89.3379 87.3666,88.3909 86.9396,87.4989 C86.5296,86.5999 86.0516,85.7339 85.4616,84.9659 C84.8696,84.2019 84.2046,83.5039 83.4136,83.0009 C82.6246,82.4969 81.7266,82.2029 80.7996,82.1439 C79.8446,82.0879 78.8756,82.1129 77.9456,82.3289 C77.0176,82.5509 76.1516,82.9629 75.3686,83.5019 C73.8326,84.5969 72.6766,86.3929 72.5926,88.3809 L72.5926,88.3809 C72.5966,88.4269 72.5626,88.4679 72.5166,88.4719 L72.4996,88.4719 L72.4876,88.4699 C70.9466,88.2759 69.3826,88.2559 67.8746,88.4479 C66.3816,88.6709 64.8966,89.1189 63.8096,90.0659 C63.2546,90.5319 62.8566,91.1069 62.5296,91.7729 C62.1706,92.4399 61.8946,93.1369 61.6516,93.8399 C61.2076,95.2269 61.0356,96.8159 61.7036,98.1039 L61.7036,98.1039 C61.7736,98.1879 61.7616,98.3129 61.6776,98.3819 C61.6256,98.4249 61.5586,98.4369 61.4986,98.4199 L61.4876,98.4169 C59.7546,97.9179 57.8416,97.9079 56.1266,98.4219 C54.3846,98.9399 52.9436,100.0429 51.7966,101.4719 C50.6036,102.8609 49.5516,104.3689 48.8186,106.0039 C48.0776,107.6379 47.7286,109.3949 47.7346,111.1759 L47.7346,111.1789 L47.0086,110.4629 L103.1206,108.5309 Z" id="Fill-137" fill="#333333" mask="url(#mask-14)"></path>
                    <path d="M187.3157,30.6967 C187.3157,30.6967 190.1917,21.9467 184.7337,19.0437 C179.9717,16.5107 178.5667,20.0127 178.5667,20.0127 C178.5667,20.0127 177.7227,15.3287 174.3917,15.1157 C171.0607,14.9027 169.5887,17.4057 169.7037,18.9477 C169.7037,18.9477 165.3167,17.9047 163.8577,20.5887 C162.3997,23.2727 163.4877,24.5347 163.4877,24.5347 C163.4877,24.5347 160.4207,23.4187 158.1137,25.8217 C155.8057,28.2257 155.2857,30.1537 155.2467,31.8727 L187.3157,30.6967 Z" id="Fill-138" fill="#FEE070" mask="url(#mask-14)"></path>
                    <path d="M187.6765,31.1762 L155.2695,32.4722 L155.2555,32.4732 C154.9325,32.4862 154.6595,32.2352 154.6465,31.9122 L154.6475,31.8602 L154.6475,31.8562 C154.7035,30.7282 154.9995,29.5872 155.5205,28.5932 C156.0375,27.5952 156.7255,26.7262 157.4755,25.9462 C158.2035,25.1472 159.1925,24.4492 160.2845,24.2002 C161.3765,23.9492 162.5005,24.0112 163.5455,24.3762 L163.3605,24.6442 L163.3575,24.6422 C162.6465,23.8642 162.6535,22.7582 162.8795,21.8492 C163.0025,21.3882 163.1785,20.9462 163.3965,20.5342 C163.6065,20.1082 163.9365,19.6782 164.3285,19.3732 C165.1235,18.7372 166.1095,18.5142 167.0265,18.4832 C167.9535,18.4472 168.8615,18.5882 169.7195,18.8772 L169.6305,18.9532 L169.6305,18.9522 C169.4345,17.7562 170.0355,16.5162 170.9815,15.7242 C171.4515,15.3122 172.0305,15.0382 172.6265,14.8612 C173.2305,14.7002 173.8475,14.6662 174.4625,14.6912 C175.7745,14.7612 176.9235,15.6312 177.5505,16.6532 C178.2085,17.6792 178.5735,18.8202 178.6915,19.9902 L178.4505,19.9662 L178.4505,19.9652 C178.7675,19.1472 179.3995,18.4352 180.2465,18.0792 C181.0875,17.7172 182.0435,17.7012 182.9025,17.8992 C183.7745,18.0942 184.5735,18.4082 185.3515,18.8552 C186.1285,19.3092 186.8025,19.9562 187.3065,20.7092 C188.3365,22.2242 188.6555,24.0522 188.6655,25.7742 C188.6735,26.6432 188.6045,27.5062 188.4675,28.3552 C188.4015,28.7802 188.3175,29.2022 188.2235,29.6212 L188.0695,30.2492 L187.9835,30.5622 L187.9365,30.7192 L187.9125,30.7992 L187.8995,30.8402 C187.9285,30.7712 187.8275,31.0822 187.6765,31.1762 L187.6765,31.1762 Z M186.9545,30.2172 C186.8115,30.2862 186.7185,30.5722 186.7555,30.4792 L186.7655,30.4452 L186.7865,30.3752 L186.8275,30.2332 L186.9055,29.9442 L187.0455,29.3572 C187.1325,28.9632 187.2085,28.5662 187.2685,28.1682 C187.3835,27.3712 187.4725,26.5702 187.476733,25.7732 C187.4855,24.1902 187.2355,22.5782 186.4275,21.2812 C185.6585,19.9692 184.2075,19.1442 182.7125,18.6792 C181.9665,18.4682 181.1825,18.4002 180.4535,18.6242 C179.7395,18.8502 179.0685,19.3672 178.6845,20.0592 L178.6845,20.0592 C178.6495,20.1232 178.5695,20.1462 178.5055,20.1122 C178.4755,20.0952 178.4535,20.0652 178.4435,20.0352 C178.0815,18.9722 177.6115,17.9292 176.9535,17.0772 C176.2965,16.2312 175.4145,15.6032 174.3985,15.5502 C173.3405,15.4682 172.2635,15.6682 171.3975,16.2662 C170.5405,16.8532 169.8735,17.8272 169.7765,18.9412 L169.7765,18.9422 C169.7725,18.9882 169.7335,19.0222 169.6875,19.0182 L169.6865,19.0182 C168.8085,18.9452 167.9255,18.9592 167.0845,19.0832 C166.2495,19.2252 165.4415,19.4992 164.8615,20.0122 C164.5615,20.2652 164.3535,20.5682 164.1725,20.9362 C163.9715,21.3072 163.8185,21.6942 163.6775,22.0802 C163.4295,22.8432 163.3015,23.7002 163.6145,24.4242 L163.6145,24.4252 L163.6235,24.4382 C163.6725,24.5192 163.6465,24.6252 163.5645,24.6742 C163.5225,24.6992 163.4735,24.7052 163.4295,24.6932 C162.4585,24.4242 161.3825,24.4392 160.4325,24.7332 C159.4625,25.0372 158.6935,25.6572 158.0465,26.4602 C157.3845,27.2492 156.8055,28.1022 156.4105,29.0152 C156.0095,29.9282 155.8315,30.8952 155.8465,31.8832 L155.8465,31.8862 L155.2245,31.2732 L186.9545,30.2172 Z" id="Fill-139" fill="#333333" mask="url(#mask-14)"></path>
                    <path d="M178.3098,19.0468 C178.3098,19.0468 173.9868,16.5508 171.6808,21.0288 C171.6808,21.0288 164.6138,22.6508 167.8308,26.7898 C167.5328,25.8938 159.5598,27.2368 156.2038,31.6078 L155.2808,31.3108 C155.2808,31.3108 155.0878,29.3808 156.7618,27.4468 C158.4358,25.5128 161.5898,23.4648 163.4878,24.5348 C163.4878,24.5348 162.4088,20.0208 166.1318,18.9418 C166.1318,18.9418 168.7218,18.7728 169.7038,18.9478 C169.7038,18.9478 170.2948,14.7878 174.3918,15.1158 C176.8108,15.3098 178.3098,19.0468 178.3098,19.0468" id="Fill-140" fill="#FFFFFF" mask="url(#mask-14)"></path>
                </g>
            </g>
        </g>
    </g>
</svg>