<?xml version="1.0" encoding="UTF-8"?>
<svg width="378px" height="40px" viewBox="0 0 378 40" version="1.1" xmlns="http://www.w3.org/2000/svg" xmlns:xlink="http://www.w3.org/1999/xlink">
    <title>logo/small</title>
    <defs>
        <linearGradient x1="34.6149577%" y1="30.7691717%" x2="34.6149577%" y2="100%" id="linearGradient-1">
            <stop stop-color="#094526" offset="0%"></stop>
            <stop stop-color="#1C834F" offset="100%"></stop>
        </linearGradient>
        <linearGradient x1="73.1272366%" y1="0%" x2="50.4093015%" y2="100.909022%" id="linearGradient-2">
            <stop stop-color="#4BD184" offset="0%"></stop>
            <stop stop-color="#6BEFA2" offset="100%"></stop>
        </linearGradient>
        <linearGradient x1="21.5984152%" y1="84.0908518%" x2="95.0265689%" y2="40.1514476%" id="linearGradient-3">
            <stop stop-color="#117043" offset="0%"></stop>
            <stop stop-color="#28A55F" offset="100%"></stop>
        </linearGradient>
        <linearGradient x1="50.1169777%" y1="9.009025%" x2="68.1052207%" y2="28.08325%" id="linearGradient-4">
            <stop stop-color="#28A55F" offset="0%"></stop>
            <stop stop-color="#31C971" offset="100%"></stop>
        </linearGradient>
        <linearGradient x1="0%" y1="31.1068339%" x2="106.0215%" y2="40.2444123%" id="linearGradient-5">
            <stop stop-color="#56E391" offset="0%"></stop>
            <stop stop-color="#137545" offset="100%"></stop>
        </linearGradient>
    </defs>
    <g id="Page-1" stroke="none" stroke-width="1" fill="none" fill-rule="evenodd">
        <g id="05-1-contract-management-" transform="translate(-100.000000, -8.000000)">
            <g id="navbar">
                <g id="Group-6">
                    <g id="logo/small" transform="translate(100.000000, 8.000000)">
                        <g id="Group" transform="translate(0.000000, 0.046057)">
                            <path d="M17.4292929,31.9385585 C19.8491219,31.9385585 21.6910119,29.9009704 21.6910119,27.5539431 L28.2474747,27.5539431 C28.2474747,33.9200795 23.3335845,38.9539431 17.4292929,38.9539431 L17.4292929,31.9385585 Z" id="路径" fill="#31C971"></path>
                            <path d="M29.4032634,20.5872764 C29.4032634,18.1680218 27.5382062,16.2026573 25.2424242,16.2026573 L25.2424242,9.18727641 C31.2150227,9.18727641 36.0606061,14.2934572 36.0606061,20.5872764 L29.4032634,20.5872764 Z" id="路径" fill="url(#linearGradient-1)"></path>
                            <path d="M6.5564719,19.9539431 C6.5564719,22.4319205 8.46664483,24.4448638 10.8181818,24.4448638 L10.8181818,31.3539431 C4.84560736,31.3539431 0,26.24777 0,19.9539431 L6.5564719,19.9539431 Z" id="路径" fill="url(#linearGradient-2)"></path>
                            <path d="M18.030303,7.86303195 C15.8030678,7.86303195 13.8694781,9.80397208 13.8694781,12.3539431 L7.21212121,12.3539431 C7.21212121,6.1321289 11.9890937,0.953943073 18.030303,0.953943073 L18.030303,7.86303195 Z" id="路径" fill="url(#linearGradient-3)"></path>
                            <path d="M21.8244742,12.1656531 C21.8244742,9.75722257 19.9891529,7.80079257 17.7298024,7.80079257 L17.7298024,0.953943073 C23.5364544,0.953943073 28.2474747,5.97581407 28.2474747,12.1656531 C28.2474747,18.3554731 23.5364544,23.3773631 17.7298024,23.3773631 C15.4704519,23.3773631 13.6351307,25.3337931 13.6351307,27.7422331 C13.6351307,30.1506731 15.4704519,32.1071031 17.7298024,32.1071031 L17.7298024,38.9539431 C11.9231504,38.9539431 7.21212121,33.9320531 7.21212121,27.7422331 C7.21212121,21.5524131 11.9231504,16.5305231 17.7298024,16.5305231 C19.9891529,16.5305231 21.8244742,14.5740931 21.8244742,12.1656531 Z" id="路径" fill="url(#linearGradient-4)"></path>
                            <path d="M10.6395015,15.9556989 C8.35398932,15.9556989 6.49740902,17.8897298 6.49740902,20.2705957 L0,20.2705957 C0,14.1516427 4.76557136,9.18727641 10.6395015,9.18727641 C16.5134136,9.18727641 21.279003,14.1516427 21.279003,20.2705957 C21.279003,22.6514615 23.1355833,24.5854924 25.4211045,24.5854924 C27.7066258,24.5854924 29.5632061,22.6514615 29.5632061,20.2705957 L36.0606061,20.2705957 C36.0606061,26.3896425 31.2950167,31.3539431 25.4211045,31.3539431 C19.5471924,31.3539431 14.781603,26.3896425 14.781603,20.2705957 C14.781603,17.8897298 12.9250227,15.9556989 10.6395015,15.9556989 Z" id="路径" fill="url(#linearGradient-5)"></path>
                            <path d="M51.808086,26.2548828 C52.8803516,26.2548828 53.8808399,26.0351562 54.8095509,25.5957031 C55.7382618,25.15625 56.5292774,24.5336914 57.1825977,23.7280273 C57.835918,22.9223633 58.2885548,22.0009766 58.5405079,20.9638672 L58.5405079,20.9638672 L54.9809376,20.9638672 C54.2660938,22.4755859 53.1967579,23.2314453 51.7729298,23.2314453 C51.0698048,23.2314453 50.4443165,23.0439453 49.8964649,22.6689453 C49.3486134,22.2939453 48.9282032,21.7988281 48.6352345,21.1835938 C48.3422657,20.5683594 48.1957813,19.9179688 48.1957813,19.2324219 C48.1957813,18.7402344 48.273418,18.265625 48.4286915,17.8085938 C48.5839649,17.3515625 48.8168751,16.9296875 49.127422,16.5429688 C49.4379688,16.15625 49.8144337,15.8530273 50.2568165,15.6333008 C50.6991993,15.4135742 51.198711,15.3037109 51.7553516,15.3037109 C52.323711,15.3037109 52.8276173,15.4238281 53.2670704,15.6640625 C53.7065235,15.9042969 54.0668751,16.2001953 54.3481251,16.5517578 C54.6293751,16.9033203 54.8403126,17.2695312 54.9809376,17.6503906 L54.9809376,17.6503906 L58.5405079,17.6503906 C58.4467579,17.0878906 58.2328907,16.4975586 57.8989063,15.8793945 C57.564922,15.2612305 57.1108204,14.675293 56.5366016,14.121582 C55.9623829,13.5678711 55.2739063,13.1225586 54.471172,12.7856445 C53.6684376,12.4487305 52.7690235,12.2802734 51.7729298,12.2802734 C50.3842579,12.2802734 49.1581837,12.6142578 48.0947071,13.2822266 C47.0312305,13.9501953 46.2153126,14.8203125 45.6469532,15.8925781 C45.0785938,16.9648438 44.7944141,18.0839844 44.7944141,19.25 C44.7944141,20.1640625 44.964336,21.0415039 45.3041798,21.8823242 C45.6440235,22.7231445 46.127422,23.4731445 46.7543751,24.1323242 C47.3813282,24.7915039 48.1269337,25.3100586 48.9911915,25.6879883 C49.8554493,26.065918 50.7944141,26.2548828 51.808086,26.2548828 Z M63.1723438,26 L63.1723438,12.5527344 L60.1840626,12.5527344 L60.1840626,26 L63.1723438,26 Z M70.2475391,26.3076172 C71.1147266,26.3076172 71.889629,26.1508789 72.5722462,25.8374023 C73.2548634,25.5239258 73.8217579,25.1064453 74.2729298,24.5849609 C74.7241016,24.0634766 75.0624805,23.487793 75.2880665,22.8579102 C75.5136524,22.2280273 75.6264454,21.5908203 75.6264454,20.9462891 C75.6264454,20.0849609 75.424297,19.2397461 75.0200001,18.4106445 C74.6157032,17.581543 74.0048634,16.9018555 73.1874805,16.371582 C72.3700977,15.8413086 71.3901173,15.5761719 70.2475391,15.5761719 C69.104961,15.5761719 68.1249805,15.8413086 67.3075977,16.371582 C66.4902149,16.9018555 65.8793751,17.581543 65.4750782,18.4106445 C65.0707813,19.2397461 64.8686329,20.0849609 64.8686329,20.9462891 C64.8686329,21.8076172 65.0707813,22.652832 65.4750782,23.4819336 C65.8793751,24.3110352 66.4902149,24.9892578 67.3075977,25.5166016 C68.1249805,26.0439453 69.104961,26.3076172 70.2475391,26.3076172 Z M70.2475391,23.4951172 C69.5971485,23.4951172 69.0361134,23.2519531 68.5644337,22.765625 C68.092754,22.2792969 67.8569141,21.6728516 67.8569141,20.9462891 C67.8569141,20.4716797 67.9638477,20.0410156 68.1777149,19.6542969 C68.3915821,19.2675781 68.683086,18.9628906 69.0522266,18.7402344 C69.4213673,18.5175781 69.8198048,18.40625 70.2475391,18.40625 C70.6752735,18.40625 71.073711,18.5175781 71.4428516,18.7402344 C71.8119923,18.9628906 72.1034962,19.2675781 72.3173634,19.6542969 C72.5312305,20.0410156 72.6381641,20.4716797 72.6381641,20.9462891 C72.6381641,21.4208984 72.5312305,21.8515625 72.3173634,22.2382812 C72.1034962,22.625 71.8105274,22.9311523 71.4384571,23.1567383 C71.0663868,23.3823242 70.6694141,23.4951172 70.2475391,23.4951172 Z M82.455547,26 L86.0590626,15.9013672 L82.9565235,15.9013672 L81.049297,22.203125 L81.0141407,22.203125 L79.1069141,15.9013672 L76.0131641,15.9013672 L79.5903126,26 L82.455547,26 Z M91.8334766,26.3251953 C92.8940235,26.3251953 93.8403126,26.0234375 94.6723438,25.4199219 C95.5512501,24.8046875 96.2309376,23.9433594 96.7114063,22.8359375 L96.7114063,22.8359375 L93.6440235,22.8359375 C93.4155079,23.1347656 93.1620899,23.3676758 92.8837696,23.534668 C92.6054493,23.7016602 92.2553516,23.7851562 91.8334766,23.7851562 C91.2416798,23.7851562 90.7260548,23.6137695 90.2866016,23.2709961 C89.8471485,22.9282227 89.580547,22.4638672 89.486797,21.8779297 L89.486797,21.8779297 L96.9750782,21.8779297 C97.0219532,21.5615234 97.0453907,21.2919922 97.0453907,21.0693359 C97.0453907,20.3134766 96.9135548,19.5957031 96.6498829,18.9160156 C96.386211,18.2363281 96.0214649,17.6503906 95.5556446,17.1582031 C95.0898243,16.6660156 94.5317188,16.2763672 93.8813282,15.9892578 C93.2309376,15.7021484 92.5278126,15.5585938 91.7719532,15.5585938 C91.0219532,15.5585938 90.3261524,15.706543 89.6845509,16.0024414 C89.0429493,16.2983398 88.4877735,16.7026367 88.0190235,17.215332 C87.5502735,17.7280273 87.1855274,18.3095703 86.9247852,18.9599609 C86.664043,19.6103516 86.533672,20.2841797 86.533672,20.9814453 C86.533672,21.9482422 86.7739063,22.8432617 87.2543751,23.6665039 C87.7348438,24.4897461 88.3823048,25.1386719 89.1967579,25.6132812 C90.011211,26.0878906 90.8901173,26.3251953 91.8334766,26.3251953 Z M94.0658985,19.8476562 L89.5219532,19.8476562 C89.6215626,19.4199219 89.8530079,19.0244141 90.2162891,18.6611328 C90.5795704,18.2978516 91.1039845,18.1162109 91.7895313,18.1162109 C92.2582813,18.1162109 92.655254,18.2099609 92.9804493,18.3974609 C93.3056446,18.5849609 93.554668,18.8120117 93.7275196,19.0786133 C93.9003712,19.3452148 94.0131641,19.6015625 94.0658985,19.8476562 L94.0658985,19.8476562 Z M101.677227,26 L101.677227,20.4541016 C101.677227,19.7451172 101.873516,19.2631836 102.266094,19.0083008 C102.658672,18.753418 103.247539,18.6171875 104.032695,18.5996094 L104.032695,18.5996094 L104.032695,15.5585938 C103.288555,15.5585938 102.737774,15.6977539 102.380352,15.9760742 C102.02293,16.2543945 101.73875,16.5898438 101.527813,16.9824219 L101.527813,16.9824219 L101.492656,16.9824219 L101.492656,15.9013672 L98.6889454,15.9013672 L98.6889454,26 L101.677227,26 Z M117.400859,26.2548828 C118.473125,26.2548828 119.473613,26.0351562 120.402324,25.5957031 C121.331035,25.15625 122.122051,24.5336914 122.775371,23.7280273 C123.428691,22.9223633 123.881328,22.0009766 124.133281,20.9638672 L124.133281,20.9638672 L120.573711,20.9638672 C119.858867,22.4755859 118.789531,23.2314453 117.365703,23.2314453 C116.662578,23.2314453 116.03709,23.0439453 115.489238,22.6689453 C114.941387,22.2939453 114.520977,21.7988281 114.228008,21.1835938 C113.935039,20.5683594 113.788555,19.9179688 113.788555,19.2324219 C113.788555,18.7402344 113.866191,18.265625 114.021465,17.8085938 C114.176738,17.3515625 114.409649,16.9296875 114.720195,16.5429688 C115.030742,16.15625 115.407207,15.8530273 115.84959,15.6333008 C116.291973,15.4135742 116.791484,15.3037109 117.348125,15.3037109 C117.916484,15.3037109 118.420391,15.4238281 118.859844,15.6640625 C119.299297,15.9042969 119.659649,16.2001953 119.940899,16.5517578 C120.222149,16.9033203 120.433086,17.2695312 120.573711,17.6503906 L120.573711,17.6503906 L124.133281,17.6503906 C124.039531,17.0878906 123.825664,16.4975586 123.49168,15.8793945 C123.157695,15.2612305 122.703594,14.675293 122.129375,14.121582 C121.555156,13.5678711 120.86668,13.1225586 120.063945,12.7856445 C119.261211,12.4487305 118.361797,12.2802734 117.365703,12.2802734 C115.977031,12.2802734 114.750957,12.6142578 113.687481,13.2822266 C112.624004,13.9501953 111.808086,14.8203125 111.239727,15.8925781 C110.671367,16.9648438 110.387188,18.0839844 110.387188,19.25 C110.387188,20.1640625 110.557109,21.0415039 110.896953,21.8823242 C111.236797,22.7231445 111.720195,23.4731445 112.347149,24.1323242 C112.974102,24.7915039 113.719707,25.3100586 114.583965,25.6879883 C115.448223,26.065918 116.387188,26.2548828 117.400859,26.2548828 Z M130.689922,26.3076172 C131.557109,26.3076172 132.332012,26.1508789 133.014629,25.8374023 C133.697246,25.5239258 134.264141,25.1064453 134.715313,24.5849609 C135.166484,24.0634766 135.504863,23.487793 135.730449,22.8579102 C135.956035,22.2280273 136.068828,21.5908203 136.068828,20.9462891 C136.068828,20.0849609 135.86668,19.2397461 135.462383,18.4106445 C135.058086,17.581543 134.447246,16.9018555 133.629863,16.371582 C132.812481,15.8413086 131.8325,15.5761719 130.689922,15.5761719 C129.547344,15.5761719 128.567363,15.8413086 127.749981,16.371582 C126.932598,16.9018555 126.321758,17.581543 125.917461,18.4106445 C125.513164,19.2397461 125.311016,20.0849609 125.311016,20.9462891 C125.311016,21.8076172 125.513164,22.652832 125.917461,23.4819336 C126.321758,24.3110352 126.932598,24.9892578 127.749981,25.5166016 C128.567363,26.0439453 129.547344,26.3076172 130.689922,26.3076172 Z M130.689922,23.4951172 C130.039531,23.4951172 129.478496,23.2519531 129.006816,22.765625 C128.535137,22.2792969 128.299297,21.6728516 128.299297,20.9462891 C128.299297,20.4716797 128.406231,20.0410156 128.620098,19.6542969 C128.833965,19.2675781 129.125469,18.9628906 129.494609,18.7402344 C129.86375,18.5175781 130.262188,18.40625 130.689922,18.40625 C131.117656,18.40625 131.516094,18.5175781 131.885234,18.7402344 C132.254375,18.9628906 132.545879,19.2675781 132.759746,19.6542969 C132.973613,20.0410156 133.080547,20.4716797 133.080547,20.9462891 C133.080547,21.4208984 132.973613,21.8515625 132.759746,22.2382812 C132.545879,22.625 132.25291,22.9311523 131.88084,23.1567383 C131.50877,23.3823242 131.111797,23.4951172 130.689922,23.4951172 Z M140.753399,26 L140.753399,20.5068359 C140.753399,20.1728516 140.782695,19.8608398 140.841289,19.5708008 C140.899883,19.2807617 141.056621,19.0141602 141.311504,18.7709961 C141.566387,18.527832 141.948711,18.40625 142.458477,18.40625 C142.933086,18.40625 143.286113,18.519043 143.517559,18.7446289 C143.749004,18.9702148 143.892559,19.2265625 143.948223,19.5136719 C144.003887,19.8007812 144.031719,20.1259766 144.031719,20.4892578 L144.031719,20.4892578 L144.031719,26 L147.02,26 L147.02,19.6982422 C147.02,18.7841797 146.911602,18.0854492 146.694805,17.6020508 C146.478008,17.1186523 146.199688,16.7333984 145.859844,16.4462891 C145.695781,16.2880859 145.470195,16.1401367 145.183086,16.0024414 C144.895977,15.8647461 144.589824,15.7563477 144.264629,15.6772461 C143.939434,15.5981445 143.621563,15.5585938 143.311016,15.5585938 C142.543438,15.5585938 141.96043,15.6962891 141.561992,15.9716797 C141.163555,16.2470703 140.838359,16.5839844 140.586406,16.9824219 L140.586406,16.9824219 L140.55125,16.9824219 L140.55125,15.9013672 L137.765117,15.9013672 L137.765117,26 L140.753399,26 Z M152.715313,26 L152.715313,18.2041016 L154.156719,18.2041016 L154.156719,15.9013672 L152.715313,15.9013672 L152.715313,12.5527344 L149.727031,12.5527344 L149.727031,15.9013672 L148.259258,15.9013672 L148.259258,18.2041016 L149.727031,18.2041016 L149.727031,26 L152.715313,26 Z M158.428203,26 L158.428203,20.4541016 C158.428203,19.7451172 158.624492,19.2631836 159.01707,19.0083008 C159.409649,18.753418 159.998516,18.6171875 160.783672,18.5996094 L160.783672,18.5996094 L160.783672,15.5585938 C160.039531,15.5585938 159.48875,15.6977539 159.131328,15.9760742 C158.773906,16.2543945 158.489727,16.5898438 158.278789,16.9824219 L158.278789,16.9824219 L158.243633,16.9824219 L158.243633,15.9013672 L155.439922,15.9013672 L155.439922,26 L158.428203,26 Z M166.540508,26.3427734 C167.167461,26.3427734 167.750469,26.2197266 168.289531,25.9736328 C168.828594,25.7275391 169.218242,25.3701172 169.458477,24.9013672 L169.458477,24.9013672 L169.493633,24.9013672 L169.493633,26 L172.481914,26 L172.481914,15.9013672 L169.493633,15.9013672 L169.493633,16.9824219 L169.458477,16.9824219 C169.24168,16.6015625 168.887188,16.269043 168.395,15.9848633 C167.902813,15.7006836 167.284649,15.5585938 166.540508,15.5585938 C165.878399,15.5585938 165.244121,15.6845703 164.637676,15.9365234 C164.031231,16.1884766 163.493633,16.550293 163.024883,17.0219727 C162.556133,17.4936523 162.188457,18.0649414 161.921856,18.7358398 C161.655254,19.4067383 161.521953,20.1435547 161.521953,20.9462891 C161.521953,21.6787109 161.634746,22.3671875 161.860332,23.0117188 C162.085918,23.65625 162.416973,24.2304688 162.853496,24.734375 C163.29002,25.2382812 163.820293,25.6323242 164.444316,25.9165039 C165.06834,26.2006836 165.76707,26.3427734 166.540508,26.3427734 Z M166.98875,23.5302734 C166.432109,23.5302734 165.966289,23.3911133 165.591289,23.112793 C165.216289,22.8344727 164.942363,22.5004883 164.769512,22.1108398 C164.59666,21.7211914 164.510234,21.3447266 164.510234,20.9814453 C164.510234,20.5654297 164.601055,20.159668 164.782695,19.7641602 C164.964336,19.3686523 165.239727,19.0405273 165.608867,18.7797852 C165.978008,18.519043 166.432109,18.3886719 166.971172,18.3886719 C167.498516,18.3886719 167.955547,18.5131836 168.342266,18.762207 C168.728984,19.0112305 169.017559,19.3305664 169.207988,19.7202148 C169.398418,20.1098633 169.493633,20.5185547 169.493633,20.9462891 C169.493633,21.3154297 169.410137,21.6992188 169.243145,22.0976562 C169.076152,22.4960938 168.803691,22.8344727 168.425762,23.112793 C168.047832,23.3911133 167.568828,23.5302734 166.98875,23.5302734 Z M179.521953,26.3251953 C180.400859,26.3251953 181.203594,26.140625 181.930156,25.7714844 C182.656719,25.4023438 183.263164,24.902832 183.749492,24.2729492 C184.23582,23.6430664 184.572734,22.9414062 184.760234,22.1679688 L184.760234,22.1679688 L181.719219,22.1679688 C181.514141,22.5488281 181.243145,22.8681641 180.906231,23.1259766 C180.569316,23.3837891 180.119609,23.5126953 179.557109,23.5126953 C179.094219,23.5126953 178.682598,23.402832 178.322246,23.1831055 C177.961895,22.9633789 177.682109,22.6572266 177.482891,22.2646484 C177.283672,21.8720703 177.184063,21.4326172 177.184063,20.9462891 C177.184063,20.4716797 177.280742,20.0395508 177.474102,19.6499023 C177.667461,19.2602539 177.942852,18.9526367 178.300274,18.7270508 C178.657695,18.5014648 179.076641,18.3886719 179.557109,18.3886719 C180.559063,18.3886719 181.279766,18.8603516 181.719219,19.8037109 L181.719219,19.8037109 L184.742656,19.8037109 C184.619609,19.1943359 184.395488,18.6245117 184.070293,18.0942383 C183.745098,17.5639648 183.35252,17.112793 182.892559,16.7407227 C182.432598,16.3686523 181.911113,16.0786133 181.328106,15.8706055 C180.745098,15.6625977 180.119609,15.5585938 179.451641,15.5585938 C178.473125,15.5585938 177.581035,15.7988281 176.775371,16.2792969 C175.969707,16.7597656 175.33543,17.4130859 174.872539,18.2392578 C174.409649,19.0654297 174.178203,19.9589844 174.178203,20.9199219 C174.178203,21.9160156 174.412578,22.8256836 174.881328,23.6489258 C175.350078,24.472168 175.99168,25.1240234 176.806133,25.6044922 C177.620586,26.0849609 178.525859,26.3251953 179.521953,26.3251953 Z M189.972149,26 L189.972149,18.2041016 L191.413555,18.2041016 L191.413555,15.9013672 L189.972149,15.9013672 L189.972149,12.5527344 L186.983867,12.5527344 L186.983867,15.9013672 L185.516094,15.9013672 L185.516094,18.2041016 L186.983867,18.2041016 L186.983867,26 L189.972149,26 Z M201.538555,26 L201.424297,15.9189453 L201.459453,15.8837891 L204.307109,26 L206.557109,26 L209.404766,15.8837891 L209.439922,15.9189453 L209.325664,26 L212.463359,26 L212.463359,12.5527344 L208.068828,12.5527344 L205.458477,21.3945312 L205.42332,21.3945312 L202.777813,12.5527344 L198.400859,12.5527344 L198.400859,26 L201.538555,26 Z M219.30125,26.3427734 C219.928203,26.3427734 220.511211,26.2197266 221.050274,25.9736328 C221.589336,25.7275391 221.978984,25.3701172 222.219219,24.9013672 L222.219219,24.9013672 L222.254375,24.9013672 L222.254375,26 L225.242656,26 L225.242656,15.9013672 L222.254375,15.9013672 L222.254375,16.9824219 L222.219219,16.9824219 C222.002422,16.6015625 221.64793,16.269043 221.155742,15.9848633 C220.663555,15.7006836 220.045391,15.5585938 219.30125,15.5585938 C218.639141,15.5585938 218.004863,15.6845703 217.398418,15.9365234 C216.791973,16.1884766 216.254375,16.550293 215.785625,17.0219727 C215.316875,17.4936523 214.949199,18.0649414 214.682598,18.7358398 C214.415996,19.4067383 214.282695,20.1435547 214.282695,20.9462891 C214.282695,21.6787109 214.395488,22.3671875 214.621074,23.0117188 C214.84666,23.65625 215.177715,24.2304688 215.614238,24.734375 C216.050762,25.2382812 216.581035,25.6323242 217.205059,25.9165039 C217.829082,26.2006836 218.527813,26.3427734 219.30125,26.3427734 Z M219.749492,23.5302734 C219.192852,23.5302734 218.727031,23.3911133 218.352031,23.112793 C217.977031,22.8344727 217.703106,22.5004883 217.530254,22.1108398 C217.357402,21.7211914 217.270977,21.3447266 217.270977,20.9814453 C217.270977,20.5654297 217.361797,20.159668 217.543438,19.7641602 C217.725078,19.3686523 218.000469,19.0405273 218.369609,18.7797852 C218.73875,18.519043 219.192852,18.3886719 219.731914,18.3886719 C220.259258,18.3886719 220.716289,18.5131836 221.103008,18.762207 C221.489727,19.0112305 221.778301,19.3305664 221.968731,19.7202148 C222.15916,20.1098633 222.254375,20.5185547 222.254375,20.9462891 C222.254375,21.3154297 222.170879,21.6992188 222.003887,22.0976562 C221.836895,22.4960938 221.564434,22.8344727 221.186504,23.112793 C220.808574,23.3911133 220.32957,23.5302734 219.749492,23.5302734 Z M230.410625,26 L230.410625,20.5068359 C230.410625,20.1728516 230.439922,19.8608398 230.498516,19.5708008 C230.557109,19.2807617 230.713848,19.0141602 230.968731,18.7709961 C231.223613,18.527832 231.605938,18.40625 232.115703,18.40625 C232.590313,18.40625 232.94334,18.519043 233.174785,18.7446289 C233.406231,18.9702148 233.549785,19.2265625 233.605449,19.5136719 C233.661113,19.8007812 233.688945,20.1259766 233.688945,20.4892578 L233.688945,20.4892578 L233.688945,26 L236.677227,26 L236.677227,19.6982422 C236.677227,18.7841797 236.568828,18.0854492 236.352031,17.6020508 C236.135234,17.1186523 235.856914,16.7333984 235.51707,16.4462891 C235.353008,16.2880859 235.127422,16.1401367 234.840313,16.0024414 C234.553203,15.8647461 234.247051,15.7563477 233.921856,15.6772461 C233.59666,15.5981445 233.278789,15.5585938 232.968242,15.5585938 C232.200664,15.5585938 231.617656,15.6962891 231.219219,15.9716797 C230.820781,16.2470703 230.495586,16.5839844 230.243633,16.9824219 L230.243633,16.9824219 L230.208477,16.9824219 L230.208477,15.9013672 L227.422344,15.9013672 L227.422344,26 L230.410625,26 Z M243.348125,26.3427734 C243.975078,26.3427734 244.558086,26.2197266 245.097149,25.9736328 C245.636211,25.7275391 246.025859,25.3701172 246.266094,24.9013672 L246.266094,24.9013672 L246.30125,24.9013672 L246.30125,26 L249.289531,26 L249.289531,15.9013672 L246.30125,15.9013672 L246.30125,16.9824219 L246.266094,16.9824219 C246.049297,16.6015625 245.694805,16.269043 245.202617,15.9848633 C244.71043,15.7006836 244.092266,15.5585938 243.348125,15.5585938 C242.686016,15.5585938 242.051738,15.6845703 241.445293,15.9365234 C240.838848,16.1884766 240.30125,16.550293 239.8325,17.0219727 C239.36375,17.4936523 238.996074,18.0649414 238.729473,18.7358398 C238.462871,19.4067383 238.32957,20.1435547 238.32957,20.9462891 C238.32957,21.6787109 238.442363,22.3671875 238.667949,23.0117188 C238.893535,23.65625 239.22459,24.2304688 239.661113,24.734375 C240.097637,25.2382812 240.62791,25.6323242 241.251934,25.9165039 C241.875957,26.2006836 242.574688,26.3427734 243.348125,26.3427734 Z M243.796367,23.5302734 C243.239727,23.5302734 242.773906,23.3911133 242.398906,23.112793 C242.023906,22.8344727 241.749981,22.5004883 241.577129,22.1108398 C241.404277,21.7211914 241.317852,21.3447266 241.317852,20.9814453 C241.317852,20.5654297 241.408672,20.159668 241.590313,19.7641602 C241.771953,19.3686523 242.047344,19.0405273 242.416484,18.7797852 C242.785625,18.519043 243.239727,18.3886719 243.778789,18.3886719 C244.306133,18.3886719 244.763164,18.5131836 245.149883,18.762207 C245.536602,19.0112305 245.825176,19.3305664 246.015606,19.7202148 C246.206035,20.1098633 246.30125,20.5185547 246.30125,20.9462891 C246.30125,21.3154297 246.217754,21.6992188 246.050762,22.0976562 C245.88377,22.4960938 245.611309,22.8344727 245.233379,23.112793 C244.855449,23.3911133 244.376445,23.5302734 243.796367,23.5302734 Z M256.162578,30.4824219 C256.936016,30.4824219 257.662578,30.3769531 258.342266,30.1660156 C259.021953,29.9550781 259.607891,29.6665039 260.100078,29.300293 C260.592266,28.934082 260.967266,28.5371094 261.225078,28.109375 C261.453594,27.7109375 261.608867,27.2568359 261.690899,26.7470703 C261.77293,26.2373047 261.813945,25.5810547 261.813945,24.7783203 L261.813945,24.7783203 L261.813945,15.9013672 L258.834453,15.9013672 L258.834453,16.859375 L258.790508,16.859375 C258.544414,16.4375 258.173809,16.1181641 257.678691,15.9013672 C257.183574,15.6845703 256.637188,15.5761719 256.039531,15.5761719 C255.166484,15.5761719 254.341777,15.7929688 253.56541,16.2265625 C252.789043,16.6601562 252.167949,17.2929688 251.702129,18.125 C251.236309,18.9570312 251.003399,19.9208984 251.003399,21.0166016 C251.003399,22.0595703 251.230449,22.9853516 251.684551,23.7939453 C252.138652,24.6025391 252.752422,25.2265625 253.525859,25.6660156 C254.299297,26.1054688 255.137188,26.3251953 256.039531,26.3251953 C256.502422,26.3251953 256.927227,26.2504883 257.313945,26.1010742 C257.700664,25.9516602 258.015606,25.7641602 258.25877,25.5385742 C258.501934,25.3129883 258.67332,25.0947266 258.77293,24.8837891 L258.77293,24.8837891 L258.808086,24.8837891 L258.808086,25.2089844 C258.808086,26.3515625 258.53416,27.0927734 257.986309,27.4326172 C257.438457,27.7724609 256.903789,27.9423828 256.382305,27.9423828 C256.095195,27.9423828 255.778789,27.8823242 255.433086,27.762207 C255.087383,27.6420898 254.820781,27.3740234 254.633281,26.9580078 L254.633281,26.9580078 L251.17918,26.9580078 C251.313945,27.8486328 251.79002,28.6586914 252.607402,29.3881836 C253.424785,30.1176758 254.609844,30.4824219 256.162578,30.4824219 Z M256.382305,23.5126953 C255.737774,23.5126953 255.178203,23.2724609 254.703594,22.7919922 C254.228984,22.3115234 253.99168,21.6816406 253.99168,20.9023438 C253.99168,20.421875 254.101543,19.9926758 254.32127,19.6147461 C254.540996,19.2368164 254.836895,18.940918 255.208965,18.7270508 C255.581035,18.5131836 255.978008,18.40625 256.399883,18.40625 C256.728008,18.40625 257.042949,18.4648438 257.344707,18.5820312 C257.646465,18.6992188 257.907207,18.8691406 258.126934,19.0917969 C258.34666,19.3144531 258.519512,19.5898438 258.645488,19.9179688 C258.771465,20.2460938 258.834453,20.6064453 258.834453,20.9990234 C258.834453,21.4736328 258.728984,21.9042969 258.518047,22.2910156 C258.307109,22.6777344 258.018535,22.9780273 257.652324,23.1918945 C257.286113,23.4057617 256.862774,23.5126953 256.382305,23.5126953 Z M268.695781,26.3251953 C269.756328,26.3251953 270.702617,26.0234375 271.534649,25.4199219 C272.413555,24.8046875 273.093242,23.9433594 273.573711,22.8359375 L273.573711,22.8359375 L270.506328,22.8359375 C270.277813,23.1347656 270.024395,23.3676758 269.746074,23.534668 C269.467754,23.7016602 269.117656,23.7851562 268.695781,23.7851562 C268.103984,23.7851562 267.588359,23.6137695 267.148906,23.2709961 C266.709453,22.9282227 266.442852,22.4638672 266.349102,21.8779297 L266.349102,21.8779297 L273.837383,21.8779297 C273.884258,21.5615234 273.907695,21.2919922 273.907695,21.0693359 C273.907695,20.3134766 273.775859,19.5957031 273.512188,18.9160156 C273.248516,18.2363281 272.88377,17.6503906 272.417949,17.1582031 C271.952129,16.6660156 271.394024,16.2763672 270.743633,15.9892578 C270.093242,15.7021484 269.390117,15.5585938 268.634258,15.5585938 C267.884258,15.5585938 267.188457,15.706543 266.546856,16.0024414 C265.905254,16.2983398 265.350078,16.7026367 264.881328,17.215332 C264.412578,17.7280273 264.047832,18.3095703 263.78709,18.9599609 C263.526348,19.6103516 263.395977,20.2841797 263.395977,20.9814453 C263.395977,21.9482422 263.636211,22.8432617 264.11668,23.6665039 C264.597149,24.4897461 265.244609,25.1386719 266.059063,25.6132812 C266.873516,26.0878906 267.752422,26.3251953 268.695781,26.3251953 Z M270.928203,19.8476562 L266.384258,19.8476562 C266.483867,19.4199219 266.715313,19.0244141 267.078594,18.6611328 C267.441875,18.2978516 267.966289,18.1162109 268.651836,18.1162109 C269.120586,18.1162109 269.517559,18.2099609 269.842754,18.3974609 C270.167949,18.5849609 270.416973,18.8120117 270.589824,19.0786133 C270.762676,19.3452148 270.875469,19.6015625 270.928203,19.8476562 L270.928203,19.8476562 Z M278.557109,26 L278.557109,20.6386719 C278.557109,20.2988281 278.586406,19.9736328 278.645,19.6630859 C278.703594,19.3525391 278.860332,19.0654297 279.115215,18.8017578 C279.370098,18.5380859 279.746563,18.40625 280.244609,18.40625 C281.240703,18.40625 281.73875,19.1064453 281.73875,20.5068359 L281.73875,20.5068359 L281.73875,26 L284.727031,26 L284.727031,20.4892578 C284.727031,19.9560547 284.823711,19.4755859 285.01707,19.0478516 C285.21043,18.6201172 285.667461,18.40625 286.388164,18.40625 C287.061992,18.40625 287.485332,18.6171875 287.658184,19.0390625 C287.831035,19.4609375 287.917461,19.9941406 287.917461,20.6386719 L287.917461,20.6386719 L287.917461,26 L290.905742,26 L290.905742,20.4892578 C290.905742,19.7216797 290.88084,19.1196289 290.831035,18.6831055 C290.781231,18.246582 290.683086,17.8774414 290.536602,17.5756836 C290.390117,17.2739258 290.152813,16.9443359 289.824688,16.5869141 C289.584453,16.3291016 289.307598,16.1210938 288.994121,15.9628906 C288.680645,15.8046875 288.371563,15.6977539 288.066875,15.6420898 C287.762188,15.5864258 287.472149,15.5585938 287.196758,15.5585938 C286.470195,15.5585938 285.843242,15.7255859 285.315899,16.0595703 C284.788555,16.3935547 284.357891,16.8271484 284.023906,17.3603516 C283.666484,16.6865234 283.232891,16.2177734 282.723125,15.9541016 C282.213359,15.6904297 281.688945,15.5585938 281.149883,15.5585938 C279.854961,15.5585938 278.935039,16.0332031 278.390117,16.9824219 L278.390117,16.9824219 L278.354961,16.9824219 L278.354961,15.9013672 L275.568828,15.9013672 L275.568828,26 L278.557109,26 Z M297.77,26.3251953 C298.830547,26.3251953 299.776836,26.0234375 300.608867,25.4199219 C301.487774,24.8046875 302.167461,23.9433594 302.64793,22.8359375 L302.64793,22.8359375 L299.580547,22.8359375 C299.352031,23.1347656 299.098613,23.3676758 298.820293,23.534668 C298.541973,23.7016602 298.191875,23.7851562 297.77,23.7851562 C297.178203,23.7851562 296.662578,23.6137695 296.223125,23.2709961 C295.783672,22.9282227 295.51707,22.4638672 295.42332,21.8779297 L295.42332,21.8779297 L302.911602,21.8779297 C302.958477,21.5615234 302.981914,21.2919922 302.981914,21.0693359 C302.981914,20.3134766 302.850078,19.5957031 302.586406,18.9160156 C302.322734,18.2363281 301.957988,17.6503906 301.492168,17.1582031 C301.026348,16.6660156 300.468242,16.2763672 299.817852,15.9892578 C299.167461,15.7021484 298.464336,15.5585938 297.708477,15.5585938 C296.958477,15.5585938 296.262676,15.706543 295.621074,16.0024414 C294.979473,16.2983398 294.424297,16.7026367 293.955547,17.215332 C293.486797,17.7280273 293.122051,18.3095703 292.861309,18.9599609 C292.600566,19.6103516 292.470195,20.2841797 292.470195,20.9814453 C292.470195,21.9482422 292.71043,22.8432617 293.190899,23.6665039 C293.671367,24.4897461 294.318828,25.1386719 295.133281,25.6132812 C295.947734,26.0878906 296.826641,26.3251953 297.77,26.3251953 Z M300.002422,19.8476562 L295.458477,19.8476562 C295.558086,19.4199219 295.789531,19.0244141 296.152813,18.6611328 C296.516094,18.2978516 297.040508,18.1162109 297.726055,18.1162109 C298.194805,18.1162109 298.591777,18.2099609 298.916973,18.3974609 C299.242168,18.5849609 299.491191,18.8120117 299.664043,19.0786133 C299.836895,19.3452148 299.949688,19.6015625 300.002422,19.8476562 L300.002422,19.8476562 Z M307.631328,26 L307.631328,20.5068359 C307.631328,20.1728516 307.660625,19.8608398 307.719219,19.5708008 C307.777813,19.2807617 307.934551,19.0141602 308.189434,18.7709961 C308.444316,18.527832 308.826641,18.40625 309.336406,18.40625 C309.811016,18.40625 310.164043,18.519043 310.395488,18.7446289 C310.626934,18.9702148 310.770488,19.2265625 310.826152,19.5136719 C310.881816,19.8007812 310.909649,20.1259766 310.909649,20.4892578 L310.909649,20.4892578 L310.909649,26 L313.89793,26 L313.89793,19.6982422 C313.89793,18.7841797 313.789531,18.0854492 313.572734,17.6020508 C313.355938,17.1186523 313.077617,16.7333984 312.737774,16.4462891 C312.573711,16.2880859 312.348125,16.1401367 312.061016,16.0024414 C311.773906,15.8647461 311.467754,15.7563477 311.142559,15.6772461 C310.817363,15.5981445 310.499492,15.5585938 310.188945,15.5585938 C309.421367,15.5585938 308.838359,15.6962891 308.439922,15.9716797 C308.041484,16.2470703 307.716289,16.5839844 307.464336,16.9824219 L307.464336,16.9824219 L307.42918,16.9824219 L307.42918,15.9013672 L304.643047,15.9013672 L304.643047,26 L307.631328,26 Z M319.593242,26 L319.593242,18.2041016 L321.034649,18.2041016 L321.034649,15.9013672 L319.593242,15.9013672 L319.593242,12.5527344 L316.604961,12.5527344 L316.604961,15.9013672 L315.137188,15.9013672 L315.137188,18.2041016 L316.604961,18.2041016 L316.604961,26 L319.593242,26 Z M332.504375,26 C333.734844,26 334.790996,25.8256836 335.672832,25.4770508 C336.554668,25.128418 337.265117,24.6450195 337.80418,24.0268555 C338.343242,23.4086914 338.737285,22.6923828 338.986309,21.8779297 C339.235332,21.0634766 339.359844,20.1816406 339.359844,19.2324219 C339.359844,18.4238281 339.263164,17.6723633 339.069805,16.9780273 C338.876445,16.2836914 338.565899,15.6435547 338.138164,15.0576172 C337.61668,14.2958984 337.004375,13.7290039 336.30125,13.3569336 C335.598125,12.9848633 334.934551,12.7578125 334.310527,12.6757812 C333.686504,12.59375 332.999492,12.5527344 332.249492,12.5527344 L332.249492,12.5527344 L327.846172,12.5527344 L327.846172,26 L332.504375,26 Z M332.706524,22.9765625 L331.247539,22.9765625 L331.247539,15.5585938 L332.724102,15.5585938 C333.895977,15.5585938 334.760234,15.9716797 335.316875,16.7978516 C335.744609,17.4658203 335.958477,18.2949219 335.958477,19.2851562 C335.958477,20.375 335.709453,21.2626953 335.211406,21.9482422 C334.713359,22.6337891 333.878399,22.9765625 332.706524,22.9765625 L332.706524,22.9765625 Z M343.095195,26 L343.79832,24.0576172 L348.421367,24.0576172 L349.071758,26 L352.763164,26 L347.472149,12.5527344 L344.791484,12.5527344 L339.438945,26 L343.095195,26 Z M347.524883,21.3242188 L344.73875,21.3242188 L346.101055,16.7275391 L346.153789,16.7275391 L347.524883,21.3242188 Z M356.990703,29.3662109 L356.990703,25.0859375 C357.752422,25.9238281 358.754375,26.3427734 359.996563,26.3427734 C360.916484,26.3427734 361.748516,26.1069336 362.492656,25.6352539 C363.236797,25.1635742 363.816875,24.5249023 364.232891,23.7192383 C364.648906,22.9135742 364.856914,22.0244141 364.856914,21.0517578 C364.856914,20.4130859 364.766094,19.7802734 364.584453,19.1533203 C364.402813,18.5263672 364.115703,17.9389648 363.723125,17.3911133 C363.330547,16.8432617 362.820781,16.4008789 362.193828,16.0639648 C361.566875,15.7270508 360.828594,15.5585938 359.978984,15.5585938 C359.264141,15.5585938 358.653301,15.6918945 358.146465,15.9584961 C357.639629,16.2250977 357.213359,16.578125 356.867656,17.0175781 L356.867656,17.0175781 L356.806133,17.0175781 L356.806133,15.9013672 L354.002422,15.9013672 L354.002422,29.3662109 L356.990703,29.3662109 Z M359.36375,23.5302734 C358.865703,23.5302734 358.42625,23.4086914 358.045391,23.1655273 C357.664531,22.9223633 357.373027,22.6030273 357.170879,22.2075195 C356.968731,21.8120117 356.867656,21.3974609 356.867656,20.9638672 C356.867656,20.3134766 357.091777,19.7216797 357.54002,19.1884766 C357.988262,18.6552734 358.596172,18.3886719 359.36375,18.3886719 C360.137188,18.3886719 360.748027,18.6523438 361.19627,19.1796875 C361.644512,19.7070312 361.868633,20.3017578 361.868633,20.9638672 C361.868633,21.3974609 361.766094,21.8120117 361.561016,22.2075195 C361.355938,22.6030273 361.062969,22.9223633 360.682109,23.1655273 C360.30125,23.4086914 359.861797,23.5302734 359.36375,23.5302734 Z M369.532695,29.3662109 L369.532695,25.0859375 C370.294414,25.9238281 371.296367,26.3427734 372.538555,26.3427734 C373.458477,26.3427734 374.290508,26.1069336 375.034649,25.6352539 C375.778789,25.1635742 376.358867,24.5249023 376.774883,23.7192383 C377.190899,22.9135742 377.398906,22.0244141 377.398906,21.0517578 C377.398906,20.4130859 377.308086,19.7802734 377.126445,19.1533203 C376.944805,18.5263672 376.657695,17.9389648 376.265117,17.3911133 C375.872539,16.8432617 375.362774,16.4008789 374.73582,16.0639648 C374.108867,15.7270508 373.370586,15.5585938 372.520977,15.5585938 C371.806133,15.5585938 371.195293,15.6918945 370.688457,15.9584961 C370.181621,16.2250977 369.755352,16.578125 369.409649,17.0175781 L369.409649,17.0175781 L369.348125,17.0175781 L369.348125,15.9013672 L366.544414,15.9013672 L366.544414,29.3662109 L369.532695,29.3662109 Z M371.905742,23.5302734 C371.407695,23.5302734 370.968242,23.4086914 370.587383,23.1655273 C370.206524,22.9223633 369.91502,22.6030273 369.712871,22.2075195 C369.510723,21.8120117 369.409649,21.3974609 369.409649,20.9638672 C369.409649,20.3134766 369.63377,19.7216797 370.082012,19.1884766 C370.530254,18.6552734 371.138164,18.3886719 371.905742,18.3886719 C372.67918,18.3886719 373.29002,18.6523438 373.738262,19.1796875 C374.186504,19.7070312 374.410625,20.3017578 374.410625,20.9638672 C374.410625,21.3974609 374.308086,21.8120117 374.103008,22.2075195 C373.89793,22.6030273 373.604961,22.9223633 373.224102,23.1655273 C372.843242,23.4086914 372.403789,23.5302734 371.905742,23.5302734 Z" id="CloverContractManagementDApp" fill="#000000" fill-rule="nonzero"></path>
                        </g>
                    </g>
                </g>
            </g>
        </g>
    </g>
</svg>