<?xml version="1.0" encoding="UTF-8"?>
<svg width="24px" height="24px" viewBox="0 0 24 24" version="1.1" xmlns="http://www.w3.org/2000/svg" xmlns:xlink="http://www.w3.org/1999/xlink">
    <title>icon/small</title>
    <g id="Page-1" stroke="none" stroke-width="1" fill="none" fill-rule="evenodd">
        <g id="02-1-contract-detail/txn" transform="translate(-1092.000000, -158.000000)">
            <g id="Group-11" transform="translate(325.000000, 158.000000)">
                <g id="Stacked-Group">
                    <g id="icon/small" transform="translate(767.000000, 0.000000)">
                        <g id="Group-11">
                            <g id="icon/small/whitebg" fill="#FFFFFF">
                                <rect id="Rectangle" x="0" y="0" width="24" height="24" rx="4"></rect>
                            </g>
                            <g id="icon/small/copy" transform="translate(4.000000, 4.000000)">
                                <g id="other_复制">
                                    <polygon id="Rectangle" fill="#000000" fill-rule="nonzero" opacity="0" points="0 0 16 0 16 16 0 16 0 5"></polygon>
                                    <path d="M9.8,4.55 C10.7828427,4.55 11.45,5.21715729 11.4492556,6.18507444 L11.4793866,6.51437013 C11.5240267,7.05603104 11.5417728,7.58171561 11.547586,8.38917184 L11.55,9.2 L11.55,12.3 C11.55,13.2668639 10.9178785,13.9760614 9.95477552,14.044564 L9.8,14.05 L3.7,14.05 C2.73313611,14.05 2.02393861,13.4178785 1.95543602,12.4547755 L1.95,12.3 L1.95,6.2 C1.95,5.25445042 2.56296464,4.61958204 3.5347559,4.55537304 L3.7,4.55 L9.8,4.55 Z M9.9,5.75 L3.7,5.75 C3.41808241,5.75 3.28179609,5.85496214 3.25499071,6.10103676 L3.25,6.2 L3.25,12.3 C3.25,12.5819176 3.35496214,12.7182039 3.60103676,12.7450093 L3.7,12.75 L9.8,12.75 C10.0819176,12.75 10.2182039,12.6450379 10.2450093,12.3989632 L10.25,12.3 L10.25,6.1 C10.25,5.82412984 10.1635152,5.75 9.9,5.75 Z M12.4,2.05 C13.3828427,2.05 14.05,2.71715729 14.0492562,3.71492556 C13.9946521,4.26096077 13.9689698,4.73206262 13.9577655,5.44219683 L13.9577655,5.44219683 L13.9508522,6.24363685 L13.95,9.9 C13.95,10.7444447 13.3266297,11.4334329 12.5,11.55 C12.0681748,11.55 11.75,11.3732362 11.75,11 C11.75,10.6171573 12.0171573,10.35 12.4,10.35 L12.4,10.35 L12.477387,10.3438678 C12.6482923,10.3154719 12.75,10.1900126 12.75,10 L12.75,10 L12.75,3.7 C12.75,3.48284271 12.6171573,3.35 12.4,3.35 L12.4,3.35 L6.1,3.35 C5.88284271,3.35 5.75,3.48284271 5.74230249,3.74743416 C5.62577726,4.09700987 5.38099305,4.25 5,4.25 C4.62676377,4.25 4.45,3.93182521 4.45115266,3.48139479 C4.55965981,2.61338286 5.21693981,2.05 6.1,2.05 L6.1,2.05 Z" id="Combined-Shape" fill-opacity="0.6" fill="#001831" fill-rule="nonzero"></path>
                                </g>
                            </g>
                        </g>
                    </g>
                </g>
            </g>
        </g>
    </g>
</svg>