<?xml version="1.0" encoding="UTF-8"?>
<svg width="455px" height="273px" viewBox="0 0 455 273" version="1.1" xmlns="http://www.w3.org/2000/svg" xmlns:xlink="http://www.w3.org/1999/xlink">
    <title>Group 437</title>
    <g id="Page-1" stroke="none" stroke-width="1" fill="none" fill-rule="evenodd">
        <g id="06-1-404-page-" transform="translate(-242.000000, -211.000000)">
            <g id="Group-437" transform="translate(243.000000, 211.000000)">
                <path d="M268.3201,160.8419 C268.3201,160.8419 275.8511,146.9829 287.4811,130.9909 C299.1121,114.9989 320.9181,96.0999 352.9021,67.7509 C384.8841,39.4029 374.7081,0.1509 374.7081,0.1509" id="Stroke-1" stroke="#333333" stroke-width="1.2"></path>
                <path d="M366.7126,0.1505 C366.7126,0.1505 373.2546,26.3185 355.0826,51.0325 C336.9096,75.7475 311.4686,99.0075 297.6576,112.0915 C283.8466,125.1755 265.6746,141.2155 262.7666,160.8415" id="Stroke-3" stroke="#333333" stroke-width="1.2"></path>
                <path d="M336.1829,2.3312 C336.1829,2.3312 328.1869,32.1332 315.1029,44.4912 C302.0189,56.8482 286.0279,68.4782 280.2119,78.6542 C274.3969,88.8312 256.9319,131.8952 257.6589,160.2442" id="Stroke-5" stroke="#333333" stroke-width="1.2"></path>
                <path d="M319.4646,2.3312 C319.4646,2.3312 320.1916,19.0492 296.9306,47.3982 C273.6706,75.7472 257.6786,97.5542 251.1366,160.0662" id="Stroke-7" stroke="#333333" stroke-width="1.2"></path>
                <path d="M275.8508,4.5119 C275.8508,4.5119 272.9428,27.7719 267.8548,42.3099 C262.7668,56.8479 249.6828,79.3819 245.3218,113.5459 C240.9598,147.7099 243.1408,154.9779 245.3218,160.0669" id="Stroke-9" stroke="#333333" stroke-width="1.2"></path>
                <path d="M262.7668,4.5119 C262.7668,4.5119 262.0398,25.5919 257.6788,40.1299 C253.3168,54.6669 242.4138,90.2849 239.5058,112.8189 C236.5988,135.3519 237.3258,155.7049 239.5058,160.0669" id="Stroke-11" stroke="#333333" stroke-width="1.2"></path>
                <path d="M202.4348,4.5119 C202.4348,4.5119 205.3428,48.8519 214.7918,67.0249 C224.2418,85.1969 226.4218,109.9109 225.6958,119.3609 C224.9688,128.8099 224.9688,154.2519 225.6958,157.8859" id="Stroke-13" stroke="#333333" stroke-width="1.2"></path>
                <path d="M188.6238,4.5119 C188.6238,4.5119 192.2588,43.7639 198.8008,54.6669 C205.3428,65.5709 209.7038,79.3819 214.0648,89.5579 C218.4268,99.7349 219.8798,129.5369 220.6068,136.8059 C221.3338,144.0749 220.6068,157.8859 220.6068,157.8859" id="Stroke-15" stroke="#333333" stroke-width="1.2"></path>
                <path d="M140.6492,7.4191 C140.6492,7.4191 142.1032,35.7681 158.0942,57.5751 C174.0862,79.3811 187.1702,93.1921 192.9852,101.9151 C198.8002,110.6381 208.9772,137.5331 208.9772,157.8861" id="Stroke-17" stroke="#333333" stroke-width="1.2"></path>
                <path d="M131.9265,7.4191 C131.9265,7.4191 139.9225,48.1251 156.6405,67.0241 C173.3595,85.9231 191.5315,99.0071 198.0735,122.9951 C204.6155,146.9821 204.6155,157.8861 204.6155,157.8861" id="Stroke-19" stroke="#333333" stroke-width="1.2"></path>
                <path d="M77.4094,7.4191 C77.4094,7.4191 86.1324,51.0331 105.7584,67.0241 C125.3844,83.0161 146.4644,90.2851 156.6404,104.8231 C165.6524,117.6961 177.5134,149.9481 180.6154,159.6891" id="Stroke-21" stroke="#333333" stroke-width="1.2"></path>
                <path d="M349.759,18.7467 C354.342,19.2967 363.169,17.8947 367.439,16.1417" id="Stroke-23" stroke="#333333" stroke-width="1.2" stroke-linecap="round" stroke-linejoin="round"></path>
                <path d="M348.3064,25.0407 C353.2104,25.6937 362.0994,24.4697 366.7124,22.6847" id="Stroke-25" stroke="#333333" stroke-width="1.2" stroke-linecap="round" stroke-linejoin="round"></path>
                <path d="M343.4407,32.9787 C349.7747,33.5807 359.0907,32.2447 365.2587,30.6797" id="Stroke-27" stroke="#333333" stroke-width="1.2" stroke-linecap="round" stroke-linejoin="round"></path>
                <path d="M337.6062,42.2414 C344.2002,43.4004 355.9612,40.6754 362.3512,38.6754" id="Stroke-29" stroke="#333333" stroke-width="1.2" stroke-linecap="round" stroke-linejoin="round"></path>
                <path d="M330.8342,52.318 C336.5412,53.735 349.3922,52.513 355.0822,51.033" id="Stroke-31" stroke="#333333" stroke-width="1.2" stroke-linecap="round" stroke-linejoin="round"></path>
                <path d="M322.5208,60.2443 C329.6068,62.9343 337.5108,63.5993 344.9058,61.9363" id="Stroke-33" stroke="#333333" stroke-width="1.2" stroke-linecap="round" stroke-linejoin="round"></path>
                <path d="M317.6956,68.9962 C323.7066,70.5822 334.4336,70.3452 340.5446,69.2052" id="Stroke-35" stroke="#333333" stroke-width="1.2" stroke-linecap="round" stroke-linejoin="round"></path>
                <path d="M312.4211,77.006 C317.2211,78.707 327.5041,78.633 332.5481,77.928" id="Stroke-37" stroke="#333333" stroke-width="1.2" stroke-linecap="round" stroke-linejoin="round"></path>
                <path d="M304.5911,85.8986 C310.9761,88.6406 314.1101,90.2236 320.9181,88.8316" id="Stroke-39" stroke="#333333" stroke-width="1.2" stroke-linecap="round" stroke-linejoin="round"></path>
                <path d="M298.3054,91.8043 C304.7954,93.4693 309.2874,94.6463 315.8294,94.6463" id="Stroke-41" stroke="#333333" stroke-width="1.2" stroke-linecap="round" stroke-linejoin="round"></path>
                <path d="M290.1208,99.8454 C295.8268,101.1594 303.4928,101.3014 309.2878,100.4614" id="Stroke-43" stroke="#333333" stroke-width="1.2" stroke-linecap="round" stroke-linejoin="round"></path>
                <path d="M286.7053,107.2077 C292.1293,108.5037 296.5913,109.0097 302.0183,107.7297" id="Stroke-45" stroke="#333333" stroke-width="1.2" stroke-linecap="round" stroke-linejoin="round"></path>
                <path d="M281.3845,114.8717 C285.5945,116.3087 290.4485,116.1367 294.7505,114.9987" id="Stroke-47" stroke="#333333" stroke-width="1.2" stroke-linecap="round" stroke-linejoin="round"></path>
                <path d="M277.5793,122.2868 C282.1103,122.9468 282.3923,122.9948 286.7543,122.2678" id="Stroke-49" stroke="#333333" stroke-width="1.2" stroke-linecap="round" stroke-linejoin="round"></path>
                <path d="M271.2517,129.2702 C272.9427,129.5372 276.5427,130.1512 279.4857,129.5372" id="Stroke-51" stroke="#333333" stroke-width="1.2" stroke-linecap="round" stroke-linejoin="round"></path>
                <path d="M268.3201,135.632 C269.6691,136.331 273.0601,136.802 274.3971,136.079" id="Stroke-53" stroke="#333333" stroke-width="1.2" stroke-linecap="round" stroke-linejoin="round"></path>
                <path d="M265.9114,142.3527 C267.1284,142.6217 269.2294,142.7887 270.0364,142.6217" id="Stroke-55" stroke="#333333" stroke-width="1.2" stroke-linecap="round" stroke-linejoin="round"></path>
                <path d="M262.7668,146.2555 C265.6748,146.9825 267.0488,147.1515 267.8548,146.9825" id="Stroke-57" stroke="#333333" stroke-width="1.2" stroke-linecap="round" stroke-linejoin="round"></path>
                <path d="M286.2551,22.546 C294.7251,22.9 306.2291,22.849 314.3761,20.504" id="Stroke-59" stroke="#333333" stroke-width="1.2" stroke-linecap="round" stroke-linejoin="round"></path>
                <path d="M280.925,36.4201 C289.101,37.1151 297.915,38.4971 305.654,35.7681" id="Stroke-61" stroke="#333333" stroke-width="1.2" stroke-linecap="round" stroke-linejoin="round"></path>
                <path d="M274.1384,49.6144 C283.1584,50.1504 286.0274,50.3054 295.4764,48.8524" id="Stroke-63" stroke="#333333" stroke-width="1.2" stroke-linecap="round" stroke-linejoin="round"></path>
                <path d="M269.2273,56.9318 C276.8803,58.8478 281.4313,59.2828 288.9353,56.8478" id="Stroke-65" stroke="#333333" stroke-width="1.2" stroke-linecap="round" stroke-linejoin="round"></path>
                <path d="M266.3914,65.8717 C272.1804,66.8457 276.7864,66.5817 282.3924,64.8437" id="Stroke-67" stroke="#333333" stroke-width="1.2" stroke-linecap="round" stroke-linejoin="round"></path>
                <path d="M260.5632,73.1779 C267.4622,74.8209 270.7622,74.2929 277.3042,72.8399" id="Stroke-69" stroke="#333333" stroke-width="1.2" stroke-linecap="round" stroke-linejoin="round"></path>
                <path d="M259.1116,80.9425 C263.9536,81.8925 268.2546,81.6465 272.9436,80.1085" id="Stroke-71" stroke="#333333" stroke-width="1.2" stroke-linecap="round" stroke-linejoin="round"></path>
                <path d="M257.699,87.0734 C261.439,88.2924 265.557,88.3194 269.313,87.1484" id="Stroke-73" stroke="#333333" stroke-width="1.2" stroke-linecap="round" stroke-linejoin="round"></path>
                <path d="M254.7449,94.9894 C258.0899,95.8564 263.1989,95.9434 266.4009,94.6464" id="Stroke-75" stroke="#333333" stroke-width="1.2" stroke-linecap="round" stroke-linejoin="round"></path>
                <path d="M250.9192,103.3961 C255.2752,103.8981 258.4842,103.5871 262.7672,102.6421" id="Stroke-77" stroke="#333333" stroke-width="1.2" stroke-linecap="round" stroke-linejoin="round"></path>
                <path d="M250.9172,110.7834 C254.7712,111.3654 257.5742,111.3444 259.8592,109.9114" id="Stroke-79" stroke="#333333" stroke-width="1.2" stroke-linecap="round" stroke-linejoin="round"></path>
                <path d="M248.4744,117.6232 C251.3934,117.8282 256.0024,117.3952 258.4054,115.7262" id="Stroke-81" stroke="#333333" stroke-width="1.2" stroke-linecap="round" stroke-linejoin="round"></path>
                <path d="M245.054,123.7282 C249.149,124.1442 253.346,123.4982 257.127,121.8702" id="Stroke-83" stroke="#333333" stroke-width="1.2" stroke-linecap="round" stroke-linejoin="round"></path>
                <path d="M244.551,129.9284 C248.107,130.9644 252.118,130.3014 255.152,128.1774" id="Stroke-85" stroke="#333333" stroke-width="1.2" stroke-linecap="round" stroke-linejoin="round"></path>
                <path d="M244.1165,134.1232 C247.3795,135.3402 251.1405,135.1502 254.2635,133.6102" id="Stroke-87" stroke="#333333" stroke-width="1.2" stroke-linecap="round" stroke-linejoin="round"></path>
                <path d="M243.1833,139.3517 C246.9173,140.6767 249.6523,140.4927 253.3173,138.9867" id="Stroke-89" stroke="#333333" stroke-width="1.2" stroke-linecap="round" stroke-linejoin="round"></path>
                <path d="M243.1409,144.8019 C245.9929,145.6169 249.8489,145.2089 252.5909,144.0749" id="Stroke-91" stroke="#333333" stroke-width="1.2" stroke-linecap="round" stroke-linejoin="round"></path>
                <path d="M243.6277,150.109 C245.8947,150.338 248.9157,150.398 251.1367,149.89" id="Stroke-93" stroke="#333333" stroke-width="1.2" stroke-linecap="round" stroke-linejoin="round"></path>
                <path d="M169.4607,44.9001 C177.1267,42.6851 186.5637,36.9961 192.2587,31.4071" id="Stroke-95" stroke="#333333" stroke-width="1.2" stroke-linecap="round" stroke-linejoin="round"></path>
                <path d="M175.8152,59.1022 C183.9262,55.4792 188.9252,52.2662 195.1662,45.9442" id="Stroke-97" stroke="#333333" stroke-width="1.2" stroke-linecap="round" stroke-linejoin="round"></path>
                <path d="M183.5681,65.6378 C188.1371,63.4378 192.9901,59.2608 196.5611,55.6598" id="Stroke-99" stroke="#333333" stroke-width="1.2" stroke-linecap="round" stroke-linejoin="round"></path>
                <path d="M184.9495,71.9777 C191.0505,70.1737 196.6855,66.1507 200.5325,61.0847" id="Stroke-101" stroke="#333333" stroke-width="1.2" stroke-linecap="round" stroke-linejoin="round"></path>
                <path d="M188.6287,80.8454 C194.8737,77.7924 200.2197,72.9284 203.8487,66.9994" id="Stroke-103" stroke="#333333" stroke-width="1.2" stroke-linecap="round" stroke-linejoin="round"></path>
                <path d="M193.1897,87.6354 C197.7687,84.0084 203.4617,78.5884 207.3097,74.1924" id="Stroke-105" stroke="#333333" stroke-width="1.2" stroke-linecap="round" stroke-linejoin="round"></path>
                <path d="M196.5608,94.5597 C201.8308,90.9767 206.7958,86.9477 211.3888,82.5297" id="Stroke-107" stroke="#333333" stroke-width="1.2" stroke-linecap="round" stroke-linejoin="round"></path>
                <path d="M197.6155,103.7882 C203.7355,99.8632 209.2665,95.0222 213.9675,89.4752" id="Stroke-109" stroke="#333333" stroke-width="1.2" stroke-linecap="round" stroke-linejoin="round"></path>
                <path d="M200.533,109.5924 C205.699,106.0624 210.65,102.2184 215.351,98.0904" id="Stroke-111" stroke="#333333" stroke-width="1.2" stroke-linecap="round" stroke-linejoin="round"></path>
                <path d="M202.5447,118.7487 C206.8787,114.6017 213.4247,110.4547 217.7587,106.3067" id="Stroke-113" stroke="#333333" stroke-width="1.2" stroke-linecap="round" stroke-linejoin="round"></path>
                <path d="M203.0974,125.3395 C208.8684,120.9205 212.6824,117.9995 218.4524,113.5805" id="Stroke-115" stroke="#333333" stroke-width="1.2" stroke-linecap="round" stroke-linejoin="round"></path>
                <path d="M205.3674,128.8629 C210.7984,126.3139 213.7914,124.4369 218.4524,120.6599" id="Stroke-117" stroke="#333333" stroke-width="1.2" stroke-linecap="round" stroke-linejoin="round"></path>
                <path d="M205.9451,135.8825 C210.6571,132.9035 213.7411,130.9535 218.4531,127.9745" id="Stroke-119" stroke="#333333" stroke-width="1.2" stroke-linecap="round" stroke-linejoin="round"></path>
                <path d="M208.4089,142.1569 C213.0269,139.3619 215.8079,137.2709 219.7759,133.6109" id="Stroke-121" stroke="#333333" stroke-width="1.2" stroke-linecap="round" stroke-linejoin="round"></path>
                <path d="M208.991,148.4611 C212.63,146.4151 217.761,142.6671 220.817,139.8231" id="Stroke-123" stroke="#333333" stroke-width="1.2" stroke-linecap="round" stroke-linejoin="round"></path>
                <path d="M209.7102,154.257 C213.7032,151.69 217.1212,150.085 220.9302,146.996" id="Stroke-125" stroke="#333333" stroke-width="1.2" stroke-linecap="round" stroke-linejoin="round"></path>
                <path d="M133.5359,84.2814 C136.1879,81.3614 137.2949,80.1424 139.9469,77.2234" id="Stroke-127" stroke="#333333" stroke-width="1.2" stroke-linecap="round" stroke-linejoin="round"></path>
                <path d="M139.9973,89.6203 C142.4163,86.7093 144.8353,83.7993 147.2553,80.8883" id="Stroke-129" stroke="#333333" stroke-width="1.2" stroke-linecap="round" stroke-linejoin="round"></path>
                <path d="M145.948,94.0856 C150.552,90.4656 151.032,89.9706 154.505,85.2546" id="Stroke-131" stroke="#333333" stroke-width="1.2" stroke-linecap="round" stroke-linejoin="round"></path>
                <path d="M152.301,99.756 C154.986,97.084 157.387,94.126 159.451,90.949" id="Stroke-133" stroke="#333333" stroke-width="1.2" stroke-linecap="round" stroke-linejoin="round"></path>
                <path d="M159.4514,107.7609 C163.8274,102.9279 163.8944,102.8539 168.2704,98.0209" id="Stroke-135" stroke="#333333" stroke-width="1.2" stroke-linecap="round" stroke-linejoin="round"></path>
                <path d="M163.3254,115.901 C169.0214,111.99 171.4034,109.379 174.7774,103.349" id="Stroke-137" stroke="#333333" stroke-width="1.2" stroke-linecap="round" stroke-linejoin="round"></path>
                <path d="M167.9348,125.3395 C174.2258,119.4605 176.2668,116.6985 180.5158,109.8675" id="Stroke-139" stroke="#333333" stroke-width="1.2" stroke-linecap="round" stroke-linejoin="round"></path>
                <path d="M171.6038,135.7209 C176.7688,129.7619 181.9338,123.8039 187.0988,117.8449" id="Stroke-141" stroke="#333333" stroke-width="1.2" stroke-linecap="round" stroke-linejoin="round"></path>
                <path d="M174.7771,141.3302 C176.9361,141.2612 187.6991,128.5202 192.2881,123.1002" id="Stroke-143" stroke="#333333" stroke-width="1.2" stroke-linecap="round" stroke-linejoin="round"></path>
                <path d="M177.0535,149.9782 C185.8765,143.9602 192.2065,138.3932 199.2995,130.4092" id="Stroke-145" stroke="#333333" stroke-width="1.2" stroke-linecap="round" stroke-linejoin="round"></path>
                <path d="M180.5154,154.9191 C189.5184,148.1861 192.2314,146.1571 201.2344,139.4241" id="Stroke-147" stroke="#333333" stroke-width="1.2" stroke-linecap="round" stroke-linejoin="round"></path>
                <path d="M182.1321,160.1583 C189.6291,156.0433 196.6691,151.0953 203.0791,145.4353" id="Stroke-149" stroke="#333333" stroke-width="1.2" stroke-linecap="round" stroke-linejoin="round"></path>
                <path d="M192.6057,159.4362 C196.6837,155.7552 199.0197,154.8092 203.0977,151.1282" id="Stroke-151" stroke="#333333" stroke-width="1.2" stroke-linecap="round" stroke-linejoin="round"></path>
                <path d="M261.1033,152.0143 C262.7673,152.0713 263.4943,152.0713 265.6743,151.3443" id="Stroke-153" stroke="#333333" stroke-width="1.2" stroke-linecap="round" stroke-linejoin="round"></path>
                <path d="M259.6389,157.0475 C261.5769,156.7245 262.2819,156.7555 264.2209,156.4325" id="Stroke-155" stroke="#333333" stroke-width="1.2" stroke-linecap="round" stroke-linejoin="round"></path>
                <path d="M244.0759,155.046 C245.4669,155.741 250.7179,155.302 251.8639,154.252" id="Stroke-157" stroke="#333333" stroke-width="1.2" stroke-linecap="round" stroke-linejoin="round"></path>
                <path d="M211.8748,157.8634 C214.6038,156.6754 217.7588,154.8174 220.8088,152.8104" id="Stroke-159" stroke="#333333" stroke-width="1.2" stroke-linecap="round" stroke-linejoin="round"></path>
                <path d="M199.6292,160.1867 C201.0712,158.9617 202.5132,157.7357 203.9552,156.5107" id="Stroke-161" stroke="#333333" stroke-width="1.2" stroke-linecap="round" stroke-linejoin="round"></path>
                <path d="M82.7405,16.9997 C82.9875,17.7247 83.2345,18.4507 83.4815,19.1757 C83.7065,19.8357 84.7605,19.5527 84.5325,18.8857 C84.2855,18.1607 84.0385,17.4357 83.7915,16.7097 C83.5665,16.0497 82.5125,16.3327 82.7405,16.9997" id="Fill-163" fill="#333333"></path>
                <path d="M85.6453,22.5509 C85.3103,23.7859 85.6163,25.0359 86.4483,25.9999 C86.9073,26.5329 87.6753,25.7589 87.2193,25.2289 C86.6433,24.5619 86.4673,23.6859 86.6973,22.8409 C86.8813,22.1629 85.8293,21.8739 85.6453,22.5509" id="Fill-165" fill="#333333"></path>
                <path d="M87.8147,30.2462 C88.2947,30.9752 88.7757,31.7052 89.2567,32.4342 C89.6417,33.0172 90.5857,32.4722 90.1987,31.8842 C89.7177,31.1552 89.2367,30.4252 88.7557,29.6962 C88.3717,29.1122 87.4267,29.6582 87.8147,30.2462" id="Fill-167" fill="#333333"></path>
                <path d="M90.8347,36.8805 C91.0767,37.1225 91.3197,37.3645 91.5617,37.6075 C92.0587,38.1045 92.8297,37.3335 92.3327,36.8365 C92.0907,36.5935 91.8477,36.3515 91.6057,36.1095 C91.1087,35.6125 90.3377,36.3835 90.8347,36.8805" id="Fill-169" fill="#333333"></path>
                <path d="M92.8771829,40.8571 C92.8862,42.0731 93.6142,43.0701 94.7212,43.5321 C95.3682,43.8021 95.6502,42.7481 95.0112,42.4811 C94.3612,42.2101 93.9722,41.5441 93.9672,40.8571 C93.9622,40.1551 92.8722,40.1541 92.8771829,40.8571" id="Fill-171" fill="#333333"></path>
                <path d="M95.9231,47.7838 L96.6501,48.5108 C97.1471,49.0078 97.9181,48.2368 97.4211,47.7398 L96.6941,47.0128 C96.1971,46.5158 95.4261,47.2868 95.9231,47.7838" id="Fill-173" fill="#333333"></path>
                <path d="M98.1038,52.1452 L100.2848,54.3262 C100.7808,54.8222 101.5528,54.0522 101.0558,53.5552 L98.8748,51.3742 C98.3778,50.8772 97.6068,51.6482 98.1038,52.1452" id="Fill-175" fill="#333333"></path>
                <path d="M102.3,57.8908 C102.546,58.3728 102.792,58.8558 103.038,59.3388 C103.357,59.9638 104.298,59.4128 103.98,58.7878 C103.734,58.3058 103.487,57.8228 103.241,57.3408 C102.923,56.7148 101.982,57.2658 102.3,57.8908" id="Fill-177" fill="#333333"></path>
                <path d="M106.0994,62.3214 L107.5534,63.7754 C108.0504,64.2724 108.8214,63.5014 108.3244,63.0044 L106.8704,61.5504 C106.3734,61.0534 105.6024,61.8244 106.0994,62.3214" id="Fill-179" fill="#333333"></path>
                <path d="M110.7205,66.7672 C111.4455,67.0142 112.1715,67.2612 112.8965,67.5082 C113.561526,67.7352 113.8475,66.6832 113.1865,66.4572 C112.4605,66.2102 111.7355,65.9632 111.0105,65.7162 C110.3445,65.4892 110.0585,66.5422 110.7205,66.7672" id="Fill-181" fill="#333333"></path>
                <path d="M115.0818,70.402 C115.8068,70.649 116.5328,70.896 117.2578,71.143 C117.922826,71.37 118.2088,70.317 117.5478,70.092 C116.8218,69.845 116.0968,69.598 115.3718,69.351 C114.7058,69.124 114.4198,70.176 115.0818,70.402" id="Fill-183" fill="#333333"></path>
                <path d="M120.9119,73.9875 C121.6409,74.2235 122.3699,74.4605 123.0989,74.6965 C123.7669,74.9135 124.0539,73.8605 123.3889,73.6445 C122.6599,73.4085 121.9309,73.1725 121.2019,72.9365 C120.5329,72.7195 120.2459,73.7725 120.9119,73.9875" id="Fill-185" fill="#333333"></path>
                <path d="M180.2405,161.7765 C178.1865,162.6765 182.6985,163.7845 182.8865,163.8265 C188.6525,165.1015 194.6705,165.5575 200.5415,166.0355 C211.5615,166.9345 222.6315,167.2605 233.6865,167.1925 C240.4685,167.1505 247.2485,166.9505 254.0205,166.5935 C257.1885,166.4275 260.3545,166.2265 263.5175,165.9915 C265.8805,165.8155 269.9325,166.2705 272.0715,165.2555 C273.1915,164.7235 273.9395,164.6805 272.6945,163.6615 C270.9175,162.2075 265.2565,162.5355 263.1865,162.3345 C249.0765,160.9635 234.8745,160.2765 220.7055,159.8965 C212.5245,159.6775 204.3255,159.5715 196.1455,159.8765 C190.9875,160.0685 185.3345,160.0985 180.3705,161.7215 C179.705741,161.9385 179.9905,162.9915 180.6605,162.7735 C189.3035,159.9465 199.7905,160.7555 208.7405,160.7925 C221.6985,160.8475 234.6605,161.3875 247.5915,162.2125 C252.7945,162.5445 257.9975,162.9215 263.1865,163.4245 C266.0395,163.7015 269.2275,164.6355 272.0645,164.6115 C273.4505,164.5995 271.8665,164.3635 271.3585,164.2465 C268.6765,163.6235 264.4385,164.8405 261.5905,165.0405 C258.1445,165.2805 254.6965,165.4805 251.2455,165.6395 C240.4285,166.1405 229.5895,166.2535 218.7645,165.9325 C209.9825,165.6715 201.1905,165.1655 192.4595,164.1625 C189.7625,163.8525 187.0605,163.5135 184.3915,163.0125 C183.6155,162.8665 182.7955,162.5795 182.0105,162.5075 C181.8355,162.4915 181.5895,162.3995 181.4115,162.3415 C180.3345,161.9955 181.4485,162.4295 180.7905,162.7175 C181.4315,162.4375 180.8775,161.4975 180.2405,161.7765" id="Fill-187" fill="#333333"></path>
                <line x1="262.8088" y1="199.2164" x2="257.1268" y2="222.0944" id="Stroke-189" stroke="#333333" stroke-width="1.2" stroke-linecap="round" stroke-linejoin="round"></line>
                <line x1="271.3586" y1="164.7912" x2="266.1246" y2="185.8652" id="Stroke-191" stroke="#333333" stroke-width="1.2" stroke-linecap="round" stroke-linejoin="round"></line>
                <line x1="180.5154" y1="162.2472" x2="194.6814" y2="225.4872" id="Stroke-193" stroke="#333333" stroke-width="1.2" stroke-linecap="round" stroke-linejoin="round"></line>
                <path d="M320.5388,92.2716 C320.2268,92.6256 320.2288,93.0326 320.5378,93.3886 C320.9988,93.9186 321.7678,93.1446 321.3088,92.6176 C321.3098,92.7586 321.3098,92.9006 321.3098,93.0426 C321.7718,92.5176 321.0038,91.7436 320.5388,92.2716" id="Fill-195" fill="#333333"></path>
                <path d="M316.2571,96.0006 C316.0141,96.5006 315.9521,96.9676 316.0401,97.5156 C316.1511,98.2066 317.2011,97.9126 317.0911,97.2256 C317.0531,96.9866 317.0931,96.7666 317.1981,96.5506 C317.5051,95.9226 316.5651,95.3696 316.2571,96.0006" id="Fill-197" fill="#333333"></path>
                <path d="M311.6545,100.7941 C311.7765,101.0971 311.8985,101.3991 312.0215,101.7021 C312.2805,102.3441 313.3355,102.0631 313.0725,101.4121 C312.9505,101.1091 312.8275,100.8071 312.7055,100.5041 C312.4465,99.8621 311.3915,100.1431 311.6545,100.7941" id="Fill-199" fill="#333333"></path>
                <path d="M305.8308,106.0949 C305.8578,106.6749 306.0838,107.1979 306.5438,107.5649 C307.0878,107.9979 307.8638,107.2309 307.3148,106.7939 C307.0808,106.6069 306.9348,106.4049 306.9208,106.0949 C306.8888,105.3959 305.7978,105.3919 305.8308,106.0949" id="Fill-201" fill="#333333"></path>
                <path d="M300.6326,111.2809 C300.8146,111.5839 300.9956,111.8869 301.1776,112.1899 C301.5376,112.7909 302.4806,112.2429 302.1186,111.6389 C301.9376,111.3369 301.7556,111.0329 301.5736,110.7309 C301.2136,110.1289 300.2706,110.6769 300.6326,111.2809" id="Fill-203" fill="#333333"></path>
                <path d="M296.5745,115.3312 L296.9425,116.2382 C297.2015,116.8802 298.2575,116.5992 297.9935,115.9482 L297.6255,115.0412 C297.3655,114.3992 296.3105,114.6802 296.5745,115.3312" id="Fill-205" fill="#333333"></path>
                <path d="M292.6438,119.9992 C292.8258,120.2412 293.0068,120.4842 293.1888,120.7262 C293.6048,121.2812 294.5518,120.7382 294.1308,120.1762 C293.9488,119.9342 293.7668,119.6912 293.5848,119.4492 C293.1688,118.8942 292.2228,119.4372 292.6438,119.9992" id="Fill-207" fill="#333333"></path>
                <path d="M288.0295,124.5963 C288.1555,125.1993 288.5115,125.6723 289.0305,125.9953 C289.6285,126.3673 290.1765,125.4243 289.5815,125.0543 C289.2915,124.8733 289.1505,124.6383 289.0805,124.3063 C288.9365,123.6203 287.8855,123.9103 288.0295,124.5963" id="Fill-209" fill="#333333"></path>
                <path d="M283.5486,129.4533 C283.6696,129.6963 283.7906,129.9383 283.9116,130.1803 C284.2256,130.8083 285.1666,130.2563 284.8536,129.6303 C284.7326,129.3883 284.6106,129.1453 284.4896,128.9033 C284.1756,128.2753 283.2356,128.8273 283.5486,129.4533" id="Fill-211" fill="#333333"></path>
                <path d="M280.0085,134.5988 C280.0685,134.8418 280.1285,135.0838 280.1885,135.3268 C280.3575,136.0068 281.4095,135.7188 281.2405,135.0358 C281.1805,134.7938 281.1205,134.5518 281.0605,134.3088 C280.8915,133.6278 279.8395,133.9168 280.0085,134.5988" id="Fill-213" fill="#333333"></path>
                <path d="M277.1599,138.0089 C277.3429,138.3709 277.5269,138.7339 277.7099,139.0969 C278.0269,139.7229 278.9679,139.1719 278.6509,138.5469 C278.4679,138.1839 278.2849,137.8209 278.1009,137.4589 C277.7849,136.8319 276.8439,137.3839 277.1599,138.0089" id="Fill-215" fill="#333333"></path>
                <path d="M274.1082,142.3512 C274.4222,142.9512 274.7362,143.5512 275.0502,144.1512 C275.3762,144.7732 276.3162,144.2222 275.9912,143.6012 C275.6772,143.0002 275.3632,142.4002 275.0492,141.8012 C274.7242,141.1792 273.7832,141.7292 274.1082,142.3512" id="Fill-217" fill="#333333"></path>
                <path d="M263.0369,116.3786 C263.2789,116.4996 263.5209,116.6206 263.7639,116.7416 C264.3899,117.0546 264.9429,116.1146 264.3139,115.8006 C264.0719,115.6796 263.8289,115.5586 263.5869,115.4376 C262.9609,115.1246 262.4089,116.0646 263.0369,116.3786" id="Fill-219" fill="#333333"></path>
                <path d="M264.6174,109.902 C264.7984,109.964 264.9794,110.026 265.1614,110.087 C265.8264,110.314 266.1124,109.261 265.4504,109.036 C265.2694,108.974 265.0884,108.912 264.9074,108.851 C264.2414,108.624 263.9554,109.676 264.6174,109.902" id="Fill-221" fill="#333333"></path>
                <path d="M266.6184,102.9914 C266.8904,103.0684 267.0924,103.1894 267.2904,103.3884 C267.7864,103.8864 268.5574,103.1154 268.0614,102.6174 C267.7344,102.2884 267.3544,102.0664 266.9084,101.9404 C266.2324,101.7484 265.9434,102.8004 266.6184,102.9914" id="Fill-223" fill="#333333"></path>
                <path d="M269.1086,95.9381 C269.3936,96.3051 269.7976,96.5451 270.2536,96.6301 C270.9396,96.7571 271.2336,95.7061 270.5436,95.5781 C270.2466,95.5231 270.0656,95.4071 269.8796,95.1671 C269.4506,94.6131 268.6846,95.3891 269.1086,95.9381" id="Fill-225" fill="#333333"></path>
                <path d="M271.8308,90.3068 L272.7398,91.2158 C273.2368,91.7128 274.0078,90.9418 273.5108,90.4448 L272.6018,89.5358 C272.1048,89.0388 271.3338,89.8098 271.8308,90.3068" id="Fill-227" fill="#333333"></path>
                <path d="M275.1985,83.1095 C275.3805,83.3515 275.5615,83.5935 275.7435,83.8365 C276.1595,84.3915 277.1065,83.8485 276.6855,83.2865 C276.5035,83.0435 276.3215,82.8015 276.1395,82.5595 C275.7235,82.0045 274.7775,82.5475 275.1985,83.1095" id="Fill-229" fill="#333333"></path>
                <path d="M278.1218,76.0641 C278.3148,76.8181 279.1088,77.1091 279.7838,76.8011 C280.4208,76.5101 279.8678,75.5691 279.2338,75.8591 C279.1978,75.8761 279.1748,75.7811 279.1728,75.7741 C278.9988,75.0951 277.9468,75.3831 278.1218,76.0641" id="Fill-231" fill="#333333"></path>
                <path d="M283.8513,69.7184 C283.9723,70.0814 284.0933,70.4454 284.2143,70.8084 C284.4343,71.4714 285.4883,71.1874 285.2663,70.5194 C285.1443,70.1554 285.0233,69.7924 284.9023,69.4284 C284.6823,68.7664 283.6283,69.0504 283.8513,69.7184" id="Fill-233" fill="#333333"></path>
                <path d="M289.3181,64.8068 C289.3791,65.0498 289.4391,65.2918 289.5001,65.5338 C289.6701,66.2138 290.7211,65.9258 290.5511,65.2438 L290.3691,64.5168 C290.1991,63.8368 289.1471,64.1248 289.3181,64.8068" id="Fill-235" fill="#333333"></path>
                <path d="M212.4568,80.8639 C212.7608,80.6229 213.0638,80.3819 213.3688,80.1409 C213.9178,79.7049 213.1418,78.9379 212.5978,79.3699 C212.2928,79.6109 211.9898,79.8519 211.6858,80.0929 C211.1358,80.5289 211.9128,81.2959 212.4568,80.8639" id="Fill-237" fill="#333333"></path>
                <path d="M214.7,89.6579 C214.942,89.5359 215.184,89.4149 215.426,89.2929 C216.053,88.9779 215.502,88.0369 214.876,88.3519 C214.634,88.4729 214.392,88.5949 214.15,88.7169 C213.522,89.0319 214.074,89.9719 214.7,89.6579" id="Fill-239" fill="#333333"></path>
                <path d="M217.6301,96.9713 C217.8711,96.8483 218.1131,96.7253 218.3541,96.6023 C218.9791,96.2833 218.4281,95.3423 217.8041,95.6603 C217.5631,95.7843 217.3211,95.9073 217.0801,96.0303 C216.4551,96.3483 217.0051,97.2903 217.6301,96.9713" id="Fill-241" fill="#333333"></path>
                <path d="M218.8103,105.7516 C219.2383,105.3926 219.6663,105.0346 220.0943,104.6756 C220.6333,104.2246 219.8583,103.4566 219.3233,103.9046 C218.8953,104.2636 218.4673,104.6216 218.0393,104.9806 C217.5003,105.4316 218.2753,106.1996 218.8103,105.7516" id="Fill-243" fill="#333333"></path>
                <path d="M219.9631,114.5475 C220.2061,114.3655 220.4481,114.1845 220.6901,114.0025 C221.2451,113.5875 220.7021,112.6395 220.1401,113.0615 C219.8981,113.2425 219.6551,113.4245 219.4131,113.6065 C218.8581,114.0215 219.4011,114.9685 219.9631,114.5475" id="Fill-245" fill="#333333"></path>
                <path d="M187.7375,99.7565 C187.9835,99.5095 188.2425,99.4015 188.5875,99.3525 C189.2795,99.2555 188.9845,98.2045 188.2975,98.3005 C187.7785,98.3745 187.3345,98.6165 186.9665,98.9855 C186.4705,99.4835 187.2405,100.2545 187.7375,99.7565" id="Fill-247" fill="#333333"></path>
                <path d="M191.5535,105.7536 C191.7955,105.5116 192.0375,105.2686 192.2805,105.0266 C192.7775,104.5296 192.0065,103.7586 191.5095,104.2556 C191.2665,104.4976 191.0245,104.7406 190.7825,104.9826 C190.2855,105.4796 191.0565,106.2506 191.5535,105.7536" id="Fill-249" fill="#333333"></path>
                <path d="M194.4382,111.0006 C194.6212,110.8196 194.8032,110.6386 194.9852,110.4576 C195.4832,109.9616 194.7122,109.1906 194.2142,109.6866 C194.0322,109.8676 193.8502,110.0486 193.6672,110.2296 C193.1692,110.7256 193.9402,111.4966 194.4382,111.0006" id="Fill-251" fill="#333333"></path>
                <path d="M196.0745,115.9079 L196.8015,115.9079 C197.5035,115.9079 197.5045,114.8179 196.8015,114.8179 L196.0745,114.8179 C195.3725,114.8179 195.3715,115.9079 196.0745,115.9079" id="Fill-253" fill="#333333"></path>
                <path d="M197.8577,120.0773 C197.9877,120.0523 198.0657,120.1153 198.1657,120.1903 C198.7257,120.6133 199.2697,119.6673 198.7157,119.2493 C198.3737,118.9913 197.9787,118.9463 197.5677,119.0263 C196.8797,119.1593 197.1707,120.2103 197.8577,120.0773" id="Fill-255" fill="#333333"></path>
                <path d="M199.3821,126.2467 C199.7461,126.3677 200.1091,126.4887 200.4721,126.6097 C201.1401,126.8327 201.4261,125.7797 200.7621,125.5587 C200.3991,125.4377 200.0351,125.3167 199.6721,125.1957 C199.0051,124.9727 198.7191,126.0257 199.3821,126.2467" id="Fill-257" fill="#333333"></path>
                <path d="M201.1628,132.2663 C201.3808,132.2663 201.5258,132.3153 201.6858,132.4663 C202.1958,132.9483 202.9688,132.1783 202.4568,131.6953 C202.0918,131.3503 201.6668,131.1753 201.1628,131.176296 C200.4618,131.1783 200.4598,132.2683 201.1628,132.2663" id="Fill-259" fill="#333333"></path>
                <path d="M202.4661,137.8922 C202.8271,138.0202 203.1881,138.1472 203.5491,138.2752 C204.2121,138.5102 204.4971,137.4572 203.8391,137.2242 C203.4781,137.0962 203.1171,136.9682 202.7561,136.8402 C202.0931,136.6062 201.8081,137.6592 202.4661,137.8922" id="Fill-261" fill="#333333"></path>
                <path d="M203.9324,144.2091 C204.1744,144.2711 204.4164,144.3341 204.6584,144.3961 C205.3384,144.5701 205.6284,143.5191 204.9484,143.3441 C204.7064,143.2821 204.4644,143.2201 204.2224,143.1581 C203.5424,142.9831 203.2524,144.0341 203.9324,144.2091" id="Fill-263" fill="#333333"></path>
                <path d="M204.573,149.4889 C204.837,149.4269 205.025,149.4939 205.24,149.6449 C205.816,150.0489 206.362,149.1039 205.791,148.7029 C205.339,148.3859 204.815,148.3139 204.283,148.4369 C203.6,148.5959 203.889,149.6479 204.573,149.4889" id="Fill-265" fill="#333333"></path>
                <path d="M204.9792,154.255 C205.0802,154.239 205.1652,154.269 205.2332,154.346 C205.6542,154.895 206.6022,154.353 206.1742,153.796 C205.8652,153.392 205.4992,153.169 204.9792,153.165 C204.2772,153.159 204.2762,154.25 204.9792,154.255" id="Fill-267" fill="#333333"></path>
                <path d="M259.8616,223.3468 C259.8916,223.5868 259.9116,223.8368 259.9316,224.0868 C258.5116,224.9568 253.8616,226.3968 247.4416,227.5668 C242.7316,228.4268 237.0616,229.1368 231.0216,229.3668 C229.8716,229.4068 228.7116,229.4368 227.5616,229.4568 C212.9116,229.6468 198.5816,227.6568 195.3516,226.0968 C194.9116,225.8868 194.6816,225.6768 194.6816,225.4868 C194.6816,222.0968 220.8116,217.7368 259.8616,223.3468" id="Fill-269" fill="#333333"></path>
                <path d="M195.3518,226.0968 C194.9118,225.8868 194.6818,225.6768 194.6818,225.4868 C194.6818,222.0968 220.8118,217.7368 259.8618,223.3468 C260.5518,223.4468 260.5418,223.7168 259.9318,224.0868 C258.5118,224.9568 253.8618,226.3968 247.4418,227.5668 C242.7318,228.4268 237.0618,229.1368 231.0218,229.3668 C229.8718,229.4068 228.7118,229.4368 227.5618,229.4568 C212.9118,229.6468 198.5818,227.6568 195.3518,226.0968 Z" id="Stroke-271" stroke="#333333" stroke-width="1.2" stroke-linecap="round" stroke-linejoin="round"></path>
                <path d="M225.6116,263.007 C215.9816,262.657 206.7016,259.787 206.7016,259.787 C204.0616,256.387 201.4216,252.957 199.3916,249.157 C196.4116,243.557 194.8316,237.227 194.8016,230.887 C194.7916,229.487 194.8616,228.077 195.0116,226.687" id="Stroke-273" stroke="#333333" stroke-width="1.2" stroke-linecap="round" stroke-linejoin="round"></path>
                <path d="M259.8616,223.3468 C259.8916,223.5868 259.9116,223.8368 259.9316,224.0868 C260.5816,231.7668 259.3516,242.5468 255.8216,249.1578 C253.8016,252.9568 251.1616,256.3868 248.5116,259.7868 C248.5116,259.7868 246.6816,260.3568 243.8016,261.0168 C240.2016,261.8368 234.9616,262.8168 229.6116,263.0068 C228.9716,263.0268 228.3216,263.0468 227.6916,263.0468 C227.0016,263.0468 226.3016,263.0268 225.6116,263.0068 L229.6116,263.0068" id="Stroke-275" stroke="#333333" stroke-width="1.2" stroke-linecap="round" stroke-linejoin="round"></path>
                <path d="M247.5315,228.0768 C247.8415,229.2768 248.1015,230.4868 248.3015,231.6968 C249.4515,238.4868 249.0015,245.5468 247.0415,252.1468 C246.6415,253.5368 246.1615,254.8968 245.6115,256.2268 C245.0415,257.6578 244.3915,259.0468 243.6615,260.3968" id="Stroke-277" stroke="#333333" stroke-width="1.2" stroke-linecap="round" stroke-linejoin="round"></path>
                <path d="M249.2019,233.527 C251.2919,233.087 253.3319,232.447 255.2819,231.607" id="Stroke-279" stroke="#333333" stroke-width="1.2" stroke-linecap="round" stroke-linejoin="round"></path>
                <path d="M249.6917,237.8869 C252.0217,237.5469 254.3117,236.8769 256.4617,235.8969" id="Stroke-281" stroke="#333333" stroke-width="1.2" stroke-linecap="round" stroke-linejoin="round"></path>
                <path d="M250.4119,242.4469 C252.2319,241.9269 254.0019,241.2569 255.7119,240.4469" id="Stroke-283" stroke="#333333" stroke-width="1.2" stroke-linecap="round" stroke-linejoin="round"></path>
                <path d="M248.4617,247.4967 C250.3717,246.9367 252.2417,246.2067 254.0217,245.3067" id="Stroke-285" stroke="#333333" stroke-width="1.2" stroke-linecap="round" stroke-linejoin="round"></path>
                <path d="M247.0217,252.1466 L247.0417,252.1466 C248.5917,251.9366 250.1017,251.3466 251.3517,250.4076" id="Stroke-287" stroke="#333333" stroke-width="1.2" stroke-linecap="round" stroke-linejoin="round"></path>
                <path d="M245.3215,256.2873 C245.4215,256.2663 245.5115,256.2573 245.6115,256.2263 C246.6815,256.0373 247.7215,255.7173 248.7115,255.2873" id="Stroke-289" stroke="#333333" stroke-width="1.2" stroke-linecap="round" stroke-linejoin="round"></path>
                <path d="M195.2615,230.8771 C205.5315,235.1671 216.9415,235.3871 228.1215,235.2371 C229.0915,235.2171 230.0615,235.2071 231.0215,235.1871 C236.9615,235.0771 243.2515,234.8771 248.2815,231.6971" id="Stroke-291" stroke="#333333" stroke-width="1.2" stroke-linecap="round" stroke-linejoin="round"></path>
                <path d="M197.1619,228.8971 C197.0819,229.2171 197.0019,229.5371 196.9219,229.8671" id="Stroke-293" stroke="#333333" stroke-width="0.182" stroke-linecap="round" stroke-linejoin="round"></path>
                <path d="M201.0217,230.1271 C200.8517,230.2871 200.6917,230.4471 200.5217,230.6071" id="Stroke-295" stroke="#333333" stroke-width="0.182" stroke-linecap="round" stroke-linejoin="round"></path>
                <line x1="204.1316" y1="230.3371" x2="204.1316" y2="231.0571" id="Stroke-297" stroke="#333333" stroke-width="0.182" stroke-linecap="round" stroke-linejoin="round"></line>
                <path d="M207.9519,230.797 C207.8719,231.037 207.7919,231.287 207.7119,231.527" id="Stroke-299" stroke="#333333" stroke-width="0.182" stroke-linecap="round" stroke-linejoin="round"></path>
                <line x1="211.6418" y1="230.817" x2="211.6418" y2="232.267" id="Stroke-301" stroke="#333333" stroke-width="0.182" stroke-linecap="round" stroke-linejoin="round"></line>
                <line x1="215.7615" y1="231.0568" x2="215.7615" y2="232.2668" id="Stroke-303" stroke="#333333" stroke-width="0.182" stroke-linecap="round" stroke-linejoin="round"></line>
                <path d="M219.6018,231.5568 C219.6818,231.7968 219.7618,232.0368 219.8418,232.2868" id="Stroke-305" stroke="#333333" stroke-width="0.182" stroke-linecap="round" stroke-linejoin="round"></path>
                <path d="M223.0315,231.547 C223.1915,231.947 223.3515,232.357 223.5115,232.757" id="Stroke-307" stroke="#333333" stroke-width="0.182" stroke-linecap="round" stroke-linejoin="round"></path>
                <path d="M227.5818,231.5568 C227.7518,232.0468 227.9218,232.5268 228.0818,233.0068" id="Stroke-309" stroke="#333333" stroke-width="0.182" stroke-linecap="round" stroke-linejoin="round"></path>
                <path d="M232.1819,231.567 C232.2619,231.807 232.3419,232.047 232.4219,232.287" id="Stroke-311" stroke="#333333" stroke-width="0.182" stroke-linecap="round" stroke-linejoin="round"></path>
                <path d="M236.1116,231.547 C236.1916,231.947 236.2716,232.357 236.3516,232.757" id="Stroke-313" stroke="#333333" stroke-width="0.182" stroke-linecap="round" stroke-linejoin="round"></path>
                <path d="M239.5017,231.3068 C239.5917,231.6268 239.6717,231.9468 239.7517,232.2668" id="Stroke-315" stroke="#333333" stroke-width="0.182" stroke-linecap="round" stroke-linejoin="round"></path>
                <line x1="243.1418" y1="230.5768" x2="243.1418" y2="231.3068" id="Stroke-317" stroke="#333333" stroke-width="0.182" stroke-linecap="round" stroke-linejoin="round"></line>
                <path d="M180.7356,163.2287 C184.3996,167.4557 199.5276,174.4427 212.9746,171.1397 C219.0676,169.6427 221.2616,169.0747 226.9626,166.4577" id="Stroke-319" stroke="#333333" stroke-width="1.2"></path>
                <path d="M180.7356,163.2287 C186.4676,170.4937 194.4856,176.5297 203.7396,176.6177 C212.9936,176.7067 219.5846,174.8977 225.4546,167.7437" id="Stroke-321" stroke="#333333" stroke-width="1.2"></path>
                <path d="M219.0222,167.1837 C221.0032,170.8837 230.9932,174.5107 241.5062,174.4417 C251.5602,174.3747 264.7792,169.0617 267.6412,164.6757" id="Stroke-323" stroke="#333333" stroke-width="1.2"></path>
                <path d="M259.6389,213.8312 C367.8939,220.4272 443.1739,260.9692 443.1739,260.9692" id="Stroke-325" stroke="#333333" stroke-width="1.2" stroke-linecap="round" stroke-linejoin="round"></path>
                <path d="M16.488,258.3214 C16.488,258.3214 91.176,219.8694 192.606,213.6604" id="Stroke-327" stroke="#333333" stroke-width="1.2" stroke-linecap="round" stroke-linejoin="round"></path>
                <path d="M96.6165,253.4494 C96.6165,253.4494 96.6605,249.1024 98.5165,248.2634 C100.3725,247.4244 101.2095,246.3224 105.1855,247.3974 C109.1625,248.4724 112.9075,249.9524 114.0205,249.5404 C115.1335,249.1284 118.0575,249.5044 120.5565,246.7614 C120.5565,246.7614 118.8075,250.7054 116.7125,251.6664 C114.6185,252.6284 111.5725,253.1654 108.9735,251.8564 C104.7415,249.7244 96.6165,253.4494 96.6165,253.4494" id="Fill-329" fill="#EFEFEF"></path>
                <path d="M103.5398,247.216 C108.0328,247.369 112.4258,250.604 116.6958,249.197 C118.4148,248.633 119.8018,247.384 121.1938,246.23 C125.1558,242.931 130.3368,240.039 135.2558,241.569 C136.8218,242.059 138.3268,243.085 138.8818,244.625 C139.7888,247.137 137.8218,249.851 135.4888,251.149 C133.1608,252.451 130.4268,252.903 128.0988,254.21 C123.5858,256.746 120.8828,262.375 115.8138,263.428 C107.9778,265.057 102.7618,261.962 99.7898,259.366 C97.0008,256.94 95.5648,252.64 97.1948,249.41 C99.2898,247.169 101.2468,247.137 103.5398,247.216 Z" id="Stroke-331" stroke="#333333" stroke-width="0.818" stroke-linecap="round" stroke-linejoin="round"></path>
                <path d="M120.9802,246.7609 C119.2002,249.5139 116.9452,252.5599 113.6732,252.7719 C112.0722,252.8749 110.5282,252.2519 108.9732,251.8569 C104.8512,250.8069 100.3372,251.3889 96.6162,253.4489" id="Stroke-333" stroke="#333333" stroke-width="0.818" stroke-linecap="round" stroke-linejoin="round"></path>
                <path d="M114.5349,239.2785 C114.7449,239.5565 114.9539,239.8345 115.1639,240.1115" id="Stroke-335" stroke="#333333" stroke-width="0.818" stroke-linecap="round" stroke-linejoin="round"></path>
                <path d="M119.0164,238.5309 C119.2344,238.8629 119.4534,239.1939 119.6714,239.5249" id="Stroke-337" stroke="#333333" stroke-width="0.818" stroke-linecap="round" stroke-linejoin="round"></path>
                <line x1="124.3123" y1="236.8717" x2="124.3123" y2="238.5227" id="Stroke-339" stroke="#333333" stroke-width="0.818" stroke-linecap="round" stroke-linejoin="round"></line>
                <path d="M47.9495,271.9796 C48.9955,272.9436 50.6475,272.7676 51.9965,272.3176 C53.3465,271.8666 54.6255,271.2026 55.7695,270.3566 C56.0135,270.1746 56.2635,269.9716 56.3685,269.6856 C56.6615,268.8886 55.7125,268.0916 54.8665,268.0186 C49.7645,267.5786 46.9035,271.0156 47.9495,271.9796 Z" id="Stroke-341" stroke="#333333" stroke-width="0.6" stroke-linecap="round" stroke-linejoin="round"></path>
                <path d="M306.3376,249.0275 C304.4326,249.2945 297.6136,247.1725 293.9186,246.3125 C291.9116,245.8535 289.5436,245.2515 287.7986,243.4855 C284.7396,240.3905 285.6686,237.0865 288.1096,235.6835 C292.1606,233.3565 298.0146,236.1495 300.3916,240.2505 C300.6686,240.7275 300.9156,241.2395 301.3276,241.6105 C302.4046,242.5815 304.0696,242.2165 305.5116,242.3105 C307.1656,242.4225 308.8376,243.3465 309.4846,244.8705 C310.1316,246.3955 309.8706,248.5325 306.3376,249.0275 Z" id="Stroke-343" stroke="#333333" stroke-width="0.8" stroke-linecap="round" stroke-linejoin="round"></path>
                <path d="M288.1096,235.6837 C293.2796,230.8107 301.6606,231.3327 306.8656,234.7747 C308.7066,235.9917 310.3536,237.7487 310.7256,239.9247 C311.0976,242.1007 311.1156,244.7607 309.7256,246.5277" id="Stroke-345" stroke="#333333" stroke-width="0.8" stroke-linecap="round" stroke-linejoin="round"></path>
                <path d="M283.3362,242.9967 C283.2782,244.9667 284.8402,246.6467 286.5802,247.5737 C288.3202,248.4997 290.2912,248.9067 292.0722,249.7517 C293.8522,250.5977 295.5382,252.0877 295.7532,254.0477" id="Stroke-347" stroke="#333333" stroke-width="0.8" stroke-linecap="round" stroke-linejoin="round"></path>
                <line x1="316.2576" y1="245.381" x2="318.6116" y2="246.166" id="Stroke-349" stroke="#333333" stroke-width="0.8" stroke-linecap="round" stroke-linejoin="round"></line>
                <path d="M317.4539,249.6408 C318.2359,249.9118 319.0169,250.1828 319.7989,250.4528" id="Stroke-351" stroke="#333333" stroke-width="0.8" stroke-linecap="round" stroke-linejoin="round"></path>
                <path d="M315.864,254.4084 C316.518,255.0624 317.172,255.7174 317.826,256.3704" id="Stroke-353" stroke="#333333" stroke-width="0.8" stroke-linecap="round" stroke-linejoin="round"></path>
                <path d="M343.6711,246.4938 C343.6541,247.1608 342.8271,247.4688 342.1601,247.4918 C341.4991,247.5148 340.7491,247.3828 340.3781,246.8348 C340.0061,246.2858 340.4371,245.3118 341.0821,245.4628 C341.0821,245.4628 343.6921,245.6398 343.6711,246.4938 Z" id="Stroke-355" stroke="#333333" stroke-width="0.4" stroke-linecap="round" stroke-linejoin="round"></path>
                <path d="M361.9387,240.3595 C363.3727,240.6485 364.8157,241.6085 365.1817,243.0235 C365.4987,244.2515 363.8797,244.5815 363.4917,244.6365 C361.7307,244.8875 360.5887,244.7025 358.8227,244.4845 C358.1257,244.3975 357.4087,244.2645 356.8327,243.8635 C356.2567,243.4625 355.8597,242.7255 356.0567,242.0515 C356.2517,241.3775 358.3507,239.6355 361.9387,240.3595 Z" id="Stroke-357" stroke="#333333" stroke-width="0.6" stroke-linecap="round" stroke-linejoin="round"></path>
                <path d="M388.3484,254.7902 C388.3484,254.7902 388.3604,260.2162 396.4404,260.6582 C402.2264,260.9762 405.0574,261.0792 407.0374,260.0232 C407.0374,260.0232 407.1354,263.8922 404.9784,264.7392 C402.8214,265.5872 392.3304,267.0852 387.6734,263.5012 C383.0164,259.9182 383.9064,257.0502 384.7364,256.4342 C385.5664,255.8182 388.3484,254.7902 388.3484,254.7902" id="Fill-359" fill="#EFEFEF"></path>
                <path d="M384.2776,259.757 C384.2776,259.757 381.5116,255.554 390.4236,254.428 C399.3366,253.302 403.3316,254.838 405.7906,257.604 C408.2486,260.37 408.5556,266.823 396.8776,265.902 C385.1996,264.98 384.2776,259.757 384.2776,259.757 Z" id="Stroke-361" stroke="#333333" stroke-width="0.761" stroke-linecap="round" stroke-linejoin="round"></path>
                <g id="Group-366" transform="translate(360.000000, 208.981000)">
                    <path d="M0.45,21.4444 C1.424,18.1304 2.398,14.8074 3.38,11.4864 C4.433,7.8954 5.495,4.3044 6.549,0.7064 C12.03,1.7964 17.576,2.6034 23.144,3.1054 C23.144,3.1054 19.4,6.4124 19.524,8.2074 C19.64,10.0034 20.636,11.6094 21.603,13.1294 C21.603,13.1294 8.853,12.1624 3.38,11.4864" id="Fill-363" fill="#FEE070"></path>
                    <path d="M0.45,21.4444 C1.424,18.1304 2.398,14.8074 3.38,11.4864 C4.433,7.8954 5.495,4.3044 6.549,0.7064 C12.03,1.7964 17.576,2.6034 23.144,3.1054 C23.144,3.1054 19.4,6.4124 19.524,8.2074 C19.64,10.0034 20.636,11.6094 21.603,13.1294 C21.603,13.1294 8.853,12.1624 3.38,11.4864" id="Stroke-365" stroke="#333333" stroke-width="1.2" stroke-linecap="round" stroke-linejoin="round"></path>
                </g>
                <path d="M435.0203,64.8234 C435.0203,69.2504 431.4323,72.8384 427.0053,72.8384 C422.5793,72.8384 418.9903,69.2504 418.9903,64.8234 C418.9903,60.3974 422.5793,56.8084 427.0053,56.8084 C431.4323,56.8084 435.0203,60.3974 435.0203,64.8234 Z" id="Stroke-367" stroke="#333333" stroke-width="1.454" stroke-linecap="round" stroke-linejoin="round"></path>
                <line x1="452.343" y1="38.4821" x2="432.354" y2="58.4711" id="Stroke-369" stroke="#333333" stroke-width="1.454" stroke-linecap="round" stroke-linejoin="round"></line>
                <line x1="449.2634" y1="52.317" x2="435.0204" y2="64.823" id="Stroke-371" stroke="#333333" stroke-width="1.454" stroke-linecap="round" stroke-linejoin="round"></line>
                <path d="M218.3079,198.7077 L226.4789,200.3367 L225.6209,196.0667 C225.6209,196.0667 233.5079,199.5097 233.8249,200.8017 L234.3039,201.8947 L239.7729,198.2017 L240.8759,198.7077 L242.9949,201.4347 L234.8929,210.8977 C234.8929,210.8977 239.1419,228.3327 239.7329,228.7537 L220.9649,229.1767 C220.9649,229.1767 216.3139,213.4017 216.6069,207.4237 C216.9179,201.0627 218.3079,198.7077 218.3079,198.7077" id="Fill-373" fill="#57B77D"></path>
                <path d="M212.0662,189.9396 C212.3072,192.2526 214.3592,195.9336 216.4962,196.8526 C218.6312,197.7716 221.2532,197.4446 223.0982,196.0296 L223.9192,195.3816 C225.1622,192.1486 224.6702,186.9766 223.4402,183.7396" id="Stroke-375" stroke="#333333" stroke-width="1.018" stroke-linecap="round" stroke-linejoin="round"></path>
                <path d="M213.2117,188.4669 L213.2917,189.0869 C212.1417,189.8869 211.6417,190.5369 210.5017,191.3369 C208.5517,189.7569 207.2917,186.9569 208.4117,184.7169 C208.4117,184.7169 210.0917,182.3569 211.7917,181.7669 C213.5017,181.1769 215.3517,179.8669 215.7817,178.0769 C217.2317,176.7069 219.5217,178.3369 221.4517,178.8469 C223.0217,179.2669 224.7317,179.1669 226.2317,178.5469 L226.5417,178.6369 C226.4017,180.5969 225.2717,181.7469 223.9617,183.2169 C223.9617,183.2169 218.2717,187.8569 213.2117,188.4669" id="Fill-377" fill="#333333"></path>
                <path d="M215.7815,178.0768 C215.3515,179.8668 213.5015,181.1768 211.7915,181.7668 C210.0915,182.3568 208.4115,184.7168 208.4115,184.7168 C207.2915,186.9568 208.5515,189.7568 210.5015,191.3368" id="Stroke-379" stroke="#333333" stroke-width="1.018" stroke-linecap="round" stroke-linejoin="round"></path>
                <path d="M215.7815,178.0768 C217.2315,176.7068 219.5215,178.3368 221.4515,178.8468 C223.0215,179.2668 224.7315,179.1668 226.2315,178.5468" id="Stroke-381" stroke="#333333" stroke-width="1.018" stroke-linecap="round" stroke-linejoin="round"></path>
                <path d="M226.5417,178.6369 C226.4017,180.5969 225.2717,181.7469 223.9617,183.2169 C223.9617,183.2169 218.2717,187.8569 213.2117,188.4669 C212.4917,188.5569 211.7917,188.5669 211.1117,188.4669" id="Stroke-383" stroke="#333333" stroke-width="1.018" stroke-linecap="round" stroke-linejoin="round"></path>
                <path d="M210.5017,191.337 C211.6417,190.537 212.1417,189.887 213.2917,189.087" id="Stroke-385" stroke="#333333" stroke-width="1.018" stroke-linecap="round" stroke-linejoin="round"></path>
                <path d="M212.7537,193.0138 C211.7917,191.8698 210.6037,192.3388 210.5037,193.8298 C210.4027,195.3218 212.5257,195.4358 213.6327,194.4308" id="Stroke-387" stroke="#333333" stroke-width="0.727" stroke-linecap="round" stroke-linejoin="round"></path>
                <path d="M232.303,194.4176 L331.962,190.3796 C331.962,190.3796 331.964,202.9066 332.609,202.912602 C333.136,202.9166 232.64,195.9016 232.64,195.9016 L232.303,194.4176 Z" id="Fill-389" fill="#EFEFEF"></path>
                <path d="M231.9944,193.0587 L232.2884,195.8777 L332.6094,202.9127 C332.6094,202.9127 328.5464,179.9917 339.6864,169.9227 L231.9944,193.0587 Z" id="Stroke-391" stroke="#333333" stroke-width="1.452" stroke-linecap="round" stroke-linejoin="round"></path>
                <path d="M333.2546,202.9176 C337.6366,202.9126 341.1656,199.0406 342.8816,195.2856 C348.7776,182.3896 341.3226,170.2166 339.6866,169.9226" id="Stroke-393" stroke="#333333" stroke-width="1.452" stroke-linecap="round" stroke-linejoin="round"></path>
                <path d="M337.4431,181.525 C338.3851,181.487 339.5471,181.576 339.9401,182.433 C340.0781,182.733 340.0861,183.076 340.0661,183.406 C340.0251,184.078 339.8761,184.743 339.6271,185.368 C339.0621,186.788 337.9731,188.06 337.9401,189.588" id="Stroke-395" stroke="#333333" stroke-width="1.452" stroke-linecap="round" stroke-linejoin="round"></path>
                <path d="M338.446,192.1906 C338.446,192.7656 337.981,193.2316 337.406,193.2316 C336.832,193.2316 336.366,192.7656 336.366,192.1906 C336.366,191.6166 336.832,191.1506 337.406,191.1506 C337.981,191.1506 338.446,191.6166 338.446,192.1906" id="Fill-397" fill="#333333"></path>
                <path d="M242.426,197.6163 C242.426,197.6163 244.418,195.3713 245.515,195.1593 C246.613,194.9483 249.093,194.6823 249.738,195.0013 C250.383,195.3213 250.927,194.8903 250.785,195.8243 C250.643,196.7573 249.613,196.9843 248.786,196.9013 C247.959,196.8183 245.189,199.6803 245.189,199.6803 L244.324,199.6803 L242.426,197.6163 Z" id="Fill-399" fill="#FFFFFF"></path>
                <path d="M219.6067,202.1725 C222.1337,203.6925 223.8297,204.5535 226.1957,205.0355 C228.1427,205.4315 230.1077,204.5855 231.8897,203.7075 C235.1657,202.0935 242.4337,196.6055 245.5157,194.6455 C245.5157,194.6455 249.9977,193.3935 250.7857,195.3815 C251.5727,197.3685 247.9597,196.4845 247.9597,196.4845 C245.7277,199.0035 239.2097,206.5975 236.9777,209.1165 C235.3777,210.9235 233.5927,212.8375 231.2177,213.2625 C229.6617,213.5415 228.0747,213.1315 226.5477,212.7235 C224.2077,212.0995 221.8137,211.4515 219.8237,210.0705 C217.8347,208.6885 216.2947,206.4045 216.4757,203.9885 C216.6217,202.0385 217.8487,200.2245 217.6667,198.2765" id="Stroke-401" stroke="#333333" stroke-width="1.163" stroke-linecap="round" stroke-linejoin="round"></path>
                <path d="M235.3303,211.4064 C235.8513,217.5264 237.2903,223.5664 239.5873,229.2624" id="Stroke-403" stroke="#333333" stroke-width="1.163"></path>
                <path d="M216.5256,205.5607 C216.0296,213.7907 217.5146,222.1327 220.8186,229.6857" id="Stroke-405" stroke="#333333" stroke-width="1.163" stroke-linecap="round" stroke-linejoin="round"></path>
                <path d="M224.4656,196.2575 C228.2676,197.3525 231.7886,199.4055 234.6146,202.1755" id="Stroke-407" stroke="#333333" stroke-width="0.727" stroke-linecap="round" stroke-linejoin="round"></path>
                <path d="M240.7312,204.8078 C241.7742,204.6878 243.9922,205.6048 245.0422,205.5908 C247.2112,205.5608 248.5232,203.9738 249.3982,203.3688 C252.1162,201.4908 253.2352,200.4338 255.6252,198.1538" id="Stroke-409" stroke="#333333" stroke-linecap="round" stroke-linejoin="round"></path>
                <polygon id="Fill-411" fill="#FFFFFF" points="239.3367 198.1539 243.7857 203.1469 245.5157 200.6509 240.7317 196.6629"></polygon>
                <polygon id="Stroke-413" stroke="#333333" stroke-width="0.727" points="239.3367 198.1539 243.7857 203.1469 245.5157 200.6509 240.7317 196.6629"></polygon>
                <polyline id="Stroke-415" stroke="#333333" stroke-width="0.727" points="218.1624 199.2164 226.3334 200.8454 225.4754 196.5754"></polyline>
                <polygon id="Fill-417" fill="#333333" points="229.385 204.1671 228.731 204.7271 224.463 200.8471 225.134 198.6071 227.391 199.2171"></polygon>
                <polygon id="Stroke-419" stroke="#333333" stroke-width="0.67" points="225.1335 198.6071 224.4635 200.8471 228.7315 204.7271 229.3845 204.1671 227.3905 199.2171"></polygon>
                <path d="M224.4656,198.1539 C224.4026,199.6129 224.4656,199.2159 224.4656,200.8449" id="Stroke-421" stroke="#333333"></path>
                <path d="M224.0427,198.0006 C225.0877,198.4026 226.1517,198.7106 227.3917,199.2166" id="Stroke-423" stroke="#333333"></path>
                <path d="M27.0408,103.922 C27.0408,103.922 4.9408,138.295 35.3548,157.478 C35.3548,157.478 8.0568,153.083 9.1168,130.17 C10.0708,109.55 27.0408,103.922 27.0408,103.922" id="Fill-425" fill="#EFEFEF"></path>
                <path d="M66.7258,134.9308 C63.7408,150.6998 48.5368,161.0628 32.7678,158.0768 C16.9978,155.0918 6.6358,139.8878 9.6218,124.1178 C12.6068,108.3488 27.8108,97.9868 43.5798,100.9728 C59.3488,103.9578 69.7118,119.1618 66.7258,134.9308 Z" id="Stroke-427" stroke="#333333" stroke-width="1.501" stroke-linecap="round" stroke-linejoin="round"></path>
                <path d="M10.3997,138.0724 C10.3997,138.0724 -6.5803,154.4254 4.5087,151.1194 C15.5977,147.8144 66.3827,115.3084 70.5617,103.8864 C74.7947,92.3174 54.5547,105.5204 54.5547,105.5204" id="Stroke-429" stroke="#333333" stroke-width="1.501" stroke-linecap="round" stroke-linejoin="round"></path>
                <path d="M219.572,193.5607 C219.733,193.8007 220.036,193.9177 220.325,193.9077 C220.614,193.8977 220.888,193.7767 221.131,193.6217 C221.8,193.1957 222.627,192.5607 222.439,191.7117" id="Stroke-431" stroke="#333333" stroke-linecap="round" stroke-linejoin="round"></path>
                <path d="M217.9104,190.4074 C217.9104,190.7714 217.6154,191.0664 217.2514,191.0664 C216.8884,191.0664 216.5934,190.7714 216.5934,190.4074 C216.5934,190.0444 216.8884,189.7494 217.2514,189.7494 C217.6154,189.7494 217.9104,190.0444 217.9104,190.4074" id="Fill-433" fill="#333333"></path>
                <path d="M222.0667,188.0636 C222.0667,188.4276 221.7717,188.7226 221.4077,188.7226 C221.0447,188.7226 220.7497,188.4276 220.7497,188.0636 C220.7497,187.7006 221.0447,187.4056 221.4077,187.4056 C221.7717,187.4056 222.0667,187.7006 222.0667,188.0636" id="Fill-435" fill="#333333"></path>
            </g>
        </g>
    </g>
</svg>