<?xml version="1.0" encoding="UTF-8"?>
<svg width="32px" height="32px" viewBox="0 0 32 32" version="1.1" xmlns="http://www.w3.org/2000/svg" xmlns:xlink="http://www.w3.org/1999/xlink">
    <title>icon/small</title>
    <g id="Page-1" stroke="none" stroke-width="1" fill="none" fill-rule="evenodd">
        <g id="02-1-contract-detail/txn" transform="translate(-119.000000, -819.000000)">
            <g id="list/detail/tablelist" transform="translate(103.000000, 823.000000)">
                <g id="Stacked-Group" transform="translate(20.000000, 0.000000)">
                    <g id="Stacked-Group-3">
                        <g id="眼睛" transform="translate(-4.000000, -4.000000)">
                            <g id="icon/small">
                                <g id="Group-11">
                                    <g id="icon/small/graybg" fill="#F5F5F5">
                                        <rect id="Rectangle" x="0" y="0" width="32" height="32" rx="4"></rect>
                                    </g>
                                    <g id="icon/small/share" transform="translate(5.333333, 5.333333)" fill="#001831" fill-opacity="0.6" fill-rule="nonzero">
                                        <path d="M10.5793525,4 C6.37661267,4 2.78749408,6.61409965 1.33333333,10.3040991 C2.78747275,13.9940987 6.37661267,16.6081983 10.5793525,16.6081983 C14.7862922,16.6081983 18.3712323,13.9940986 19.8253717,10.3040991 C18.371211,6.61409962 14.7862922,4 10.5793525,4 Z M10.5793525,14.506839 C8.25945344,14.506839 6.37661267,12.6240196 6.37661267,10.3040991 C6.37661267,7.98417873 8.25943213,6.10135927 10.5793525,6.10135927 C12.899273,6.10135927 14.7820924,7.98417873 14.7820924,10.3040991 C14.7820924,12.6240196 12.8992516,14.506839 10.5793525,14.506839 Z M10.5793525,8.54622904 C9.60959772,8.54622904 8.82148243,9.33434432 8.82148243,10.3040991 C8.82148243,11.273854 9.60959772,12.0619693 10.5793525,12.0619693 C11.5491074,12.0619693 12.3372227,11.273854 12.3372227,10.3040991 C12.3372227,9.33434432 11.5491074,8.54622904 10.5793525,8.54622904 Z" id="Shape"></path>
                                    </g>
                                </g>
                            </g>
                        </g>
                    </g>
                </g>
            </g>
        </g>
    </g>
</svg>