<?xml version="1.0" encoding="UTF-8"?>
<svg width="24px" height="24px" viewBox="0 0 24 24" version="1.1" xmlns="http://www.w3.org/2000/svg" xmlns:xlink="http://www.w3.org/1999/xlink">
    <title>icon/small</title>
    <g id="Page-1" stroke="none" stroke-width="1" fill="none" fill-rule="evenodd">
        <g id="02-1-contract-detail/txn" transform="translate(-1292.000000, -265.000000)">
            <g id="icon/small" transform="translate(1292.000000, 265.000000)">
                <g id="Group-11">
                    <g id="icon/small/yellowbg" fill="#F2E5C9" opacity="0.480538504">
                        <rect id="Rectangle" x="0" y="0" width="24" height="24" rx="4"></rect>
                    </g>
                    <g id="icon/small/share2" transform="translate(4.000000, 4.000000)" fill="#C99626" fill-rule="nonzero">
                        <path d="M6.88671875,1.8 C7.31345304,1.8 7.65937891,2.14592586 7.65937891,2.57266016 C7.65937891,2.96383326 7.36870509,3.28710483 6.99156539,3.33826695 L6.88671875,3.34532031 L3.345,3.345 L3.345,12.057 L12.057,12.057 L12.0570234,8.515625 C12.0570234,8.16001309 12.2972497,7.86051814 12.6242779,7.7705646 L12.724837,7.75001821 L12.8296836,7.74296484 C13.2208598,7.74296484 13.5441288,8.03363168 13.5952905,8.41077662 L13.6023438,8.515625 L13.6023438,12.2570234 C13.6023438,12.9563175 13.0688004,13.5309957 12.3865868,13.5961853 L12.2570234,13.6023438 L3.14532031,13.6023438 C2.44602627,13.6023438 1.871348,13.0688004 1.8061585,12.3865868 L1.8,12.2570234 L1.8,3.14532031 C1.8,2.44602627 2.33354332,1.871348 3.01575698,1.8061585 L3.14532031,1.8 L6.88671875,1.8 Z M12.3520273,1.80001172 C12.9993067,1.80001172 13.5318482,2.29104014 13.5958874,2.92045458 L13.6023437,3.04807812 L13.6023437,5.84977344 C13.6023437,6.26503812 13.265169,6.60149219 12.8494414,6.60149219 C12.4683578,6.60149219 12.1532804,6.31877731 12.1034139,5.95179862 L12.0965391,5.84977344 L12.096,4.417 L8.53417396,7.97301233 C8.28466476,8.22198027 7.90844122,8.26724717 7.61284144,8.10880903 L7.51757866,8.04845167 L7.4299945,7.97300503 C7.15256272,7.69614646 7.12734165,7.26277493 7.35433567,6.95745508 L7.43000033,6.86998525 L11.003,3.303 L9.54429687,3.3034375 C9.19786211,3.3034375 8.90597791,3.06979292 8.81830636,2.75159278 L8.79828094,2.65374517 L8.79140625,2.55171875 C8.79140625,2.17107019 9.07472673,1.85663461 9.44215386,1.80687207 L9.54429687,1.80001172 L12.3520273,1.80001172 Z" id="Shape"></path>
                    </g>
                </g>
            </g>
        </g>
    </g>
</svg>