<?xml version="1.0" encoding="UTF-8"?>
<svg width="24px" height="24px" viewBox="0 0 24 24" version="1.1" xmlns="http://www.w3.org/2000/svg" xmlns:xlink="http://www.w3.org/1999/xlink">
    <title>icon/small</title>
    <g id="Page-1" stroke="none" stroke-width="1" fill="none" fill-rule="evenodd">
        <g id="02-1-contract-detail/txn" transform="translate(-1120.000000, -158.000000)">
            <g id="Group-11" transform="translate(325.000000, 158.000000)">
                <g id="Stacked-Group">
                    <g id="icon/small" transform="translate(795.000000, 0.000000)">
                        <g id="Group-11">
                            <g id="icon/small/whitebg" fill="#FFFFFF">
                                <rect id="Rectangle" x="0" y="0" width="24" height="24" rx="4"></rect>
                            </g>
                            <g id="icon/small/scan" transform="translate(4.000000, 4.000000)" fill-rule="nonzero">
                                <rect id="Rectangle" fill="#000000" opacity="0" x="0" y="0" width="16" height="16"></rect>
                                <rect id="Rectangle" fill="#000000" opacity="0" x="0" y="0" width="16" height="16"></rect>
                                <path d="M12,13.9992784 L12,13 L11,13 L11,14 L12,13.9992784 Z M13.5356084,14 C13.7910352,14 14,13.7954524 14,13.5454604 L14,13 L13,13 L13,13.9992784 M6,3 L6,6 L3,6 L3,3 L6,3 M6.54547641,2 L2.45453962,2 C2.20454763,2 2,2.20454764 2,2.45453962 L2,6.54546038 C2,6.7954684 2.20454764,7 2.45453962,7 L6.54546038,7 C6.79545237,7 7,6.79545236 7,6.54546038 L7,2.45453962 C7,2.20454764 6.7954684,2 6.54547641,2 L6.54547641,2 Z M4,4.5 C4,4.77614237 4.22385763,5 4.5,5 C4.77614237,5 5,4.77614237 5,4.5 C5,4.22385763 4.77614237,4 4.5,4 C4.22385763,4 4,4.22385763 4,4.5 Z M13,3 L13,6 L10,6 L10,3 L13,3 M13.5454604,2 L9.45453962,2 C9.2045316,2 9,2.20454764 9,2.45453962 L9,6.54546038 C9,6.7954684 9.20454764,7 9.45453962,7 L13.5454604,7 C13.7954684,7 14,6.79545236 14,6.54546038 L14,2.45453962 C14,2.20454764 13.7954684,2 13.5454604,2 L13.5454604,2 Z M11,4.5 C11,4.77614237 11.2238576,5 11.5,5 C11.7761424,5 12,4.77614237 12,4.5 C12,4.22385763 11.7761424,4 11.5,4 C11.2238576,4 11,4.22385763 11,4.5 Z M6,10 L6,13 L3,13 L3,10 L6,10 M6.54547641,9 L2.45453962,9 C2.20454763,9 2,9.20454764 2,9.45453962 L2,13.5454604 C2,13.7954684 2.20454764,14 2.45453962,14 L6.54546038,14 C6.7954684,14 7,13.7954524 7,13.5454604 L7,9.45453963 C7,9.20454764 6.7954684,9 6.54547641,9 L6.54547641,9 Z M4,11.5 C4,11.7761424 4.22385763,12 4.5,12 C4.77614237,12 5,11.7761424 5,11.5 C5,11.2238576 4.77614237,11 4.5,11 C4.22385763,11 4,11.2238576 4,11.5 L4,11.5 Z M13.5454458,9 L12.9879126,9 L12.9879126,11 L11.9879158,11 L11.9879158,9 L9.45453816,9 C9.20453094,9 9,9.20454764 9,9.45453962 L9,13.5454604 C9,13.7954684 9.20454699,14 9.45453816,14 L10,14 L10,13 L10,12 L10,11 L11,11 L11,12 L14,12 L14,9.45453962 C14,9.20454764 13.795453,9 13.5454458,9 Z" id="Shape" fill-opacity="0.6" fill="#001831"></path>
                            </g>
                        </g>
                    </g>
                </g>
            </g>
        </g>
    </g>
</svg>