<?xml version="1.0" encoding="UTF-8"?>
<svg width="14px" height="14px" viewBox="0 0 14 14" version="1.1" xmlns="http://www.w3.org/2000/svg" xmlns:xlink="http://www.w3.org/1999/xlink">
    <title>icon/small/question</title>
    <g id="Page-1" stroke="none" stroke-width="1" fill="none" fill-rule="evenodd">
        <g id="4-txn-detail" transform="translate(-130.000000, -325.000000)">
            <g id="Stacked-Group" transform="translate(129.000000, 320.000000)">
                <g id="Group-21">
                    <g id="Group-8" transform="translate(0.000000, 2.500000)">
                        <g id="icon/small/question" transform="translate(0.000000, 1.500000)">
                            <g id="问号" transform="translate(1.000000, 1.000000)">
                                <rect id="Rectangle" fill="#000000" fill-rule="nonzero" opacity="0" x="0" y="1" width="12" height="12"></rect>
                                <path d="M7.45411005,10.4145053 L7.45411005,11.3227254 L6.54588995,11.3227254 L6.54588995,10.4145053 L7.45411005,10.4145053 Z M7,3.13867521 C8.50478832,3.13867521 9.72466028,4.23343209 9.72466028,5.58388315 L9.72466028,6.07292474 C9.72455477,7.23477023 8.81381047,8.23625551 7.54547698,8.46922852 L7.54493206,9.49621586 L6.45506794,9.49621586 L6.45506794,7.54004951 L7,7.54004951 C7.90287299,7.54004951 8.63479617,6.88319538 8.63479617,6.07292474 L8.63479617,5.58388315 C8.63479617,4.77361251 7.90287299,4.11675838 7,4.11675838 C6.09712701,4.11675838 5.36520383,4.77361251 5.36520383,5.58388315 L5.36520383,6.07292474 L4.27533972,6.07292474 L4.27533972,5.58388315 C4.27533972,4.23343209 5.49521168,3.13867521 7,3.13867521 Z" id="Shape" fill-opacity="0.5" fill="#001831" fill-rule="nonzero"></path>
                                <path d="M7,0 C3.134375,0 0,3.134375 0,7 C0,10.865625 3.134375,14 7,14 C10.865625,14 14,10.865625 14,7 C14,3.134375 10.865625,0 7,0 Z M7,12.8125 C3.790625,12.8125 1.1875,10.209375 1.1875,7 C1.1875,3.790625 3.790625,1.1875 7,1.1875 C10.209375,1.1875 12.8125,3.790625 12.8125,7 C12.8125,10.209375 10.209375,12.8125 7,12.8125 Z" id="Shape" fill-opacity="0.5" fill="#001831" fill-rule="nonzero"></path>
                            </g>
                        </g>
                    </g>
                </g>
            </g>
        </g>
    </g>
</svg>