<?xml version="1.0" encoding="UTF-8"?>
<svg width="15px" height="16px" viewBox="0 0 15 16" version="1.1" xmlns="http://www.w3.org/2000/svg" xmlns:xlink="http://www.w3.org/1999/xlink">
    <title>sousuo@2x</title>
    <g id="Page-1" stroke="none" stroke-width="1" fill="none" fill-rule="evenodd">
        <g id="Desktop-HD" transform="translate(-1063.000000, -282.000000)" fill="#FFFFFF" fill-rule="nonzero">
            <g id="search" transform="translate(343.000000, 264.000000)">
                <g id="Group-9" transform="translate(704.000000, 3.000000)">
                    <g id="sousuo" transform="translate(16.000000, 15.000000)">
                        <g id="Group">
                            <path d="M7.07225735,0 C10.9781572,0 14.1445147,3.27452235 14.1445147,7.31385037 C14.1445147,9.1068174 13.5206559,10.7490968 12.4851778,12.021199 L14.7238112,14.3352635 C15.0920629,14.716095 15.0920629,15.3335449 14.7238112,15.7143764 C14.3749411,16.0751641 13.8207193,16.0941529 13.4502332,15.7713429 L13.3902535,15.7143764 L11.0889961,13.3343871 C9.94812946,14.1499793 8.56413949,14.6277007 7.07225735,14.6277007 C3.16635747,14.6277007 0,11.3531784 0,7.31385037 C0,3.27452235 3.16635747,0 7.07225735,0 Z M7.07225735,1.9503601 C4.20793077,1.9503601 1.88593529,4.35167649 1.88593529,7.31385037 C1.88593529,10.2760242 4.20793077,12.6773406 7.07225735,12.6773406 C9.93658393,12.6773406 12.2585794,10.2760242 12.2585794,7.31385037 C12.2585794,4.35167649 9.93658393,1.9503601 7.07225735,1.9503601 Z" id="形状结合"></path>
                        </g>
                    </g>
                </g>
            </g>
        </g>
    </g>
</svg>