<?xml version="1.0" encoding="UTF-8"?>
<svg width="32px" height="32px" viewBox="0 0 32 32" version="1.1" xmlns="http://www.w3.org/2000/svg" xmlns:xlink="http://www.w3.org/1999/xlink">
    <title>Group 9</title>
    <g id="Page-1" stroke="none" stroke-width="1" fill="none" fill-rule="evenodd">
        <g id="02-1-contract-detail/txn" transform="translate(-649.000000, -429.000000)">
            <g id="Group-4" transform="translate(318.000000, 429.000000)">
                <g id="Group-9" transform="translate(331.000000, 0.000000)">
                    <rect id="Rectangle" fill="#F5F5F5" x="0" y="0" width="32" height="32" rx="4"></rect>
                    <g id="全屏" transform="translate(4.000000, 9.000000)" fill="#001831" fill-rule="nonzero">
                        <rect id="Rectangle" fill-opacity="0.4" opacity="0" x="0" y="2" width="16" height="16"></rect>
                        <path d="M17.076,9.308 L19.004,9.308 L18.9426667,14 L14.34,14 L14.34,12.076 L17.0746667,12.0746667 L17.0746667,9.308 L17.076,9.308 Z M6.924,9.308 L6.924,12.0746667 L9.66,12.0746667 L9.66,14 L5,14 L5,9.308 L6.924,9.308 L6.924,9.308 Z M9.66,0 L9.66,1.924 L6.924,1.924 L6.924,4.692 L5,4.692 L5,0 L9.66,0 Z M19,0 L19,4.692 L17.076,4.692 L17.0746667,1.924 L14.34,1.924 L14.34,0 L19,0 Z" id="Shape" fill-opacity="0.6"></path>
                    </g>
                </g>
            </g>
        </g>
    </g>
</svg>